<mxfile host="app.diagrams.net" agent="Mozilla/5.0 (Windows NT 10.0; Win64; x64) AppleWebKit/537.36 (KHTML, like Gecko) Chrome/133.0.0.0 Safari/537.36" version="26.0.16">
  <diagram name="Page-1" id="l-oIJnnEH0-CnacUQybn">
    <mxGraphModel dx="2299" dy="1340" grid="1" gridSize="10" guides="1" tooltips="1" connect="1" arrows="1" fold="1" page="1" pageScale="1" pageWidth="850" pageHeight="1100" math="0" shadow="0">
      <root>
        <mxCell id="0" />
        <mxCell id="1" parent="0" />
        <mxCell id="qNxANydqirzgauEr2VLQ-2" value="" style="shape=image;verticalLabelPosition=bottom;labelBackgroundColor=default;verticalAlign=top;aspect=fixed;imageAspect=0;image=https://miro.medium.com/v2/resize:fit:1000/1*kSRH4T8S1YmAuHbpgQ3Ylw.png;" vertex="1" parent="1">
          <mxGeometry x="-400" y="360" width="800" height="392" as="geometry" />
        </mxCell>
        <mxCell id="qNxANydqirzgauEr2VLQ-4" value="" style="shape=flexArrow;endArrow=classic;html=1;rounded=0;" edge="1" parent="1">
          <mxGeometry width="50" height="50" relative="1" as="geometry">
            <mxPoint x="-440" y="610" as="sourcePoint" />
            <mxPoint x="-270" y="610" as="targetPoint" />
          </mxGeometry>
        </mxCell>
        <mxCell id="qNxANydqirzgauEr2VLQ-5" value="" style="shape=image;verticalLabelPosition=bottom;labelBackgroundColor=default;verticalAlign=top;aspect=fixed;imageAspect=0;image=data:image/png,iVBORw0KGgoAAAANSUhEUgAAAo8AAAKFCAYAAACtCwMdAAAAAXNSR0IArs4c6QAAAARnQU1BAACxjwv8YQUAAAAJcEhZcwAADsMAAA7DAcdvqGQAAP+lSURBVHhe7P0PkB9Hlt8HPhAgAQ45w5nY9awXQHcQOKxXEdoJ+bxyn9rdB0xDsA1CjvBCg+tdESTR9B6Alc8kBJ8N4mw2LoiGjiBCJkT6QjsATscGzaaWEEVKIQuDvcCiTbB72tPy+k7n2QutFgdwuhtQ7NxucMgB8R/oey8zqyqzKqsqq35/+teN7yeigN+vflX59+XLl/leVS+bZwgAAAAAAIAAHjH/AwAAAAAAUAqMRwAAAAAAEAyMRwAAAAAAEAyMRwAAAAAAEAyMRwAAAAAAEAyMRwAAAAAAEExTX9Vz5+49un3nLt27d48ePJinB5y0JL9s2TJ6RI5HltGKFSto5WOP0mOPrjB3AQAAAACAxULDxqMYiV/duEm37txhQ9GcDIBtSVq18jF64vFVbFRiAxQAAAAAYDFQ23i8/+AB3bhxi27evmPO1OfxVTAiAQAAAAAWA7WMx3v379PPvryudh2bhbi0v/mNJ2nF8uXmDAAAAAAA6DQqG4/37t2nz9lwrLlhWYjERn5LDMgVMCABAAAAADqRSn7iu3fvtcxwFCRdSV8MVAAAAAAA0HkEG4/iov7y+o2WGY4Rkv4XP/+qqS5xAAAAAADQHIKMR2XQXf9KPSTTDiSfLzm/VhuqAAAAAACgGkHG463bd5XLup3IOyMlXwDAYmeaDm/bQYenzNeFYPZjemGhywAC0LLywpmr5jsoZeo4DWx7md6fNd+9dMAYtMmUubP6febMy1y+4zRhvkMus5Qaj+I+vn7jpvnWXiTfhtzXZsIYiI6j0+YHFy0o1nX2kbonubZssIKlj1YoGZnhA0oGtJar9P4ekbV8PZSn1zIGRJDxsbTIGgcANBk1rnjM5dgdufPHno9pxlyhMWM9N52FodR4vHHr1oK5jyVfyb8uM1Pj5OjDi5PVlcXFY9yhUDJLGT2R1J88u4beovGzHzrHu4NrzK8PF6otM8pvabMgdZ6dpnNzq6lr7TU6N1W0UOmjEVs2h/tofASLm0Z4GGUcVGfik0ken6tL7Q53/niLdtMY7VoENkeh8SjG261bjb8EvBEk/3rG61WaOH/NfI6YpAsl2/YDw1YnrjUn+b6TULZLkomjO2jXaFpOAOhs1MJ443N0ZMtqmj0/HW7I9O6nkY1se1a5ZwnSPfg26/j91G++A9BcpunCxdW0dfg5GgiwOxLW0LPDO6mr0j0LQ6HxeO/+A/X3qRcSyV/KURm1MtcfB4akMzTjn4Ru/XInvthnPnNyl2E8AgA6gWka5QXPwKYe6u4doK65cZqosGvev4n12txn2DkDoEXMnHmPxtcOUH9XD23mxVq43cHwPVvXEl2a7Wybo9B4vH2nwV3HL/45nRz8Vfql3efNiXrcuVP9wZnEZb2aNvTqzlDUcV3XwopnEBdHKv4ychvJzlcc65Deqk7HbJrDdTkV55OOk3Dziw7fFnkUU2VdE8Vw8JF2e2nXr3V9yq1j/y4xV95657SRQ6ZNUu7mVBnT5YrjvUw6wxfNd7pGp/Za6Zl0GgswN32TdnGl0lZtIf2UrluOayzT1t7+y8bTpOuSTifb3uVpxJiyq13cOXG7yPXZUAA3z5xQgcB2yJKWWT5K4o2ydfbFF2XTVfcF1LmsjdXvzrjNaRObqUkapz7a3Muf1UTDsjtWYXJqhJK+ieuTlp2cfkjrI598VR0ftg7QR54cWuNGpa2v8+omIaC/M2TKkq1jXv2ysimkx6Rv7BdTOgY7qszl96bHWLm+8OiJ0nuqoL2eXVt4ccff1GLt4nvl43qRUbzzWPdl3bf+FX38X//79Gv/q/+Ahi/81Jysj/w5xGpYLmtl/a+h/i2r9ffg7WAWsHcmzWdSq/zaiKLZO+bEX86OvkEvsAAnxoswScO2kp37zI3ZNMyO7vMPUk8+ErOZDHw2pi6bjw6crzMoZcDuo1Nm51bD14wk7ZGgB2LG9auUq19JSMxVpt57XqYXPG1kDzilJNL1M0afb9KRdkqXa3ykurKtTw8dOrGTurgtRuPycdtyO0qcyyGZ/CMuv0cvjBAdiWNfDtCAtKGj1KK2XufEsY1slP6zJwHpv2N0yY6lGU520QVR/k46XE5y5Ko8DYeu7fQuX3N6iMfZ2p10Wt3zNj0bbfkz0u+v0itxeiMbpe9S/SETF/fxBjt8RGKASpW7kVmK8paD29D8Wh9pc053/QGTJh/cVhvkp5I6l7dxxDi9Gve922Y+JJaKNvYZl6vRbRUWxer+tU+ria0SoX2jxv4kbbbq3cV6yK23luXhy25/0cgxbg0PQePDGDUjV2j3ieg66R/K1REuWpdc2BTdK6FLPLaiPAJk3EXmEK6SKYcuy2oeBx6DTWLr7frxWBP95ZRZGWrpMUk5etlP+RjsoDJ77tW6LimvzAmuPuQ+W29+zGPqDJ3bYpUnkqWcBU5lTDzy1l4T997bx3qoLDbZwnhNN7Dd0skUGo+1n3T+6R/QybPfpt/6J/8N/YY51Qj3q7qtLZd1ZP0r944+VbiFLINLr0Ys42njAXeir0EUSynxRpprNDsXBbNbk5w9CfTutwRcjiQOMy9mKcpHKThDUt819OxJOz0+YoMgMarVlrv+qOqezttm5swbpp1WWwo7qk9OrGikeGVSMadojo08oySSslsDjhXJq8YQtAOMo/Ycf8dnXETta5fd1NNMBEl/ROU3k4Fp+5B+F4XprGJtQ47zOaKUr1Z42p2xk46kH6iZW0d7Tm63JnSP4clK75SSGTdWq/+g1M/afZq9Spe4PrHyErg+cV24LU+y8T4wbKVjyjk7ekbLX1kadWBZsh8k6t8p/W8v5mTi4knFGW8mBshuBw8TR9noELlKt+HBBhZ9Cm4Hlm9n8chtdajsgaiQNo7g9LcO2+UuQmKp3PJo3Ra2KJbJdvgiy3pwfhFV+kbGklvvPek4y0iWfTJvvjmEjA/V5pK3a9BJfKOMc7+OcHEXdSZ0qWJYQILoW3esdg9KDNw1JVMuqbboHVQ6y56rJsZ44ZwaQzImbV1fSukY7Jwyq3tTurL/oMwtybwyc5nnhHghJXD5D5bINufvPtDYQ0NSnstXS+UjBOX1VJtW5gSnL67rsDhjXgTLBokzzjqTEuOx5kvBu/8m/eD/OUav9hV2YTBVy6GETn2yJj8TR6CosEpXxlijExAPgCEjCGoL29A1NGiEXgtXLrEbwTJofTFLVj56wBsyg0Kv+lWa1gpQx1jYDxqxcojrbhSpg32tXrXrcia7B75Y0YEXzeC2+4Tz2mMGtG3oR9hPztvGWryD6WmPpH3dsjc7liT7tHV68nqFlSorvKPH2QAm/8TtKEADrzxlhysqr7vjZJPafVL3eXb1DFq5JbIS0d21jv+9QjPS0CVp1CGze5+qX7Ri372z5LoM2qCKForNhfOWCdG381JAUBvHrOPz5mMJemFnXNYRZhz5F8WTNGzGihx6l6Z8dzNDlb5xJk5N93qWT2uM5sqySS9DwPjITtoJOs6zzAhMLZaEtU+zLvIZThVQO2iubszIcqZ+a7jN+L9Yd2cXDRFapsIoHYMRC15mc++LaV2px2M0ryi5yuxqh6F2qU0ddShCM+KAdTxyWhcVyZ+7+WB2Whte9LaeXONRnnBe6IdlIqQc4U9ca6HT2AaN7YbNX6UnT1vro/3WfzKxxLEcFdwSxYhrL90WLSZjuFYj/EGl9ITcSbDxOrxTGXc09Er1iVvB7egNOfDRQ4cil5tRSrYrSa3WxU1jfosPR86K02gJKkzDHrPRkePKjOBJ7RL/1xo3j+zERO49XZ6QiSqsjQ3BLuRosZb0iT7MePbGVclOta3T3F2lYOr2jZcqshyOavOOwujbveO0NeOVqYiR8dbTIWU29yaewOhw5y711Lxxl6vfS8Nbknl1mJJQlEq7t0WoeGQuftobpcY9jx9PbHJ688HdFe1cco3HZcuW0SN8dAJSDilPEKbzyihyXXcGegWjSSaAxM1aHdsdHQtsnpuoMulJyhyOq6k5pA18fdTYTWkbV+n9kTE2EsRl6cZxhqCNIrOqD0YbPdI2ohhFCUdGj1qtr7VjzezDbsf8NFqC2uURt2O6TPrIVap5u1WF6B2MUPoPmnJEE1VJfFR4G1fAhON45V+N4wpxVVWp2zdeqspyMdGiQbV5BxGHUjRDN9WS8ep0TJnNvX5dz4e9M9cbhXexkasWbAXeklkd/tQUj6IHHU/sH/dq7q7g9ex0Ct3WjzxS+HPbqFIO1XmGrOBZK6hO70Rr1Za4X+1d1eokK/PERWy7gzW2YrdjFnlFmtk1cR9Ech72YSaONs/l6cSsph96mTrehF2xBl1TBei4UG7zkxJ7xavPEc/q2CePaiG0OjZytIvGJ7dmR8rr0ub7TMxX7OoRl1HFOK50Gi1BTRh1DCBtCNZZEGbqY8VLe4nitUp21Ou0cRl6rKZc1hG+uMJmUrtv/OTKct7iP2R8FLS5ntT9Lu22Eri5kSVfxu05ryUsSJnrjOkoZraqF8oOv2oEPT/nhc9k40sXNyXGY2fsPC5fHmo82saVT8nasYUd3onWqi3ZAq/jIkpIVuZs6Jnt9MxT0owWck1Z3k5spTx9Z9KVw32iukHM5KhJyq+OBtz69m6FdpGY2DYTZ9qwURqvdLW7UAV88+r41cwOHtfJNr4l5kjqtfG5eAcgip10n4wXI11cOVZ8Kt972EnfKLX1ZndIBbaLCzJlhNv3laWRQ2NGkw5cF5lz2/0qvX+0yB2lwwLkiV53R5AXPLk7hFGcqPs2AtkhdoueTsNMNNwO0QThrXNIG1fCeCJyFghCWFxfXer2jR+tN1iWHTejb4EawdeWjA8x7HV4gRufWv8hIT+hMq50i3NdUf3KYBmXuO10fB/rqWbq2c4pc869jL0pkd6g0AusghhiM6/aRmny0GdjaM+eJ242ojA2efFRaJWtWLHcfFpYViwPLIe9QspRsvYDK53didknD2UntRG3dbR7FCPb6z63NRtq76bPy7Xxk9k2EhvnL1eyY9oclOvQVwYuW/rBhFAybVKDxMC2DpnoZILLPDmXMwnzNafXv5fcz/epp88d14p2I+vXVSR56deduLFsl5wy6SDsxLXoT2dg72e02XI/FqeRQ2w0yT3VHjIRohgmN9ZpH13aVDLxi8yKZ0EMSKvM5AnWj4j6PsnrDaJhz1sFnDTZUJfX9jhuM1+dw9o4GKPbfA8fxJhXgrTqnY+1+8aL6I3IzRilJa/3sbxDNkHjQ+uI6NU80bW1HxLKI1DGtXxF18lRUL8QxD0bhU1E7fAJ94dXL9ejo8os9/I8JK+3iu/l4+R6e15xx5fu66K4XjOvWmNaXl3UeMyjWVQW7m5HC9al8c7HZfMFT6LcvXefPv/i5+ZbHc7T3l/839E/3v4P6U9PbTHnqvOtp75Oj3aIIfswo9+ppXcqxZDt9FcJLBbkqT8VvN2CGBwAFjsYHwB0HsU7j8sfafChmS104s8+b8hwlPylHKCdTNPh9FNrU8ctF3dO3BUAAAAAljyFVpk84bxy5aPm28Ig+Qc/aQ2aR/o1I3HcizxxWfN1HwAAAABY9JRu6T3x+ONsvJkvbUbylfxBh7BR3ovVxNghAAAAACw6CmMeI27cvEXXb9wy39rHk19bRV97fJX5BgAAAAAAFpqgYMLHV61s+wMr8qS35AsAAAAAADqHIONRYg6f+voTtLxNLw2XfL7J+SHWEQAAAACgswi2BuWvvDz1DTHozIkWIelLPp3y120AAAAAAEBCUMyjzf37D+hnX16n+w8emDPNQ17J89TXn6zwF2UAAAAAAEA7qWw8Cg8ezNOX17+iO3fvmTON89ijK5RrHK5qAAAAAIDOpZbxGHHr9h26/tVNelA/CfUS8CefeJxWrXzMnAEAAAAAAJ1KQ8ajIHd/deMm3bx9W30ORTYYV61cSU9+beHeIwkAAAAAAKrRsPFoI27s23fu0r1795RrW3YkJXlxRcsO4yOPLKMVK1bQysceVW5qAAAAAACwuGiq8QgAAAAAAJY2eKwZAAAAAAAEA+MRAAAAAAAEA+MRAAAAAAAEA+MRBDFxdAcNHJ023wBoM1PHaWDby/T+rPkOlhQzZ17m/j1OE+Z7a5imw9t20AtnrprvAIC6wHh8mJn9mF5gZTpQcCyMor1K7++R/AuMBWVMBJQ30OhQxvGej2nGfF98YGJEGzwMdGIfl+srbRy7ukqOw1PmgohFsUjCOAMwHhcPytBrslLp2k7vnv2Qxs1xemg1n+yjEevcu4Nr9LXtZHaazs2tpq611+jcVJGCWk27TyRlHT+xk2h0H3ZIQUIrxs1iYAnUWxlci2FBF6yvXN06PtxH4yMwwsDiBMYj6DhmpsZpduNzdGTLapo9Px0+ebAxfEQM4IuTld1f/QdZmZ/cTt3m++Kjhw7xhLQgxn7HgDZY+nReH9fWV737aWQj255V7ukIMM4AjEfQcUzT6Og1GtjUQ929A9Q1N04TFXZP1D10hWYetp0mAMAC0Ji+6t/URzT32SIOlwEPK0vPeIzdNVEciusWSMee+F0GOqYjue44TaRjUfJiU0wcYSaWxZyP0/S4YzJxMeoaU4+9YzRL1+jUXv1bUu6kntHRUjdIqh7B7Wd+KWVqksapjzb38ueuHtq6lus81no3dDbmsUq7mmt97nKPnKi8rHTTshI/nKTulWui9isqU14cUvaebDn1vVIOVwZD3Z7p/uYjlUdcp5bKj90Gpt51xk2FsZ1Xr8z4Vr/rNMv6X1Ot3+I0j/6gpN7ZvvLnH+HJQ46ofrGM+tIydciU26Tl0YEK05a72CijuTHapdKO+sPuY03i3k7XrZrcVL+Pabu+ym/Tpadr0v1SJqugrchfmFlSzHw0//wzL80/v/ul+bEZc87w6evfm//uM2/Of2q+62u/N//8B3PmBOM798M3+T6510pTncvmEd3/2g/Nd8Hcn5ybmx/bzent/mj+J+bMTz54yS2bXPN68ntULzc/k87rPzLfGb7uNbvsFciWIUG3nVvmbL0YT/tl2r0Ada1Vn9wy5bR/5vq8fkqh8o3rVr1d88rpTbekDfU9LMN2/qVl+tH8a6l2j/rCucdc55QhOpe6P7TfpO5hMpDKN1B+ouvK+zGvDSqOmzyZMWXz9pWvPe1zphzPc772/Vpu/G0Q2m+i65z7BW+9Pe3Ddc3c62Dy5SO+zpRP8rXLo+ti5+lpZ4M7LvzjR51z6itk66Cv47Z17jd5O+c89Y/qYp0LlXtBXWvVz1cPIe98uh1yZc8iLK3Frms8eZTKKmgnS9RtzSvWLa/Qs13mq8Cr2ZMXiQaG91O/ORXFyM2OnolXmhNjvGLfeMCN5+jdbx4mqQOvxt6ZJOI0D8nqVLGGnh3eSV28qh41K6mZy1zmjX1J2eSag2UxeFfp0hzXaVOP+c5wnQ61LBalj0bsuMDeQdq9lmj8k2R1qdpv7U46YpWh/+ABGqBJOplZqaaZpgvSR1Z9tBt6ki6ErDh59Sy7FU4f16J6u/rLaerzommzqTN0am417R6221DHPY2/k9qFmVtHew5a+dcoUyTL4046PXTohCt7MSm579/J1wW0fffg25ZsM1yuPRLLdTnd34Hy09Tx56PJ40b6yomXzWtj0UtvOW0lbZfu/6r9Nrv+Obf985jletNq2trrtm3Qvbb+ivqX29CW5e7B53iclz000iK4LFtP2OOe9efJcr2zkPpKdt6GL6b0QQAPha6ZbUBWQVtYsjGPG7pcQVdBzawkhlLC1921jv+NYuSyyiBCX1cD8yTe7p2pNLl8G/i/SzxIhO718qDHMY8roAhOQybfEd+WfwtwjFthDZeb/2MjQSujlAKL0eXMGhMuM2feS1xAEcoV5BoYCYlbTh0jV9TT140rmBrtaiZURzHbLi1m4hNZRDznLmoY1ffpuKe1T3vbMLxM+bKc16aZa1MyWozrshrmvBO5MITKTzPHn5cmj5tMvRhv26UmQ4Pb/9X7rWt9/qTuoMokY6aCW9aQLo8qM63jftHfF5y1A9SfKYvu53y90259NUnDka7iY9foOho5+3ZGH5TyMOiaBmQVtIclajyuVsJvo3b2eAWk42esY4QHWQQL7iXzsWnwQLVjj5LjGA/2BNmBkFc3zMqrZuT3vHggB1ldf8iryST9asZnkzHtJ6+fcOu6j1fB+pJ8rtLEee6jlIKN7734nkeRpV7VU0cRe6nXrjr4PQqYj3acI8OCDaTL/B8vEJK66UPFdqVhgyCt0CuVqRWynIOOq9pH57a8FfeF7HBUpm1l7rBxY1OjDdIL5XzkKdm3aPfaZIw91DFkbddXqVf1nK3vIVn6ugay2uk8NE9bqxXX2p102hm80WGMDrP6CYJXa0F2iroubeQkR9o9p88foAFl6IatutRrZuS+yPj0BVO3A9N+A8NJ/ZzDcWmkUDu0OfeK62MB3GGV27W3L3HbZXaczS6buHbS9VNH2EQSXKYqstwIU8e1643l25HlOrSrzIbctgwd2wEEG3bR7k/L20AbBlJvCQVo7XsGjcwvMLk7s4tZXz0Uuqadsgqq8vAYj+L2Kn2NAg+CHJeDcgNkuKZiQ2yUe9x8VqiBVVWRmFiRqq+cYeNTxYal3YVtI7/9ytDtlnIBRUQxVgv1PrTgdu2hIb5OyjmhwiRcV5pawNR4B6WX0jIV9EU08fncTE1Bu7GqU3X8NQlvWwaM7Qhfnyo3YtoD4tMDZgcr3v1pX79F8ZZl7tmGychoXfkowKfbTXvlG/CLWV89XLqmbbIKgnlojEcdnC/b8KndvNmP6XC8muGVzot9arvfWeGo3RXzOSKK5Rix0uO0Xs24Bcwg55Wbu+1+ld4/agXJH3XLpZWTFVPkNUKn6bCzGkxNROb1C+3b7s9pPyZdPxf9rjRv7JjBddO0mpJ2LUC/622MhuXBnRfdWCr9QMEkDadDErifyvuoapm4L+ShLHFdOfdxOvIaF/sBiEZQu3SuXE4cdUMywqkw/kKpM26Cx3YE96mdnrxqRsJhPDFns6NvOO7MiaPi5nR3jZrSb756O7pO0EZccMxkDfS4HaNXrXxD5SNswR/Bun3EHlemvTxx7gmLW18taV2zALIKqvHwGI8i4CqOgweUiaFQx97PaHPadRxt00fXfNKnzrlIevqpvDi9EaIjasfQJYpndGNr9tGlTfaAd8ulg6lt90JihMrvsbKTARvfxxPR+vQTb21G2o/bQP2ZwLhcO+jk+sFcRat3aUpWp8ZN0453PirqtqsxPCS+KbsrYeJ4KBV7+87TBROcRdUydcmfn2QZde47RpeG3mqejEgeqfFyYVPNmEchePyFUmfchI9tBU+Op9e/l6THEyZ521jc+8/RJRNHJsfwRYmDS8XqNqXf/PW+5IxLnWbD4QZFmF2rWvIRL/jlvpKHNyQk6cXPrHHFBqq4bcv+atRi1ldLXNe0XVZBJZbJ+3rMZ1CE7OKpp3mb9VAGAGCxIw8LDVPAwkJ2I/eO01boj6Yjr7zZdX6ATi/qPy8KwOLiIdp5BAAAAAAAjQLjEQAAAAAABAPjEQAAAAAABIOYRwAAAAAAEAx2HgEAAAAAQDAwHgEAAAAAQDAwHgEAAAAAQDAwHgEAAAAAQDAwHgEAAAAAQDAwHgEAAAAAQDAwHgEAAAAAQDAwHgEAAAAAQDAwHgEAAAAAQDAwHgEAAAAAQDAwHgEAAAAAQDAwHtvEzJmXaWDbcZow3x9upunwth30wpmr5jsAAAAAFgsPnfEIIw4AAAAAoD7YeVxAJo7uoIGj0+YbAAAAAEDn89AZj92Db9P42f3Ub74DAAAAAIBwsPMIAAAAAACCWZLGo45r3JEcez6mGec3K+Zx9mN6YdvL9P7sVXp/j3WPcSe7acl16rQh78EPk1aeS3rquEpv+CJ/vnjMpG2VyfxuH4enzG8Kna+cKy6fQdXRSs9qD5tMu2ViQ6vUN9We3vs0yn3vLRMerAEAAAA6jSVnPIoBtGt0HY2c/ZDG1fEW7V5vfszlGp3a+wbRsLlnuE8ZdS/s4bQuP2fS+ZBGNsp1TXjYpne/SY8/bzxg0o9c6Wx0vUNW+T+k00OraXwkaxiOj+ygV+mV+Dpv+cQQ3TtGG6K6SXvQGO1yjDVt6LntJulN0nCeQVqIpLePTq2P6sbHiZ20wfyapn8Tt/fcOE2k8pk58x6NUx/tGVxjzgAAAABgoVl6xuPla2yQ9VkxjWvo2YPbqdt8y6Nr6BV6tst86R2k3WuJZufYmDrYY06ykbNzJ3XRJF1wdgGbDZf3pBuT2T34HA2wgXtpzpyIYMPzXcuwypZPDNFJdd2hXnNK0h/m6+bGaDS6buoMnZrrY8PRzbf/IBuaa9kgHav6UM9VVdaBTUnbUdd2OpRnBKr2TudzlSbOp/sSAAAAAAvNkjMeu9ev1ruGlVydq2lrr23YrOF0+L+1T5canS3DcTUfo3E+dWnWrZNjnAlda9TuXnzd7DSdm1tNu3cWXzfxiRiYPiNtDfVvkfacrLjbyumz8e3bLfXjySev7AAAAABYUJae8ShPUw/30ezoPm145cT3dS46zm9g7zhtPRG5kA/QgPm1EnOf0axyyUdGaHRoY1RzlWYum49NQ3ZPIze6zrPMmO/uHXB2TWemxml27QD1R7vBAAAAAOgIluQDM1FMoTK65sZoV8teCq532JrJxFE27NbupNNn307c6HVZ+zQbZKtpd2yEuod2eZtd1iCq1bf/oMkrMuaL3mnZtZ32bCQa/0Su0S7rri09C7fzCwAAAAAvS9N4jOmhQyckDvAKzVR+6COc2cupXTXlcjWfm8HUpLVTWAHlnr5G56ZKdv2Uq9/nmvbHHVauLxvz8tAP8X1Fu8DqwRkph4nBxIMyAAAAQOex5IzHiaPuLqNyf9I66m6J+zOK1TtmvUrnKr0/MsZ5luMz2tQ558njaTo8Mmk+V6WHhthok10/91U/XMajiTu/e/AV2r1Wnqx2227i6D79IE380FBofbnMqdf2KCN0/ZrincTePhqgSTr5zhVPDKZx5xftXgIAAACg5SzBnUcxgpL4Pv36mdb9RRmJsZRX7shrc3Se8sofeUrZXFCAfoo6Kq823HR6dpziJG2uG/PIRDGgSfnk2EeXNtlPoEcxim7bDV8W93n6ye/A+sbvr5TDvLbHenLdjzF2565lHwYCAAAAQEewbJ4xnwFYcNR7Os8P0OmT5a9XAgAAAED7WeIxj2BxMU2jo3hQBgAAAOhkYDyCjgF/UQYAAADofOC2BguO/pOS1/hT9q/cAAAAAKCzgPEIAAAAAACCgdsaAAAAAAAEA+MRAAAAAAAEA+MRAAAAAAAEA+MRAAAAAAAEA+MRAAAAAAAEA+MRAAAAAAAEA+MRAAAAAAAEA+MRAAAAAAAEA+MRAAAAAAAEA+MRAAAAAAAEA+MRAAAAAAAEA+MRAAAAAAAEs2yeMZ8b5s7de3T7zl26d+8ePXgwTw84aUl+2bJl9IgcjyyjFStW0MrHHqXHHl1h7gIAAAAAAIuFho1HMRK/unGTbt25w4aiORkA25K0auVj9MTjq9ioxAYoAAAAAMBioLbxeP/BA7px4xbdvH3HnKnP46tgRAIAAAAALAZqGY/37t+nn315Xe06NgtxaX/zG0/SiuXLzRkAAAAAANBpVDYe7927T5+z4Vhzw7IQiY38lhiQK2BAAgAAAAB0IpX8xHfv3muZ4ShIupK+GKgAAAAAAKDzCDYexUX95fUbLTMcIyT9L37+VVNd4gAAAAAAoDkEGY/KoLv+lXpIph1IPl9yfq02VAEAAAAAQDWCjMdbt+8ql3U7kXdGSr6Lh2k6vG0HDcix52OaMWc7gqnjulzbXqb3Z825tnCV3t9j2uTotDkH2oeWyRfOXDXfQSHxONlBh6fMuSXIxFGMx2L0uFnKMlCXmTMv8/g4ThPmO3h4KTUexX18/cZN8629SL4Nua9nP6YXzGTwMBswE59Mmk/X6NxUGw2J2Wk6N2c+X5xcUIWjJsxI6Rm5yJ0c1O8VDO2y9DoIKP+cNhDDceQK7T7xIY2f/ZAO9aKtAKhH2aLV/V3r5qJDj8HQ65yNHPsI2tTJubcltkNZO3U2pcbjjVu3Fsx9LPlK/nWZmRonZ/5vlgFjjIVO7HTHSDL0b+ozn1bT1t415nOT8bVJVw9tXWs+b+yjfvOx7bBhMHyxj0bO7l+4MjwsVDW8W0mFsqgF1toB6u8yJ1pJJ7XRUgTtu6joP6gXbPo4QAN8rmvoLeuc1tuh10W4v71Fu2mMdgUuBp17T+ykrovHsFufotB4FOPt1q3GXwLeCJJ/PeP1Kk2cv2Y+R0zShUZ3h2SHYu+Ya5R2BNpFPHzRfLXp3W8Gwtv0bCsmx9w2WUPPnjQD8GCPOdduuF3emWRlMNg6w7FrO73LdZTdqk6ne/Bt7o+H24gObQO0FQBLBZ6LhtkIrGMDsH4/MrS6Bd6zHjrE88a7gy3a0GkxhcbjvfsP1N+nrsqtmX9Gr/7Hv0q/9IvfUsevfPf/RBe+MD9WRPKXclTGcpkODInQaMY/werhoULJQQt3XAEAAHQ+xhN2aXZxuok7jULj8faderuOPxx5jsa//bfo+//kn9JHf+dv0FM//j79jRfep5+a36ty5071B2cSl/Vq2tBruU8zqwcrxsGJiUifNw9/jEya39kuGd2nfve6r40bN4qZCLkm80CLFcAv9+sYrOT6OMZOXbePTkXxhby6GlbX6C16+75MXJ6VR3REZU3npw+7jGVtkte2gi+2JO1SsB64Ub+l7gmIYVFy0Ax3ZKadrLKafkzaVpdTvrttmONKS8sB12uiQrxdtp/y79PXZn9PxxOl5UT9Lm6bXLk2faV2oK/Rqb3p3/Ow+9gcKfdQcdmSto6vO/qDwrI4bWDqo3bs58Stxdcaucprq+L29sh1XJ+QNkrfH5B/wDjw4pE7XzplslFcZ40qs6Qf5+mOhep97NsECGnfcnnzEpfb7Y90X6TlXZVX0s8dNxHZcmWvKcGjy/Pa0S13uF6qJWdLgJnL14jWPk3d5rumXO591yR9on/L9nP2nsqy0AaKdx5rvqz71//OZzR56m/S9r5+6hv6ezSynU9O/gH9WP9cGflziNWwXNbKcFhD/VtW6+/NcF2XIZNQyo0rRpU9kNXgTV0jD7SIwnMHvEbu3zXquuHHR7ITSxWUYrMMvzRqwGSQMuYom1CUkjtG4+ZrwqQyen3117+l7uF2frVkUEkdurb0pAZ9RaS81sMUcoxsNL8VMD6yg16lV6x7pO1SfSZpsxxsGE7SPr1lnIZTfZ2H9OGuUapctgQ9aQ1f3kmnzf3jw32q7Jl+kLifEaIj1nWJXJsQBYkP4gVbVJ5il4woSV70kJW3iWXShJft0jsv04VN5pqDz4SXxYQcqDZba/I5uT1XXsrae+bMe0RWX0bxUlr5l7SRmqyP0SUr3mpko8h9IjOiN3aNrqORKH2J5VpvfqzC5ffoBbsvpd1FbzkGQlj7F9fZZpxejfOMQmjq9rEvDCakfVne1h/QaaiD6y1yXWQYyX2iqzfKfUkYg5YFqy84X+LxkKl34bgRpA1S5eK0Nphfw+A03iFLLliPDK3mdszq6nbopY7EeCM3sD1QCW6L4YssT8OuXiiXe9Fv7niWvi/E6IBxJWtJutVkoT0UGo91n3R+6qmnzCfhFt0Sl/XKp8g+W4X7Vd3Wlss6Mhy6ewcadF0bxWR1fhRU65uUBoxQyQCOiPNlAXnVDEI7MDeahMbf8SkyeeBDruPJItpFjQxhFdNon4+uzY/Xkkkojo+MJk11HKCt5rQboMyHUspC9NR2tTbR8ICKDdZEwdtGQ55RHLeVld/s+emC1fBVNh7NxwaYmb2SeZii/2BALBwrALsd+ndK+9mLF1H4Eo/5lhMvKbF2QQZgpNROuLGsQWWLmDpDp+ZSipHlSfLPyiHLlW1Y9Q4qmasbCjJxlJWkyJ5jrPXQocgwqFC22fXPtT7mNKC9pe+ccrBxuofLO3s5bUhlmRhjA4Xb44gtMwdlXEzSSTMhqQWd8/AZj8GD7qQWxNw62pNudxnfbECORvIZ2P7BdWadvDU1Abezj1X7yqTsGJ6eetvYhqN9H58/yfpzYNgaayY2bnb0TEp/lY2bq3SJ22Zgk5U+p3UoV4f6EF3sjvvuwedYdq6ptB1arZcMkRcqe/g2DloNzzumH0NkyCk7z1ddQ69knhcolftZ7lee45yQKZbt/Py53Uc8slZZFtpDifHY+EvBv/iD/wMduMD13/si/bo5V5Wq5VBKQn2yOs5+8rfVr43hCWDICIhttEbYT4HbQhobc3OfZQyi5IEPVhIvJsZTvfgN+2GilOJmZfpsSlDVDqWUUQafORcyGXqZmowVhzsge2goNrR9u8N9tCcql1G+Ck9bpam80kzR3bVO7XLuCnFvWTiTgcDlkBVk3GcFK+Hu9cmiI49mPCGs0tj4XFYxSv7pts08Mb+Gr+P/WBbK+iDLNF1geS/aFa5Stq71jfVxCOHtLTtJZsxE47q0jXR7DLyYMq64jTewrEfjTdXdu6tXEd/bD1LyWUk2guq8jseS+WhoXx+b9k2PScHMDdlFUGJwpHc6dThMoucjlK6gK7zg1N8VpeNG97Fvl7Ayaucq6gdtpKXniDC95I8TV/0SiL0x4h62d6F1uMar2QFM9WMebtnfoq3nJS3fpkaB3Kt29ezq5mHmA6+MdiC5xqM84VznYRmbn360k/7yb35E9Mz/jc4e+o45Wx0pR/gT11pJaLQbWHesGxPYctd1Q6SUT0vJKnRNMihio/ZhhVeLkUtCy1KgMiiDJ8dZNt5l4qgOKyjZVeUJNc/4KsekEdcrOdIhEk2HJ6pL/F++YV+tbI0uEMoJa2+90NpH57Ykk0/Qbo1pD3EpuvW19RZP3oNvx25P9XvL4tDC2z+4zpmYsTb2sWnfKoyPiPHVRyMeg0PtAMuCMlXuojCgfLQHR7uPdTrVFwfiIuV7947TVo83pxJKLy1+0sZrvjesDOkf1wMglMu9PE0tHsFJ8wxCXkiWoaH5oP3kGo/Lli2jR/ioxxf0h4f/t/SdPWdpw8v/D/qf/rvv0bfNL3WQckh5grB2tooodbXVUDZ1iNzb7tGiV+pUQbmTzGdZeatytWfF2Gwyu7PplXYaNYhTRnWXjo3T4QGiDJqwS9AQZveiIUwacf+mjwru76qYPshnAcvmJaC9Y7d2jYnKtIdfH/BhGzCymFHneTwqA6ZJixmDNtIC27+ROrezj0vlLcvAcDTWs+2rduCccB/7qKe/4zChaHFQwdMRh4A0Y+5gI3+hp5/Og+XHNuqC5V4vDKRfdQxqwcJgkbV7odv6kUcKf87lp/9gJ217e4Z+493P6AeH/t3asY4RVcqh3CCGrCK2jJ/YdW0Jxdw4TRiDIPOCcQ91XbdO/GU6vo+FsnB1EkTZzqX7ANGwvXsx+zEdZuFWcX4KHiA7zcQVYJiXtklvX9wHbmzQNI3Guw19tDkgLqWcvAm/hzZLbEpOvKR2peW91DxahXpiiaqi2sL3V3987yjNol2YjYVgNCONeuhxV7SIW7iy+alXHtsTUkR5e2Qx8Xp1PBW+eqjxnex81G//0Dq3s48L2jfXXShj3W9A6lCWZL5oKrw4ULHyGbd/RQI3UjIoQ7u+XlqaXA3Q98VyH8WM5s6Rue3emZQYj3V2Hv8VnTzGk++vPUtbebj94Ow/M8cE/UnNPxazfHmo8Wh3ns8A0UaDJnJd24ZU4jbIddvZqwPjbqnsYjCBtRpRTDpPddRyewi2oRTVI39HonvwFStu0HK/7B1TO646dkewXP95ZavUJjzhxQ+82HVPgqidIPQGkcnJZySqIHFPHKN+kMgymJmZM8fdXcbUJFsfHecpuwzu06tvOK7KPHQfZie2iaP5/Z5GB9VzGmn3Z91FTLAC5IlZXtor8uL0wTQdNt8bLluTlXFpe6tx4OandoTM5xhvubg9JJaZ2yM9duz+TPetXuQmu+TKlRa0Y8X1sK+TWDkZ31b8YVD7h9Y5h6bLn5DXvnnyVvggRbRY5DLa/a7irkU3uv0RLb6rkci8xhhpUYiEimMs9nQoI9wxZjnN2nNJY3pp6SEhXDqEIY67D5H7jCxo+yQ/dlfPjdLujg6oJVOtp9AqW7FiuflUhRmaFQH+8ffpd154jobi4z+n8ZovelyxPLAc9korZ+co+VN9ySo0+xSZPK2c46IV96X1tG9dlIvCl44nCDuU/oP2E9dliFJ0nwaPUG6raPUb08Q2UW43X1qSR3P/Uova5fXtECg3NJfBGLvRsev8gMf1cyUxoOVQr+1pTmiByF7kzojSl9do+Poli+5D/TqX5P5hbsdw49vE5ag/3ZWkMfDO0zXlMJl4JJ3ChZW3D44RxTtAjZatQlmCKGlvMw6i/OSQV8tk4/9yyiXj4oR+3Ut0vxwn19t/HcnNW78qJlps6ckpKOCejaXT699L8mEDijIPFAS0f3Cd82i2/Ak57Zsjb+UPUkgZRV/pttcGlV8WBvZ+RpvrxNY5ZTKv7TFlCnlXrZ7DrIX+tkna7NWxYTSmlxY/tjzH/WGHUQTK/SUnHS1rhW5unw7YO04bOvCPXCybL3gS5e69+/T5Fz833xaObz31dXq0liELgKwadVBz/YDp9qPe5yeGbME7BwFwkB0qNl72tD0eFLQS2U0+uX5x6S+w9CneeVz+SAMPzTQHyV/KAUA91ih3YPbda51Mym0FQACyQ0Wt/BvuYAGQ3WTLXQpAh1C48yj8/KsbdPNWvT9T2AweX/UYff2Jr5lvANRDVu/DrIQTF19nMHH0ZZrZ6brAO7WsAAAAgFBqPMpfmfnzn31Bwa9ZbCKy6fkL33yq5oM7AHQ++s/NpR7OklduwF0NAACgQyk1HoUbN2/R9Rs1H5VugCe/toq+9vgq8w0AAAAAACw0QcGEj69a2fYHVuRJb8kXAAAAAAB0DkHGo/x1l6e+/gQtr/nS8KpIPt/k/IL/qgwAAAAAAGgLwdag/JWXp74hBp050SIkfcmn7l+3AQAAAAAArSMo5tHm/v0H9LMvr9P9Bw/MmeYhr+R56utPVviLMgAAAAAAoJ1UNh4FeQL7y+tf0Z2798yZxnns0RXKNQ5XNQAAAABA51LLeIy4dfsOXf/qJj1o4D0+8hLwJ594nFatfMycAQAAAAAAnUpDxqMgd3914ybdvH270rsgZYNx1cqV9OTXHm95HCUAAAAAAGgODRuPNuLGvn3nLt27d0+5tmVHUpIXV7TsMMrLvlesWEErH3tUuakBAAAAAMDioqnGIwAAAAAAWNrgsWYAAAAAABAMjEcAAAAAABAMjMdGmf2YXtj2Mr0/a76DJc/MmZdpYNtxmjDfO4ur9P6eHVw+OdpXxomjJs89H9OMOdcW1PjTeR+eMufAIsLI69Fp8x00zjQd5vHwwpmr5jsAzWeJG4/RRPrwGHftNmxanZ82SjrVUAvEMnDUseQmymm6cNF8nBuniTaOtZmpcYqyG/9kAdvV9LF3wp46XtLvtsFvHWWGeGm6FtG1qWPRGNw55ffVXeuk9LUlc0A0RoMWP9o4y+TxsBvApg1bJlNFYwy0naVtPM5O07m51dS19hqdm2pU4LTC6Bxl2+7yLEz9+w9+SCMbJ2l4EStm28BRXJxskjFsJrEFb5se2rzRfFw7QP1d5nOT0UaBawR09w5QlN3Aph7zqd2w8TcyRjT0Fr07uMacS5j4ZJJ10Oryft94gMbPfmiOAzQwN0a7CoyZsHSNjIwQjcRp6+P0EN+7qFhNu0/YdeA2ungsx+Drc+o7svEandqbb0CqMcpt2VWy+NGL2WNEw3Y5+DixM5bDhwHVDu3WO13b6V1uZxp9A56+DmBJG49KIWx8jo5sWU2z56fb605bILoH32Zltp/6zfdW0478+neyYr743iJVGFdp4vw18zliki40aoSrVfgxGjdfFxox8tUkenI7dZtzzUQmq12j6XZkZEIxE/ihXnOu3UydoVNzfbTHYziK8Xbh4mraOvwcDVTq9x46NNxXsJMbkq7saLKMKKM0O0Zl7C5YmzWFsjZK6D/IhiblbSLoMTrw4iu0tWCjQRYvwxe1UZppN5HDgwu1eOkQzFhsqUxxHntkITD2kO/ydgBL2HicplGebGQ3Qu1OtNmdBppIV0+hUu9o1O63/jgwlOxOLKiLFTQV2QGkjX3eBdTMmfdoXO3G6t3ZZvV7SLozZ95QRu3IUjZq1j7d+I6fMf43966h/ryNBl6svSrzyXD7FubAT/8mXjA0zXsD6rJ0jcepSRonUQj82Rgf2dVKfrC22pY37pDIVSG7POMj8rngHvlNHf44vXQ8Tjp+I3YHRDE4nuuKypMbg5iJGbJdOMa1ZR9W/erkl65n7jWqjVP5Z9q2QKmn8cRGua72xP3uljHHpZXqh7CYqITEZb2aNvSKHKovHuVntYGTR/a86o+9Y4krXFx38num3YSytmXSdZQjU0+3HBNR26nr7Jg90895MWrmiPrEHTPRYcmKKdtwFFNJ4n6Ua0x/Wfmkx1JWBj3xUqn70/eUh2noeE+/y1zvaHVt4QUsf9OTXvgO+szsFf53HXVnrKOQdM01Q4MNGDueWMy0XKj+0X3h9qVHBzHp9s30R1XmPuNx4GujFLNX6RL/t6HLH1YQGf96o2GMRlP9rt3aO2mowV21tLwn8pU/F2kZTfRTVq5zdFdM2DynKelzM17UeIz0TtTXZqxmx0xKB/GR6fcqctTbV3EXH7SCJWs8ursB2viou1rRLjlxe/AkEcW6OKt5PaFd2GR+O/sW7V47ScMpRSuDYtfouiQWR8Vv7MsOJBmUI0RHouuG+2iWr4sGZXl5XJSyGZlMruXj9NA686v8/p4bwyPxO1yGqFzV8tPKx6knHypu0afkJK5r2yRtjq5N5R3R3cXl5YnCbs8snPc7bmyXxHWNj2TzFSP4VXrFKp/0YUpRiaJkI22D3W5bxmnY5z71Yrms1S6RkUNFO5SftHnKtZ1qWyUbtiEaofolZ1Li38LbwAcb0sqIZmPtsjqRQsrtNz7CiGQwW0YZRxkDyCC/pe8ZHykphzJKzCI1jYm53tprDBY16QXuoPNkmrvTFZKu2fH2GUvBTJ2hc1veimU/jsPMGCE19R9ft/X8MTplduYrIwYH67VyA5nlYYRlfOMBj0s1ZfyrjQbud2cn14zj9WsaCMnQMjl8eSedjurPel30kNbr+XOUmsviWOJpGj0/kKTBh1d31aWsz3v3mzz5cxyjW7Abq4zNY3RpyErTzHtZYzZMjqStRH9c4rEHFo4lajxmdwN0YH3rJuwuHhyJYlpDz76YisVhRXdSymRPBl3b6QgbN7OjZ1IDv49G7Nix3kEeRGmFFkg8CbmxKN2D++lZs1rPxD6puBK+9XKNwWlcQCMphdJ/UBQBK4fM7q8EwbttovJO7zIq99QVmvEZMzHc7ifdfLsHJSbsGl1KT1Cs+OyHG1RcpSMfYojKxGT3q24rpThDsFzW0S6R/YBHXRemMubFyDbfYyXuMeil/Oo3iQ0zxG1rZENjPWAQp839NeI3tOJ082IczSQTHXabdQ29YmRP+iu5Rh1xOU1fmDiq5P7ooYm3Y/lNo9215ks8wVkPiPBk+Gp6waaI2kBk1Zwq0xlq58uP3q2yHyDSLubcHfR4J4cPMei9xk6NdOvCfeg+ANRDQ9KGrBfS+YTpv9RYV/2vF6VhaOMibiOzwPY9pKQXING1+/Ld97aHStHYRkMuSi9y/Ydtvb5fyfX4O3qM+ecoM5e9GN3XQ4dSY07rrjLdGEiFPi8n0aFOmjKmZZx7duFL5UjBRvx6Fqk68xNoGkvSeFTxQOndAO+KsllYuwARythJjJY8t4faUUsP/Ez8lB4sdQawdpvm7Iw46JVxpJiVW6JGfvnxXzlK2ZkENd3r+br0LmMXrzbNx1JkRyKeOPTOW3qVmnEzmvTj69K7OxaqfAFMjEU7elY6Rg4VzZ6gMlgPcajdKRctG5r0okYMeIU3Vjjv4ZAcpo4nbueU0a6xZG+E5cdQb2fB2u3lctoGg15IaHyGVrKDZSYtQ2k5eKxnDWgdcx0tGiKUizkv/toydOUYITEm07u/NdJtENuNqHZmMx6AUP2XHevS1noXOgTraWsxPnIXAYK1GFLXkzImXY+GNm7S+qoVGw1aLz6XWfA4us6Mu8iYVGSMW4NxH6tDeQ48C+QGKO/zAAp0qH8XvlyOIkJ1MGgdS9B4jCaPSWvlKYesPvn0Aj21O3NZBqC4Au0y8WFNlq1A5eud3BK0otjnuCuCd9cc8tyQ7cLE1uwdp63xKz2q7GxYFOwohaF3DDT2jomRQ0VzJ6i2USJPDmLIRzLOi6fTzu5PFAtlt8kSQU36XH1xz0VjXQ7VFr4d+Cze3frQdNOLoRpEsXXD5Nm9rYjSQ82kd78qy2zoa1vi6y0vT+QZsHd85TBhHIkRV3/xrjF6MZ0PH+kwCXcR4DFuo4Wx/eol2wvRIM3s88Z1KOhklp7xaBSCHd8XH2qQ2asdoxTagFopyeSZLpM68l1wjVK6QlO7QnpF73f/VKGF7cmToAS8FzFx9BiNqzZuQnuqFW8DmEm+jNKd8IB6dy48+Umsmfqcctkx2kOgid3gTZwI24ZnV0bHqfnHu1qYBe06Z8dTeLoNurJNSIPSo7nxzeG0YqcoCkkJMcQF7eVJiLwyzg6lOZTBZO3kNraza/oxtbOcHNauv70jZ3budu+M2t+MJ5WOG55TTKBebnKfN6xDC2j6YgRUZskZj4Vu2rx4usyK0t41ag76gY/WuJWKqJdv/fqrScI7MZodYa9LO5SApyrTBBpxGdTOje/hBtstmo+a5A3ZhYy1Gxq3leW+s/rLdi3nUnNHxIm/tF1lPIlIfK7C62oMY+JosqM4MJw16JMJIHGDl9e3zD3nPpR00nk4yDJWU27f2ngnSD1+8vLIxtfmkd7Jr5au+l7o2q1KmOz7yNVD0e5fLcx7Hi8eC3gqnvtfPb0eUayPIsM0Hv8q7pwN1ZwY4DLy9WIaHWMoc9RErqvfJUhHCLXmufp9nq9DGaWXc1zagXStb3SzAzTCEjMedTxQkYGSXkHq766CVTtY5nOCntxrx0xGyif9VBxP1IdrKffA8qigbMnXjZ2aOXNcf1eTnzvAG6l/9+ArXM/JzNOy2pDICVoPQCnIEnepUtDOBDVNh2uHBRglPpo85S44D2PkYitl30JG7wpposneNnqkv/xurRg7BjQKh/C95qMIXkzJA1sKO6Qifvo6u1sYiri/ktfrsNxEr3gyh7Rpshsl8qLP59XX3rnSaeU8Cc5oGdSfbfdunPbanXSk4V12g+oH1xDURmrBxBgYf63HTLLzVDld82CCaoOc17TkGl1Gvuwyhsl+Dl79Z+9M1yR6mNBe/PiYOq76P45rnZIHWDyxzzHpnVvzcI8aJ54nmyUGsWD8aWOU5Tz95DDfl+4DtajjfOSNBsmDMoLZQbSNULNbWEbQPFehz8OMYW3ci/w5saZcZv2UfPTgXFW0fm3oTQKgYZaW8Wh2mfIVAmPcArGrI46FSSYZeVVANubPBNFHcStVJ2qlfCTdZKJUx97PaHOtiSy8PPJ07ukhsuLueCI9/7Re0doTjPmtsfr766lfUVHF1WKjV79lu0X6SejE8BpQrwCqGfPISHoiG7bhI6/3KY0Bsnc7cxYySpkbImWdfZJbXGp55WfF3AQXr+TpdRU35P4P263I1FfyzKlTtm2K0DLo6yflHm/qX8HRRkYy4Zq6F+4YRQ+PpeKvUzFxesxEfVAzXdZv6unxy9l4O/lrKfkP0hn5ssoUJPu5SJ+YV6/EZXiDaNh+sr0ORi+lDKNMzPvIFSc0R3sGih8kjAyu5J2P3CZnRa6uuGmr9CeL5x11L9eVUnHv7zydfXdk/FBdtnw6DtaqmzxxHqIHgua58D6PjWF1XcFrgkT+OE31ah6TpixO5fVntcOklH4t7jvQepbNM+YzAJ2JrFTVQzCtiw0FoDay66QeYKi7OAIAhCI75uqBnmbEZYLaLMGnrcFSQ73yxvOaCwA6AuU6deMrAQAtQMVj2w8RgYUCxiPoaNQq82L9WEkAWs8aenY4569FAQCag/JAjRHVjpUEzQRuawAAAAAAEAx2HgEAAAAAQDAwHgEAAAAAQDAwHgEAAAAAQDAwHgEAAAAAQDAwHgEAAAAAQDAwHgEAAAAAQDAwHgEAAAAAQDAwHgEAAAAAQDAwHgEAAAAAQDAwHgEAAAAAQDAwHgEAAAAAQDAwHgEAAAAAQDAwHgEAAAAAQDDL5hnzuWHu3L1Ht+/cpXv37tGDB/P0gJOW5JctW0aPyPHIMlqxYgWtfOxReuzRFeYuAAAAAACwWGjYeBQj8asbN+nWnTtsKJqTAbAtSatWPkZPPL6KjUpsgAIAAAAALAZqG4/3HzygGzdu0c3bd8yZ+jy+CkYkAAAAAMBioJbxeO/+ffrZl9fVrmOzEJf2N7/xJK1YvtycAQAAAAAAnUZl4/Hevfv0ORuONTcsC5HYyG+JAbkCBiQAAAAAQCdSyU989+69lhmOgqQr6YuBCgAAAAAAOo9g41Fc1F9ev9EywzFC0v/i51811SUOAAAAAACaQ5DxqAy661+ph2TageTzJefXakMVAAAAAABUI8h4vHX7rnJZtxN5Z6TkCwDoVKbp8LYd9MKZq+Z7K2kkr3aWcyHorPpNHN1BA1yegW3HacKcax+6LQ5Pma8PMTNnXqaBPR/TjPm+uCmX8aVT36v0/h4eP0enzffOpNR4FPfx9Rs3zbf2IvlWd19rIdPKyzqWzCBKMfsxvcD1W1hlaYR928v0/qw5lUIN7HSf+Mo9dZzP56cDQIQyUhZgXGtZXgjDqPORPhm+vJNOn/2Qxs/up35zfsli9G+RHIbqvoWUq4UaS42wGMu8lCg1Hm/curVg7mPJV/KvQ9fQW6y8RIHJ8RbtpjHaBYXfGman6dzcaupae43OTRXtfvTRSNwnfAz30fjIUt4Rqo5SiB2+4nx4WOq7WM2u3zRduMi6d0sPdZszraQTdppmpsZpdi3rvrlxmihc8D6kuk8Z19gMWIoUGo9ivN261fhLwBtB8m/ceF1Dzw7vpC6apAtLbSLo2k7vsjI61Gu+LwBKgW58jo5sWU2z56fDlXnvfhrZyPqlyj0AGPoP8iR8cntbDBWb7sG32QB4CHbVQAlXaeL8NRp48RXaWrpwTtFhum+hxlIjLMYyLyUKjcd79x+ov0+9kEj+Uo6G6erhAU50aRa7XM1lmkZHWYFu6qHu3oGAFbhL/6Y+ornPYDwCABYXU2fo1Fwfbe5dQ/1VF84MdB9YzBQaj7fv1Nt1vPU/Haft/+t/k37pF7/Fx79Jf/n536U//ML8WIM7d1rx4EzislGuQolDcdyF2djJPBdDNqbFdY+nf8+mE8UM5lyj4gDt3630MzGPSb3cfHNcB1HMTnTs+ZgmqsTeTE3SOIkC5c/KQL9Gp8Za73aN3btx29jlTfedvy5xv5vj8JS+L2n7/MDlvHibbJrmh4i8vjTnhy/y54vH3N+YjIyVuuuy8puuR+L2S12b4zYvrVuGgsDvVGxrdgyVu7pq94GiuH10GsdYtkm5F+3fdVmz8tauMdfq+vn0UZm86Xrr9GZH96l7XD2XLU9GD8YuziT/rK5kTPvt4kUrzUk4klybbeu6fRFqzE18Mkm0sU/tQOuF8xiNlo6JJpHRI0XjJd32WTnzj6Xy+xTespg+3DtGs8Rzwl79W9KfWXko1ycu/jK7RGOlWBZDxp2+JzvGc2TUN4Z8epAJSy97XRVZbQnzBXz+xc/n//TPPq98/POTvzP/0sl/Oj/xP1+cH325b/4bnM3KXf/Ue23I8bMvr5sShfCj+dee+d788x/Mme+GmY/mn+fzr/3QfI+u2/2Sdc7wwzfnv5tOw9z/3dd/ZE5oPn2dzz3z0vzYjDnBfPr6m/Ofxp/l9+R7lE6S9tz82O5UunzNa9Hvqiz56efVK13+TDkEU0+7/j/54CV1LnNtDipdq+z6/uy9eefV/bs/mv+J+e6rrw9930vzz6f6I9u+vrqbNrfz9babp28MmXL70ky3b1lfMun2FLJtx3m9buedRe5x5NrTLt6+9lwX3l5Zwvqd03LS9vWZGa/pfi3rg5xyhrRPdK9zHZOtkz+PbB2YhsZce+onZfRd5xsHLvo6917G1Nk5b8qT1nvP8/gQnVw2/gXVbim5aawvfO2bR7rtzL2eNsrKiyYtv3nXpdF1cdsokqGMXImOdNI05UzlkxlLHnnxtaE/3zeTspk+dfvTIyfcFxk5dMje420/67uvnULrlcXkL+2ZKneQbEdymZKtbN5R/7j3Z2WDryuZA1pN4c5j3Rd1d//11+nVv95Pv9L9HXrm0Jv00gai25dm6Kfm96rcb9htzasGWQFtPJCJDZxd/1zqHK8Y3plUD9y8O7jGnGMktnC4j+jie8kKj1dcwxdX0+4Tb9OzXeYc03/QxEPxqvbkRaKBYSs+itM5MrSaV+dnzGrnKl2a42s29ahvCr7mkMl7ZvYK0doB6velXwTX1S5//850zGdST7v+Es8lsThh6AB5u+xqBR4YWyorKdV+wzXjVubW0Z6DVrsxE2Pcz2t30hG77gcP0ACX6WS0ojPuphEnXqaHDp2QNqqJSjNVFxPXNP6OXiHW7cuZy9fiHQ7NGnr2YHGbST86cs0ytUdirC6nV7Uiv658qutsF1wD7eWXByM3L0bpcVqp2CUtr1e4zcyJECqUM7x9KtDqMdeu+rHcOrqP8xhinUV8b/Wdjgr6VMGyvuUVR5/WIrAv5LqknUxsfMgOou1xUWjXNV2cDNo9rq371JySnXMiGYp0TQzPLVvt8S11PJnShx6C9CiX5VUJWRp2Y+67B/cX998sz3msd7b2WvLAMufIa4PIjqNvbg6qVwFiLzhyzOU+7cznJg+Wq3FnbjLj1JatuC99/eNSZw5oNSXGY6NG2y366eQ79MElFuBdf42+bc5WpU45IteJPo7RJXn6OmVoCF3rLUEQzJPDjmBH9PZxpyaB0cptkTIGbPSTeDtpKDUourvW8b/RxLiGNqwV15Hf7aCuFddMzpZ3Ho4xKnRxPvxfHPOp6km0gc+n6V7PSjCAmTPvpRQoY2JLxz/xlXeShq1t912j62jkrDu4K7H26dTgSRslEbqNo4nTdjc5mDaqg07zuUxdVFuauKa6fanSuHgs152RD0+QlutEucTTBoBHfu0yCw21lzFanEktM/EabPeXcXfJwiqU6uUMaJ8KtHrMtbt+kctPDu0irhGfV0GfRvjapyphfcET986S67xEhqfbF8UL58mm6D49p/jnHB1DmYo5917LdbT0YZYwParK4hvHZag2Fld2WJhGVWLDPGU4htariIxcMe58nt1QiUnNjfl9qctjU38OaB25xuP8/HwDD8vM0Mm/IvGOv0zf+Y//Gf3af/sjOvHXnzK/VUfKIeWpgvuqng9TK+mEjKJiBWmPvXxYCV/m/9j4zLP+1WpBjAVLaahjhBVPjKw0PuRVoy8uhOGVzbisWDxxcA2h6rk6I6Th6CcN00pxYNs+OiUTfmZHQUi9rqLRJ1bTbc8Kn9cpSQxXukwK029NxaQZ91FyqEk3omZfyq6CvNojXhAFxLroiX8fnduSjIPwHWWbxtvLndQ8E28UdzZCiXx4dtOKqVbO5rVPBRoac+2rXxRbNUwH4ntld6UWwfo0ohGdVAFVrkTnJoeO2yzELAIy410teFILpZjm6D41p7SaID1qypJZwIfQQ4fk9Xlrk7mjarxjLjzfDrPO7Rry7F4H1qshTB4hVOnLOnNAq8k1HpctW0aP8FGPbnrh9/8l/fPxf0jff7mbLrz0v6G//F//c/NbdaQcUp62wIMhbNJiw2W9+ZiDWi2sjV6Ymz7cVZF67YCcjwTE3p0SF4+6JxpwRcHRbcIoUHFZZOqmJv6Kr65oBmbXwFsmOdTOc3m/JYRea64TV4UvX3uiqNuXYniq+w7QgFqQFBiecThF/qIpnCrtlYO9w5TZ8WFjcsS4eRpaTFQoZ1Pbp120qX6WK9LnqalMsD5tM6pcuo2y47W43aIdN9cY1Icysiu+caIKITvUoWS8bhFBerTRsuhNE0lP2kwMuqbsqsl8a+bQTHqB9arHOuoWQTd5hFC5/arMAW2g0G39yCOFPxey6qlfou7vbKHth/57Gt21kv5/J75PF8xvVWmkHJVRnZ9j+Ch3W+KC0VvJ+TEu2k1ZUZGYGAq/eymKh6jmzvOS4zKSyVzvKBZT6LKI4qva/g4z7jvLLZBHbr+p/vWQ6QvtmrApk4UsdfsyinGrGA/oKXMoldsrg46ZE3mYKHC72Wj5qkZj5azfPsE0OOYWrn5h5fNSQZ+2laJyFWLawhc+wHQPPpfTx82haE5RYQ3pseW71iz888MDAvVonfnNQxSvGRSPG4IYWV4DMqxeRfju1e0e7cAW5BFtuBiXdm77RTvbudSdA5pLifHYpt2+EpYvb6PxKB3jEzxxrY1MOtvh3YOvmN0jdwUwcdR87x3k3z2xHZzW4TjtaTrsxMAZ5WRcsjNnjrs7U0bhNu7aMRM619N2GcyceSNgC1+/2zFPgQre+JuWwwbZixKEn40NifuE0Qqe+83Z+ud+cMIJNLoeY/Sqld7E0axry58mM3U8bt+QvvQZCHbZBW1YmZWuD7Wr4k5gvjKHUqW98oheZSIuJTfmyOyo2XU2u19VCS5ncPs0Ptm4NDLm2lQ/s3Ninwstn59wfVqVxowXf1+I/n3/aGoM20zJQ0uJAZClhza3cuHMhpEOcXI9FvkP4PC1Iyl5Efe6JxY/IUyP5pfF0nM+I92Z/wS9sMndCa2D2YRx5S6wXkXwve7YlXZneYh1GuchD11JSIMzr5t2tx/Q8toHxhNjvkUUzwF8z54m7dxWoNAqW7FiuflUhRk6vfu36eTZ/4VmZv4X+sHh/4iGTt+mb/zW36B/z1xRlRXL65SjAWTlwpY9seDFcRHc8RuG0+4M2T2SWCJW6HH8hMQKRUaV//eBvZ/RZjsdEbT49310ar39pNYVNy5n5IonELgesuKLXAZR+q/SK3rnswiz05GvQBmzy9KOdz46+PqOj5PrB02fCBJzE239R9dM0mY5Z66IsZRQlNaFTb74MUkz+jOYSb4D7zxtKenyvowNBHVNpDBc+dHB9gUuXvMka3mZQ6nQXnmYYHGJ/UrvVvcfdOOfJPbxiFpZVyWwnMHtk0w26rqKDzr5qD3mFO2oH+chbW/ppPDy5RCsTysST76SZvVQniiOzI2B20eXNqUNsAS1y5TncTFEC85WvfNRQpxOD5GjS3IfwBE37oufWfLCiwgJEUm93SBDkB7NKcv5p63dz8RIl98iA+eSk65+oLXZISTRWFN5RwuuwHrlMTD8Fm14J7lv1yip0If0mw3elTHpzOu+h3bFPkjpvm1vEHEeuzObQwVzgAkFavcO/jJ5X4/5nOHuvfv0+Rc/N99CuUV/+F//+/RbJ35MX8rXlV307w29Tif+dv2nrb/11Nfp0VqGLKiDrKZ2nR+g02UKZsnBq8MWKTIAinh4xxzoBNSrbeQBqWbEuS5J9NxAvOBp5iuFmoK8peKdp9uuO4p3Hpc/UuOhmVX063/7U/qTP/uc/lSOq/9v+rgBw1Hyl3KAduG6zQEArQZjDiwk+kn+prqNQduQ3fDs64daT6FVJk84r1z5qPm2MEj+bXvS+iFj4mjW1TNxVF5b0EcjWIEC0HQw5kDHMaX/wMGCPLgEGkZCBxZiN7TQbS3IX5n58599QbVf+dgAYjP+wjef6pgHd5YaylWWfjBBYmQeWtcZ3NagtWDMgc5AHrKI3m8oryxqThz90qWD3dYLRKnxKNy4eYuu37hlvrWPJ7+2ir72+CrzDQAAAAAALDRBwYSPr1rZ9gdW5ElvyRcAAAAAAHQOQcajxBw+9fUnaHmbXtYt+XyT80OsIwAAAABAZxFsDcpfeXnqG2LQmRMtQtKXfNr6V2UAAAAAAEAQQTGPNvfvP6CffXmd7j94YM40D3klz1Nff7LNf1EGAAAAAACEUtl4FOQJ7C+vf0V37t4zZxrnsUdXKNc4XNUAAAAAAJ1LLeMx4tbtO3T9q5v0oIH3+MhLwJ984nFatfIxcwYAAAAAAHQqDRmPgtz91Y2bdPP27UrvgpQNxlUrV9KTX3u85XGUAAAAAACgOTRsPNqIG/v2nbt079495dqWHUlJXlzRssMoL/tesWIFrXzsUeWmBgAAAAAAi4umGo8AAAAAAGBpg8eaAQAAAABAMDAeAQAAAABAMDAeAQAAAABAMDAewZJi5szLNLDtOE2Y7+Fcpff37KCBo9PmOyiifjuDdoE+ehiYpsPbdtALZ66a70QTR1mP7fmYZsx3AFoBjMdmM/sxvcCD+fCU+Q48aIUnhppSdIUTnDHq6irDBeuPrFJ/+DD9vO1len/WnMrD9FMnTXodYXx1ULs01yjB+Fj0GNlEHz6cwHgEGdQk0cIduImjx2h84wEaP9hD/Zv6+MwkXcgz7man6dwcUdeWHuo2pzqNVrfX4ucanRorbp+JsTEqsy8LURNZgJHqRRsynbjgm5kap9m1q6lrbpwmGmogsJCohchS2w3s2k7vnthJNPpGzXEHFjMwHpuNDKizH9KhXvMduPAkf/Liatq9s0d/7+2jAf5v/BO/caEmT1pNW3vXmDMVWbD+6KFDnO+7gzXLvYToYuOHLk4W7OBN04WL5roOonvwbRo/u5/6zff2c5Umzl+jgRdfoa1rr9G5qYXd4ek/+CGNn9zepEUcxseSgPXrno3li0Ow9IDxCNqK3kkZoP4uc4Inkc0b+T+vcaEnT3KuB4uOLQO8QJikkznurZkz79H42p20dT33NUiYOkOn5vpoMy+c+resptnz00tr5wosCZT3qHBxCJYiS9J41LFKO5Ij4y6IYrGiIxXXFLvATLwdX/PCqdMqvsPn2nJigUwcSOa6qeNWfnKkXWwlZWLK6xWAKZ83DVPG4Yv8+eIxc41bjkwZKsWEaWMw7YLu37mTunyua+OyHngx2u1ItxEfZe7inP5I1yMvbidbX6vfCtsrL6YrW4e8a6TMbv6BbtmMrGXrH7vaU/LgbYcimQlCLxD8xs80jY5mZUKh6uGps9OnZozuFbf3NTq1N12PYplR7bDtGI3z5/ER93fd9h75Lh3L5l7VTqn8K4Q3THwySbSxT+18dvcOUNfcGI2mx0hESB+pa6SsiV6zy1Qma46eM2TGh/N7tu0TOdS/1RofcT2i/ouOCrqotA+bVA7TL7tYxon7b5f6PcpL5yFtEt/vyEeqnzK/V8MtY1onFJUl2xbOvcp7VBB6BJYm8hdmlhI/+eCl+e8+8+b8p+b7/Pzc/NjrH83/xHybn/lo/vlnvjf//Adz5sT8/Kevf8+9R13z0vzzu1+aH5sx5ySd3Xzd6z8y3yN+NP+anZ5J/7Uf6q+CLlP63JtJ2gFlKq1XCD98M1UOU6fdbjoq70w9ozLZbSLn7DKVIW3l3q/xt226zvLdbkNfu2XaydMfmf6O8ufr3DJweX1t49yb114puRBM+zvnTPky+cq51LW+vLNIXdxrdJuk+02n7/R9Rj4YzzmdXkhZrDbw9INCpa/TUWXKlMcjL7601LnstSEyE5UzXbaMLDG63dx8ovYobSNv3nmky+QfI4rQPjL5O+U394qus9P2yVq6f7Ltw2WMdZJf/pMy+n9XZbHPRWW26x3Xw9M+qfHqw99flj5uQTlUnpmymTbgtrfLovDlZ65308m2Y2Yc+cqUkZm8svj7yb1Gp+9cA5Y8S27nceYyr/DMal2zhp49mMTpqMD8tTvpiBVr03/wgMetxulseYWejd2l2nWU2Z6fmqRx6qM9ebE7vPJ8lVedA8Nu3F334P447ZAyldWrHF7FviM7GQescnAawzuLdzQieKU+LLGKJ9622kTKWSEmbPYqXTIfXXxta1zWVp0lBs2JXVTxNpzs5fTuRQHcHyrm8oRdbm6Hk9LeaXroUCrGS++SXqGZ1K5MObr9u4becuO8JCZzWNw+72V2eqSv7Gtzd2gdpC5un3QPPsd1u0aX5syJmD4asevXO0i719rxp0mZXdl9m0Yk1KAKpq/G37F3piKZtOW6uTRFZiJi2XHHQNQebt2ElJxFeYe4n41e2WyNVa/+qdFHXUOWXjN9Pju3jkYOmjhkJkTWCnXSrIz1VKxy7363Lxyqjw+3zpz3i3xd2YNFpfq4TeWwmF3/XKZd1JxgHipMYH10IlBf26jwB5bFYXus7/fKbKYsQf24hrrX86V1xhRYtCw547F7vSjYY373G+nA/MQNGrGGNogCTQn/hi5rwDB6EnaNTNu15EM/8GFPAmnCylRcrwCUC5gVSPSgSgTXcQP/d4mVRBGqnk2JPVxH3Z40lFvOnqwil/WmVHlFuVuuHOUy5jYqnYwN2ZjLCN3eXmwXl3GPZg2xEkz7ex/8UW6f7AMRmboH9pXCuMt0ubVbNnNfRm71JBC3Z0GZlTxWRMVG2ZNqnkw2ncZkJiJfdjx1EzzXqnab+6wkb23ApPsnM0aEyn2Uvtb0+dqnU/qnnEKdpGRVwggCXcmVx4fnWq5DV8nYLNXHbSqHTdf6dF5mTsjoPqarh7Y6C7xy9Bz1nLPgEXyymClLYD/W0QdgcbP0jEdecY/zCnF2dJ+eLOwYHJ48Zecrjm2Kj328MtOXJKz2GBOp2C21E5EzyA1qdV6kmAPLVFivEFhJ2DFhyaENi2J4or3M/7FiqTrBBJNSij4lr2Nx9tG5LW/R+NkP1VF1B0z1RyiRATZCNGLyG5eVv/m5Eqr924GJT9o7TltPmDKf9e2qBtDsMqtdruTJTL27kp3UmkkzZCaikuw0gjJg+P84jtYcauGS2i1qm1xlKdZJ8jT1W9zfkzRsyu/G2KVoUz1K9fECtGd6kyLfQ1MHo7vTssSHisNMkSlL1X4EDw1L82nr3v3JpKmClM2qyezciMsimkicw3ER+LF3GPROxE4ayt1VDFiRVSlTXr1CUKthcaOl0jdH8SszzO5EU8hz+dpuuazLOnGbN/Z6j/AV8lV6f8S4jprxuhbV/q1HvUOTZfL0Wde1Wouml9nq44CFV8P5N0lmItq1uxItnOIFi3WcHuIy2DucbZKrXAp1koRQJOWWBXKu56RN9Sjtw4VuT8HMCc3B6G6lx1xZ0keIbivvx7YtrEDHsDSNxxgTIxIbLDwoK275ZzC7J+empr1PDqfp7lrnKvsMdcqUrlcASiHVf1ecUrqZeKuKlCjF2C13Ru+8FBoWCu3eqUJuf0S7PSXoib0GRe2v4ttyXGXNQKVfg9wyG+O+BnHox0j5wkuTdf/V7gNFdZmJKBrLzQvr8CycLKL41bhPWtBH9SjWSVEMZm5cXJvGR6k+XshxGsNlyJsTjJ4q140JTdHdhqJ+zLrfwVJmyRmPE0fd3Tg90URxdiaY2ROnk74vH717Mjt6TL2DLfdBmQgVmCzuYvdVEDNnjpvvYWUqrpf8vqPkNQ49NMSrRnExuW6Hq/T+UdcF7lM23YOvGNeFW464XCYusNilIUoxRzELket6dCxrWKgdAfdetctmPgcTuU6dGB6zy2i+acyK3W4HE2yfJkw58+RqXHxOP4trfGTSfYihAVRZnMlxmg5z+vXwy8zMmTc8YR6hmDTnyhdesTyMWH2V0wfeST9YZgoma5vcsfyy3uG0H0ioy5Q83FBkHKRfe9SKPgqjUCdxPx129Jk22vMNjPaMj3J93JpylG8i2PCcIA8yiqvZ0ek8liV0wXnosZxowTacDnVinV3qgg7qR30u6/IGS5kluPMoBo4d17GORuyteXGz8AqZWDlE18hxcv1gwPa9Ru+QMQUPytjIX2Y4PUROvOGu808nuxRBZSqqlx68ZavRKEbJja/cR5c2uZNerGzU79EEoV0XIxvdcgxTWBtojOGd+7SpcWsyGcPCPO0oSj3K+8KmOvFrUg83hmdg2xtEw3LOXGLoP5i6boToiNpdcfG3lwdfP/NksGG4eX9pQ+8MyORo0t82SZvrxjwykl7kqorK/Cq9ot2nNdHjJ2DhpfpKyl7eB7YRJdepiT9YZpIFnLquYBHmHctqLDYhTIBRO5hFD3QwOnQmeeK2FX0Uhj2Gsrr2kqPPjtGl9BPMadowPoRa+rjRcsSLVknPNVy9iOzKuHViFXUbhoRXubBBLHGLFL1n0hzvPB2w8x/Qj5k3A4CHgWXyvh7zGSxWZFW89zPa04zYvFajyioPczRnsgUAALBwiNdrmNKvFQJLnSUe8/hwIO4iGgrfOV1QeEWNv4UKAABLgFnz7tOWv24LdBrYeQQLgLxO5hiNZ16CCwAAYFGgvEhjRGXhCGBJAuMRAAAAAAAEA7c1AAAAAAAIBsYjAAAAAAAIBsYjAAAAAAAIBsYjAAAAAAAIBsYjAAAAAAAIBsYjAAAAAAAIBsYjAAAAAAAIBsYjAAAAAAAIBsYjAAAAAAAIBsYjAAAAAAAIBsYjAAAAAAAIBsYjAAAAAAAIZtk8Yz43zJ279+j2nbt07949evBgnh5w0pL8smXL6BE5HllGK1asoJWPPUqPPbrC3AUAAAAAABYLDRuPYiR+deMm3bpzhw1FczIAtiVp1crH6InHV7FRiQ1QAAAAAIDFQG3j8f6DB3Tjxi26efuOOVOfx1fBiAQAAAAAWAzUMh7v3b9PP/vyutp1bBbi0v7mN56kFcuXmzMAAAAAAKDTqGw83rt3nz5nw7HmhmUhEhv5LTEgV8CABAAAAADoRCr5ie/evdcyw1GQdCV9MVABAAAAAEDnEWw8iov6y+s3WmY4Rkj6X/z8q6a6xAEAAAAAQHMIMh6VQXf9K/WQTDuQfL7k/FptqAIAAAAAgGoEGY+3bt9VLut2Iu+MlHwBCGHmzMs0sO04TZjvDyWzH9ML23bQ4SnznZk4uoMG9nxMM+Z7FVSb1rwXtBf0VQOocfMyvT9rvoMSpukw65kXzlw13xul2ektMqaO89y1+OSv1HgU9/H1GzfNt/Yi+S60+xpGyWLlIVdIAAAAQIsoNR5v3Lq1YO5jyVfyB6Dz0Mapvcu3eFlKdQHNYSnKxEMm59hRBS2k0HgU4+3WrcZfAt4Ikv9Cxj52D75N42f3U7/5DhYLPXTo7If07uAa8x0AAAAAzaDQeLx3/4H6+9QLieQv5QAAAAAAAAtP4UvCJebwxs3b5ls9fvoP/iP6zkuTtOHIv6DJ3+k2Z6shf7rwia+tMt/KkTjFXaPXzDdhNe0+8TY922W+KvfFMaLhD2lo1r22a+gtZ7dKp7WORkJ3HyX4dWTSfBH6MvfKQwzDF80XZoDLcajXfGHU73SAxjdNmrT66NmNk/T+5Z10+uR2clpRXBN7x2iDlUa6/t46nR+g08NEr/K9s5n2yZJt01S9MvXOS/Mqvb9nH52aM1+FjVzXgz3mi5D0z+ZPTFvZ15g6x96YtTtpZMs4DTv9pNO4ZNU9btedV5370+3jLSPnEbV9uv8UqTqU9XGInKQplWuPLKhy+OTGUFSXWE5OrqFRbstx83O2vzSldc4QPg513cZp64lXiEZ03zjXNFH+yuuhyx23B2Nfk+knS3Y06fs9fV9RPnL7Kue+dBnttsyTiRE6lpUlI3OU6i+Vhoy1uF0D6swUlUuoKpMRRXKeyNbb1D1mX+cvY3U5j8jKjVu/arrRHTO2vHvSYaK84r6x5peknuFlsHWrj3CZ9KWXbat0OarKQq1+y4zD7H1xe5bOK0K6XtwWPA8Pj1wpnYM7DjEe8/j8i5/P/+mffV7/+P++N/8bK0mM03k2Hv3XBBw/+/K6KVEIP5p/bfdH8z8x34RPX//e/HefeXP+U/NdXfPM9+af3/3S/PMfzJlzzA/f5Ov4vHXuJx+8lLq3AHX/S/NjM+Y78+nr9r1z82O7uSx2+Uyer/3QfGdUeaVsr//InGE8aQvp8mXqOvPR/PO+Okn6qXbKQ6eZXy/f77pcbr2isnzXrpfpC6dNrP5x7hc87RXl5e1jq966nKm8POnJOUcuojJ6yp0pX0gfe/rSlRMfnF+qv/L62i6Tuqa0n/118barR55C5TqL6aOAcajzFZnNjoFg+Yv60WkPPhf3a0g9TJlT5Y1+1/nafclpvm6l52m/TD/WkA+Vr7RjOm+pj3MuX27cPvXIhKdcUftk2tS+N6TOTEi5wmXSh6dOgrnf7WePLNSWcybKw9YhfO61qMy+3015fW0reZa1p04zZ7yIrDh5MRXLUNbe4TKZTU/uddrUlK2eLNTtN7nPbVOdZ3psShkC0veVLRo/nn7qdArd1o096fwF/eC/+G36w76/ShvMmbrcr+S27qFDqV2W/p07qYuu0EwqcHh2/XPuyqB3P50eWk2zo2dqPV09M3uFaO0A9Vurh/6D1gpr6gyv6HiFOGyVj/Mc2Ug0/k7qNRtz62iPvXrq7aMBukbnpuynh6/SxPlrvMIZ1HnwCvokr6wGhq08u7bTEV+deGW51S5HHrzyGr6Y3cWJ66XyzP4usaLpek2M8aossyrk/jrB/TM3RqOpQHbpH3dlyKvidybVis4+H+UVBq/0bPnoHaTda7mcn0ybEwz3ibti7KEhbkO6fLX8VSgBfVwqJ17C5bq5SN+68rSH6zJ7fjppiypy7SF8HF4j2vKKuzqvIn9HecWf2QXkdo3kMaQes1fpErfJ1l63vJE8zlzmMm7ss/pyDT17MElPjQEuwxGrvv0HD/DYnqST5s0A9eSDkTFt95XkfdJNu5KOSOPRQROf8Hjk+nbNfWbJwySN8zjbbNokpM7VyhUgkzVw9Qq33Yt93KbjNBGNrxD58MJ6a8Sj+7jch0ybVNWNsrtmjxmtCybpQujDQOn5halchhBCZNKDjF9H90d9zDrYJUAWaveblNUuu5TrOTUGLqV2dUPmlah9fbpuMVJiPNaPNfyT7/9HNPQHz9KJv/1XzZn61CqHbDdv26EPtZWc7fCBTe7gEbq71vG/BROyna45otfBqHt5kO06ahkiFqJoaeNzma3p7vUsPLbyFdY+nQiiQhswjiKdnaZzPCiiiWxmalwp6SF70DH+Oq3j8+ZjAarMqYnMRufp/71/k618p+mCTA6eNqeuHtqaNuCYrvXWIBNS9bVRbRiCM7ELa/he/s9jGIo7Iupj5R5K95GHkD4uk5NCAuS6qXj6Ni2vleTaQ5VxuKHL7fuq8te1pSc1rhKC6sH5b+A2P7XX//oude3FYzmviDJj4EVrklFwmiz/0cRYWz687eCmXU1HpOmhzc4ELvXh8bizj9skMVy08Rvpr7A6VypXgExWx6NXuA5d1viqLedKb+XoPkV13Zi5Vskl0aVZn9x5yMwv1csQRIBM5iMu9EQHK5cz3+O0cxv0kyxs5P25uhza5Zxp59J5Jb99tYwvPnKNx/n5+doPy3zxB79N214lGvn9N+nXV5qTDSDlkPIEEXX0COd/9kMal0NWTubnhuGVgkrTOuKVhPwmefHkoQXNnmBYiC7zf/FvyeHER0Ww4ZSe5Lp7B5zVpV7RJ4NH7XrIpJNKPx2zocgoDx+mzJ6yRKg8Q+DBdsl8DCVtKMhAL5zbmoTE0ki7qTgW08dhq8PAPi6UkxxaLde1qSjXDbFaTTo2VeUvI1MxofXooUNn36Ldaydp2Pxuv/pFvZ1huI8Xefv0/faLu00Zxkfc9Ae2pWLM6shHIJV0hAdlkF+c1OWRHUalf7RRqY0L4w2JjPTAOjdartbTgJwrvZWV3ZgaurFh0jp9IcpQgF6476NzW96KdbDsFFanEf0k8Yl8rYqHNTr3rOya1qDD2rcZ5BqPy5Yto0f4qMyf/C5t/82P6NdP/ve051fMuQaRckh5yrHcA55A53DCduW8dG2nd5WQRRNM9J4tsxJRZYsE0T4CyuusALMrerWS4tX7aW/6dYJxTZkLUHmGYFbGDaF2AloMG2mvslKRoGjXfRNChT7OlRMfzZLrVtAEuc6lfBw2T/6q1EPcWfq8LCrEMHJ2GuMFJk80yiAyxp8pg5ItJ21zpFya4fJRTrSL37COUGNQL2BlRycyEpVRKbssae9AYJ2br7uaTQNyXqa3mqEbG2UBypDxLEXEoVLNeNVa/X6Lw1yaIX+d0MdNptBt/cgjhT97uXDsv6I/4v/H9zxNv/SL36Jf+nf+K2VxX3r1L9Ev/ZXfLd8i9lCnHDbKJWI+2/i24dUWd9CuXBlRbEfi9lAKMlq118LE4UgaqbgiQbu7rBidJlBW5qI8dVtGO6M8ePJcH6VuHYMagOm4T0HvdrSO8PSr93FWTkLJk+t206hcNzIOmyJ/hjr1iGIr/S44Ey8Wu13Ly5Clgnz42sGMrWjHtWEdYRawl3iRpVzWkZEoBpKkO/VZKowgrM6t0F3Nprac5+qtiII2CtWNDdOiMgTIZBh6s6QOjeonBzXv1iG/fZWeWoSUGI/Vdx5/7eX3aPRd6/g7f53+DT7/b2z/b2j0v/mr9G19WSWWLw81Hs0qwxYUs5Pk5eIxx+Uk7kqJq8jG54Qxc+a4uzugBC1xV+hg20kaTv8NWl5pBf/VAxW0zmmM8Ko/elAmQgXpeuKxuA0OFwQnF9E9+IrZ+XDTnDhqvvdK4LHk6e6M6La0g5R5Ehw2rjgnlmuaDkvsHq8M3YdjfERxn/tS/faG6/ZrBLNCtAe5P32/Mgjp4zI5yVJRritTMHEE0LBcNzIOmyF/5ntQPTJjSU9q0S5KPC4M2sCPdlCjxV82JtK+r7p8RHA7jNhlN2PLjiUM1hF5MrGG+rfwGDw/TpdsI1EZlWwgnb+SiisNq3MrdFeWhZJzXkSYUAanDeK6NUM3eig1Wm1aVIYQmUyjdmpTD2bJLqD5XJW6/aaMTsf45bLXDqPIGQdcBvv1QYuJFeZ/LytWLKc7d++Zb2F8+zt/jZ75jvkizMzQEfqI6Ne30DN9dUwyLsfy5eZTOf0H36Ldl/exsWM6WbadefUv7zNMMzD8Fm14Z4eKI9PorfL6W9RXWPntoFPmm07P3vLW8VIb9uyjXdus8kgZT5rPpZj4InvVH8MCevJD6pb3TkX1V8h7tbabz1XJSVPcAOZj/8EP6fT6l2mXU/f0u7wY5Ypbo95zNWANGHnKcTzQPSE7PaeJ8xrZEecv958eeoN2jZoTDaF3iy7tTcroT18rg1Mj5jppD+WCC+njMjnJUkWuq5NXl1Aak+tGx2Gj8icuVU1YPS5JPKMlCyIfiXuNJ6nM2LPKoeIZn6YX9nrSMJ/ryIdCyvniZ1z2HeYEk+nLUB2RLxMq9nqU22fINRLFqDwlIR/pHaWgOoeWqxEWUM69bSD9aurWBN2YRS+2dxl5deXUQyvKECSTKaQcw5+xPkjaSsboCLFsSPxiZer1m/IqXOY847EosniAiNunVvyiyMAw18Wql2oLde6KObF4WCbv6zGfM9y9d58+/+Ln5ltNZn6X+v6d/4qogZeEf+upr9OjbMg2D15BsADIi1brraYAAI2DcQjAUkV2//VLvOt58kBnU+gPXrH8kXoPzdh0/02a/LPPaxuOkr+UAwAAAAAALDyFVpk84bxy5aPm28Ig+Yc9aQ0AAAAAAFpN6ZbeE48/zsab+dJmJF/JHwAAAAAAdAaFMY8RN27eous3bplv7ePJr62irz2+ynwDAAAAAAALTVAw4eOrVjb5gZVy5ElvyRcAAAAAAHQOQcajxBw+9fUnaHmDL+sORfL5JueHWEcAAAAAgM4i2BqUv/Ly1DfEoDMnWoSkL/k0+ldlAAAAAABA8wmKebS5f/8B/ezL63T/wQNzpnnIK3me+vqTFf6iDAAAAAAAaCeVjUfhwYN5+vL6V5X/+kwRjz26QrnG4aoGAAAAAOhcahmPEbdu36HrX92kB/WTUC8Bf/KJx2nVysfMGQAAAAAA0Kk0ZDwKcvdXN27Szdu31edQZINx1cqV9OTXFu49kgAAAAAAoBoNG4824sa+fecu3bt3T7m2ZUdSkhdXtOwwPvLIMlqxYgWtfOxR5aYGAAAAAACLi6YajwAAAAAAYGmDx5oBAAAAAEAwMB4BAAAAAEAwMB4BAAAAAEAwMB6bxMyZl2lgz8c0Y74vPa7S+3t20MDRafMdAAAAAA8jMB4BAAAAAEAwMB4BWCIs/d1vAAAAnQCMRwAAAAAAEAyMRwAAAAAAEMzSekn41HEaGLlCu0+8Tc92mXPqQY99dIp20umT26nbnNXXEo2c3U/95pS4/XaNXjPfhD7nd2Hi6A4apgM0vmmS75/kM/qabrn3/ICTh7r2IlHX0Fv07uAac3aaDm87RuPmWzYP/TsNf0ibP9H300bO72CP/jlFXJ6dV+mFvWM0a867eUak8867LtsWXUMHaOv5Y3RqfbosZfXJp7y9A8o7+zHXe5y2nniFO5P7ec6cN23m5rE6JRv57UdrU/JiqCQjtfokXx6GZnPqotrAKrvCrmu2HQc4vUO95gsAAABQBTEelw4/mn/tme/NP//BnPku6HPffeal+bEZc4r59HU+9/qPzLe5+bHdcs2b85+aM4K6xnff7pfmn4/v1fzkg5f4/EfzPzHffffOz3w0/3yqfPo6O19TB87jtR+aUwXo+6VMSd7zP3xTnXPuN+ectjHlSdpBky1T1D6pa4Pq48fXPp++bt0XWt7onJ1WdC+3oX2tr2zqnPSn3X6RzDjnKspI+n5fn1SQh3Rb+OqSlkGNZ0xwWUJkCwAAAPCxxNzWPbR5I9Hs+enkoYGpSRpf20cDa6/RpWhXiqbpwkWigU1mB23qDJ2ay+4g9R98i3bzfafGUq+nmVtHe3J2AgW94+jZ5Robo9m1O+mItfvUf/AADdAknTxz1ZzRzK5/rsLOEJfd3iXrHeRyE41/EpX7Kr3/zmR256trO7073Ed08T16P9q2mv2YTqqy222xhp49KeV0qVIfh6nj3vbpPxjlWaG8hq6hV5K0TP1nuZ9GrH7q37mTurhsF6bMiQjpT2eXsYcOneBr58ZoNLq2qoyU9knF9tt4wGmL3Lqkmb1Kl2g1be212rF3P3YdAQAA1GbJxTz2b2LjYu6z2Hic+ISNkC2DtHm9NXGbCXUDT+aCXEMb+xyjQLOG+resZmNlkibMGcXapzPuzAhxa/oMo9hgfTHtCl2jyjF72TUWutZbk30ZmbKvoW6uL3Gaqh1mp+ncXMqAiOhlw5qu0bkpnf/M1DgbNAPU75Rd0OVMqFYfG9Xe3jwMFcqrSV9r6l/QTw6+vu/ievB/l1hWhMoyUtYnFdsvXuhEpMqXi7qOjdu9x93yAQAAADVZeg/MKOMi2pGRCVobFsqoNBO8ayDxZH5Z/q8AG3Zeo2RujIZHr7m7YBHKYGUDdmQHDWyzDytOz2IDT/pNg43p1EZdLjOX7Xi+AirWJ8G0d14bChXK2x5qyEgZtduvKj106Kzsjk7SsMnjcNluJQAAAFDAEnzaWu/cqF1G5bI2RqIyKq/QDE/aE+fZwNvSY4wXsyPUDOQhi+E+mh3dRy+k3Y5mp0geVBg/6zkK3OANs/ZpytvkS9O9frX5VELt+gS0d4XythptxDdRRiLaKg8SdqDTPT20WhmsGfkEAAAAAlmSxqNyI16+Su8rl3ViJG5YK+7OabqUcokqgyntdlRoQ9Pvrsyhdz+New1Iy6htN8pQSbt6DWJgW27f7q51RHPjNJHe+lOuZPNZUb8++e1tqFDepuAri8lH6ig0VUYUCyMP3YNv04jEBReEFQAAAABFLEHjkSfI3gHqYgPo3GXbyNBG5ez5cbqUirfrHnzFuPXcuLCJo+JC7HMeugiCDUjZ4XENyDX07IviOj+W2fWZONrqeLQeOuQzaOUVLyNsYGceNknHyLEhPpJ+FUz9+uS3d/S9QnmbApfF/pvdJh/a+FycT9NlpAXy4DX8uS6HnfR1rGUUUysxugPbXs48gAQAAADksSSNR+rqoa1sAM1SykhURiWfz8TbabfeyMYkLkyO4cs76XTq6dpQZIcnMiDjPxknu5IndhLJOSufk+sHa+VRCV/ee8dow/CHqXcPSlu4MXID294gGpZz5pKI2vXJaW+ydu+Cy9sENh6g0+vfc/KhobdSruPmy0jT5SE2/CWdxCC85KR/jC553zcJAAAAhLG0XhIOQEXiF3o3NcYQAAAAWLoszZ1HAAAAAADQEmA8AgAAAACAYGA8AgAAAACAYBDzCAAAAAAAgsHOIwAAAAAACAbGIwAAAAAACAbGIwAAAAAACAbGIwAAAAAACAbGIwAAAAAACAbGIwAAAAAACAbGIwAAAAAACAbGIwAAAAAACAbGIwAAAAAACAbGIwAAAAAACAbGIwAAAAAACKapf9v6zt17dPvOXbp37x49eDBPDzhpSX7ZsmX0iByPLKMVK1bQyscepcceXWHuAgAAAAAAi4WGjUcxEr+6cZNu3bnDhqI5GQDbkrRq5WP0xOOr2KjEBigAAAAAwGKgtvF4/8EDunHjFt28fcecqc/jq2BEAgAAAAAsBmoZj/fu36effXld7To2C3Fpf/MbT9KK5cvNGQAAAAAA0GlUNh7v3btPn7PhWHPDshCJjfyWGJArYEACAAAAAHQilfzEd+/ea5nhKEi6kr4YqAAAAAAAoPMINh7FRf3l9RstMxwjJP0vfv5VU13iAAAAAACgOQQZj8qgu/6VekimHUg+X3J+rTZUAQAAAABANYKMx1u37yqXdTuRd0ZKvmAxME2Ht+2gF85cNd8BAIuVzyYO0LL3j9M5832pMXPmZRrY8zHNmO/NZOLoDho4Om2+NR9V9m3HacJ8h+4FzaG6HJUaj+I+vn7jpvnWXiTfxtzXV+n9PTyYt71M78+aU2mmjvPvco17ZBpRXVeQDngoySpzAJrDUjfiOh2MbQDyKTUeb9y6tWDuY8lX8q/N7DSdm1tNXWuv0bmpIot6Ne0+8SGNnzXHiZ1Eo/tauoIEiw29Mjs8Zb4C0DSm6bfe/236rT8yXwEALaHVO8ON0Mod8VZQaDyK8XbrVuMvAW8Eyb+u8TozNU6zG5+jI1tW0+z56fBO6dpOR4ZWE12cxKoTFNI9+DYvOPZTv/kOQLN4uv8YzT+7n7aa76C9YGwDkE+h8Xjv/gP196kXEslfylGdaRodvUYDm3qou3eAuubGaaKCy1ndQ1doBm5qAAAAAICYQuPx9p2au44zv0ubf/Fb9Ev28Vd+t/Z27J07NR6cmZqkceqjzb38uauHtq69RqfG2rFdrd2bdvxk2tWpts7Lfpet9Tge8zidknO+Le3Zj+mFdBrmXJxH6r54ezy+rjiWU8f+WOkFxX6Wt0M23rRKTGk2/XScarbc2filuK1TbWanpfvrGMsT0fiIuca4PrxxUZ44WrfuiQvcLWNO/Uv6U8jUtdT9kW2/tDsnpG3y+df0dz/6bVr2vnV89CF9Zn61Off77nW/9UfajfsXJv61ucJw7UP6C9Z1kt65dFyguuYA/d1rSf52OjqOMEkjk0fTy63P2dct+/2knXUaJ+gD/vzBv3B/z415/KPjSVrqkPqa3wzqXlXuVP5W3pXI5Gm52U2/+Nzuvjpk2838YFC/SznjPP1xn0o+03JuZDUto7EsO6TGQOp379gWQvRWrTFTPibDKdGP3hh+84xAuk3VtUk7hOsak56vDqZ9HL0Y0K7FfVIwf5i0hy/y54vHTPpuOpl6+fLJo0hHR7955YvL/M/177tGeRDPjdEulYZbl3TZ0vKkfld5Fst0hJ7TkiMzN4cwX8DnX/x8/k//7PPqx//8f5nfwEn/O3vfmx991xz/5EfzP/FdG3D87MvrpkThfPr69+a/+/qPzLf5+Z988NL8d595c/5T8z3mh2/y+Zfmx2bMd0Pm+pzrXH40/9oz35t//oM5853h+177ofk8Pzc/tpvLtfuj+Z+YMzrd71nXmLLvfmn+eav81cppp5fNU90j6dvlyIXrlLpOlc9py3S9y9ohSsOtj66L2xZeZj6af56vs/tXzr0W52fqnOpvX576HB8lfRLVKV22rFxJ3m6++ho7X52W5GG3UbZdmdD+TJfh9eK+lXucupg2zZYnpG08/PjN+V/99Jr5Ivxo/jfH/pN5Omf12fy1+eP/iM/9o384f8Wcia/jw7mf05Nzv/lj85258ul/qc7R2JvzPzDn5q/+w/lfHfsv53/1H/2X88evmnOGH5zzXZvNp5nlljLaZfbmae51rmN0/azyMroObt2idghrm3TeWbL5Sn3dcuhronKY9nDaSND1SvLztJunX1Uduf9+NZNeCiWLKZ1o5NORWS6HPXYjPeOMGY/8Z8dVcq8t/z/54M24DI2MmZAxmS2TX9dKfs65jM703GfOeXWkuS+bf7Gu8bWhoNK02ki3W/l8kJeeVxY82HVJCJ8vvGT6N6ujM+Uz/ZGpmyO3Gl0Oq2y5clF+nbdscb+nry2mcOex9pPOt/VDLt2b/xo9s80cff8WrVJnq3O/stt6mi7wCkNc1hHaDT1JF0IsbF6lyCpgYLhivMvsVbpEq2lr7xpzgundT4dk91OYOkOn5lbT7uHt1G1Oye8jG4nG30mt3ubW0Z6DSfmpt48GKP3gz1WaOH+NuoYGTTl5pffOJNHGA0metIaeHd5JXbyiGbXrPke01S5HLj106KR7Xf9OTq/IpV/WDrwSO3lRHlJ6m57tMucYiTHytoUD13FkjGa5juN2+3Rtp0ODJj/Vzn00kopX6j/4Fu327kDztXYdewf5Oi7HJ3VW/dzeJ918uwefU313idvcgevwblRmRrerLaNh/TlzmVesG/usPPmag8V9K22dpMlw++3htp+9nN4hqdk2f3E//cv+XzZfhB462v0LRF/NJLt4f/R7tP/Wr9EP/voOetqckut+77vP0K+ab5p/TX/3j39Mv9p9hH7vL5pTjMQE/oCTzPLnRN/eT39rtfkqXPuQ/haf/s2/ZMUQrt5B57hMfzzze8nOVlPLrctol1ny/Luc3B9/lTd4ClB1+AU6/t1jTt2idvjgj9M7pHKtW1+V908nvTup+fwy/a2/7sZePt2/g36T2/l//Fy+8e+/+mvc7B+6O6B/NEkfcBl+Z71pT9VuXKa/YrUbt7e37Ld+mf7uf2iNbx8enTjxySR18Vjomvss0SG2FypG9I81TiP5L4qNZ731qpoXPnTGTvfgfkeP1R0z4WOyCK0zuobecnSLpPXucB/RxffMjlYPbU7XV9ppLbcp68hEV7lzaVVdo3XfJJ10dsp0ml1bevR9Dc0HTaDyfGETOOeqeZ7TGtF1mRjTc5jT3z5U23D727YI96U8kzE7eia1Mxog01FdnTmd5/gTMvdUo8R4rPlS8Jkfs/Hwber6tvneIFXLMXPmvayyUK7rvAHMnbrX2sYduaKevi7t2DRda2iDSsu/3S2KjTY+l1I0PEjW80xgKzth7dOpAdlDQ2mBMU+Tx0aa+b57Z0rpqnIRXZq1B/A66q4iLbZLYS8Lvs8YiihpB/Ug09oB6vfk37+JFVxRfKqqo7swSKPb2VZwEWuof4vnQajMtWu4T/g/Vtq1lVbkqlCHdnm77e+pQ7qfAvtTyc/FY4GuMRtWfOpVVvpQLp10nRtsG9tFuW6Grbdbs/Qvo9/mfky0qov+gvkes7qb/m3zUXFtkr7P69F/+1u2Uaf5C0+w5eEhfe1nl6fpj1c9Q0dtQ455Wl33r+lfpty+TSl3jOsKf4aTc4zRQHQdeug3bKPYsHUtG2+3pukf2/XwXKvay6pLJZywAe1q/399blz0f7FPGZPfv5y47FU7/cKO2NBNf4/wlsnXvhmMARQbV2KUsD7c2cfjI1mEzcxeyepTj/7x6mELpbcyRqiHhsZMwJgsIj0n2KSMba1rk/oqw3vLIG3mssbzJOsY2QjYwHOnUF3X5Bip3I57jHHb0HzQBCrPFzYV5tz+gwdoQAzKo8e5X9mAszc/ctBts5OGUjLX3bWO/01t4ATIdG5dTXmrkGs8zs/PN/iwzE/pvx3Q8Y6/8t3/lH7wp+Z0DaQcUp4w9G4csfIYNgNQH/vY4ubT8crLRix261U9Z90VUDhswZ+V1UqSdxJLwArgMv8Xx1skh4p1SLOeFY75GJHePVWrF1tgWEjEqHMMYXVo48UhY5zmEBlBI8Qrs+RVRsXNU9QOPCBk9VoXVcdEmWUx7bxgmJiTveO0NZYpVhrm10oE9qd6KnS4jxcW+/TvuTFICTrmZR+d2/KWKeOHapXfLKLYwmdoL80/+/fVcUV28GLYYPuK/3ui29q9y+HzWfpj+gX6K98y30vJXvsvvxID8Ae0LjZ+zPEv2KCxaGq5GW2Evkrf//aROD3/bmk5qg4Lgomb/B+m6Xe+q+sw/+xeNhZteHHL9Up2NadplIv7m2ujCdK025+fcNufD2WcpwlsX2VcRJO72jkTfagNFm0AGe9MtMvVAEpvherNGjRlTCqdEYgyJqP5xBjebHTabZo27OromrQBmDZgGpoPGqbB+aLKnCvzIrfdOLdtqFdTtU0cB2kdI9yGlWnu3JhrPC5btowe4aMWv/a3aPTdf0of/ZP36Psv/1Va+eN/wJbz/4n+0PxcFSmHlCeIaGdqOJq4rUMZPWXvfGwUcVvq/E4PrVYPWOhVmll9irs1XS51BAiTs3tq3AkvWtvPrNi6MoZwcjhujCB4FRy5iCu/siKvHcxqqC6qjkWYdl4gJo6y0uCV4unaCxCLKv3Zu9+c16vbXUXB3lOy8tXpVpeJAK59SFvZIPjNv8RGRpnrsU2o3a1Vz9AVY8C5h3EDN7vcf3ScnlFu5r+fcoXXI2+XtdWc+/0T9IFqO9ddnmbrd56hX412P5XL+tdoKN7p/WUuP//3C4lR7h41X0mkxog2gPTOmTYSlcEiO3ZFO3EVaUhvldGsMVmqH23WqEW4mk9iw5tPK6NSdrVyDO8qukZQbvto3nXd4EKVdtU7bs2kwfmi0pw7TYfZ6OtaK/Nh2MM4qm3UfOJLv+oc09y5sdBt/cgjhT/n80vfoWe29VNf31+j7Yc+pI+Hf4Xoyz+gPyxbouRQpRyFroWQuJYmEsVsRG4VJQhFW+ClsEH2olkV+uJ4jLu4tcZx1MbhZNpBFECOK0KtSj3b7zEBdcxvZ7Mr7XVRtBDVVzWo1Z9R/ErV10xppd46/jX945/aO0y/TL/xbTaG/nzS8zSxGB4WHpeoJp1mPso9nXbrBtFAub3oHbk6FNVBu9L9Lu2W4Kvr6j76nVXST9MmRvW3HINQGb++dmsEs6C+NPtxvHOmkElddMzUZ7ku0aoU6a3WUGNMFukMpYdsQ9q4ZVkvv28Z3tqolDSm6VKh4R2qa3Q+Mu9OSEhZyg1bfT7I5qeuq0lD80UFHR1tLBw5+Yr2ygU8Sd9smcuta405qsR4rLnz6GWl+b86y5eHGo/63Y5Fnd3SGApWYId9gcHr9eCLgoeH01v9vOoMflTeuBqGZQUTPygTEcVF7kulx8rhaJ2gY7NSsYWN6yhB44WUtEMcPLw3+zoCtfoufJBHb/1LHZ24GyvP7kEzOFMr4omjEroQFmuSRRRqXsxsghqcjnzp1WY9wvpz4qhbT23cF8S0qtWyq/CUYjOfG8bE/n0wl7TVZxPHaX/qj0Xphy5+TM84r8KZpt9KuZKlHeShlT+eedV5rYsvzVz+4m/RcTZs9v8Pqde+XPuQfit6tU6zy/2tLvrVdByg7OKZzwld9FdWufl6UQ+XSB3cV/OIq13tcNoPojQRHZNoG62+PhK0Yf3HP/2Qvn/LelDG4G835o+Oe1/zE0ZkmIzTJdvIMK9nO3f+SlNc1opcvXXcEwpVkaaNyXz9+IKaM15xH0ox70A+dzlrVGbalKmsawxRPidzdjKD5wMTtxk9eKJQu7bmcwk+46mx+SJwzo12llVdzAM1F48593gNRbNrm3l+IDPHhuG3QerNUYVW2YoVy82naky+9dt08qMJ+pM/maCPD++g7SN/QtT3N+k3ao7gFcsDy2Gs56KHKWLha9E7Hy+xECWxCcfokvPUGw9siQWkVAzDO09nAmLz0fE8EqfpWxFGMSnx+wjVsY8ubSoyyPLRT5zJwDJpjRAdCXgyq7gdJF1xZ5MTK7JrdB2NhGzFi9uEy6D+hGSUx95x2mApP3GZj2y0ys3H8GXZ/q/qfo+Idn1NzGrOqlHvsspgj/KdpM11Yx6ZsP5066nbsaCe5slLUXjRPRc2NTPm0Tx5bMW3baX95MYOCnydxM45sYiTNJSJpxPD45i6P34XYm6aecgTwxJvyMZLnBcf/8MsDcUu5SaXe/UO+pd/6deU0RulN7rWF/MYPa1s8i14F+PW/1BiMIkNyChfiRn8ZfpBiUu5EfTT3GK0Rnn6+0hQBuKtPyf/gz3SbkfoOKViT/+4K/MgUxW0YcKWrWOUGAOIz2/oyurJunj11vmnUztjNWjmmPTqxzHaMOxxiRsje5Y1lF2HqE1nM7H3FXVNhPL6cXo5O5nh84HZ7bTjAD9h/chtF0JsPKl7I4OssfmiVEez4Sgxio7hbryg4yOWwRwbinJ/dN5ftoG9n9HmWuENYoNE4QZRevXmqGXyvh7zOcPde/fp8y9+br6F84eHe+i33v4T+lJ9+wYv+v8ejf6dv0bdNd/V862nvk6P1jRkAQCLDXlA4wTRX/r77mtuPMiu27qf9tAV57U5C0V4uZcuaAPgRx4IGqbUK9bAoqV453H5I7Uemvn1Q9P0J3/2Of2pOn5CF/6v9Q1HyV/KAQB4SDDvByx/utrEIwY+mdtygsu9dPls4kNuA/tBGQCYWfO+wiKvIFhUFFpl8oTzypWPmm8Lg+Qf/KQ1AGDxIO8NTLto5dy/kIct3Jd8n/v97J/gO/f7r+qXdbf7ie4K5X64mKaDM3+eeVAGAP1auez7CsHipdBtLchfmfnzn31BDb3ysSZiM/7CN59q8oM7AIDOQLs40w+QyKty0i5P5Z5Ovw9QXh+zIO7q8HI/HCTtIX8FqBmvJQJLA+WqlodZ5HUzqb9UBhY3pcajcOPmLbp+I/Sxxubx5NdW0dcer/tHDQEAAAAAQLMJCiZ8fNXKtj+wIk96S74AgMXFhYn/Ef/j/6b/DwDoHIJ2HgX5+9Kff3Gd7tf9e9cVWP7II/Stp56s/5JyAAAAAADQEoKtMzHknvrGEyoOsZVI+pIPDEcAAAAAgM4jeOcx4v79B/SzL1uzAymv5Hnq609W+IsyAAAAAACgnVQ2HgV5AvvL61/Rnbv3zJnGeezRFWw4ys4mnqwGAAAAAOhUahmPEbdu36HrX92kB/WTUC8Bf/KJx2nVysfMGQAAAAAA0Kk0ZDwKcvdXN27Szdu3K70LUjYYV61cSU9+7fGWx1ECAAAAAIDm0LDxaCNu7Nt37tK9e/eUa1t2JCV5cUXLDqO87HvFihW08rFHlZsaAAAAAAAsLppqPAIAAAAAgKUNHmsGAAAAAADBwHgEAAAAAADBwHgEAAAAAADBwHgMYObMyzSw52OaMd8BAAA8vKg5YdtxmjDfHwpmP6YXtu2gw1PmO03TYf7+wpmr5jt4mFiCxmOeQF+l9/fs4AH/Mr0/a06B1jF1nNua2/votDmRJuqP9JFWyOa63HQAaIBSOdX6JCOnmcUkJlIAwMPDQ7PzOHF0H52aW027T7xNz3aZk0sdtVJcGGN54pNJ6lq7mujiZPHqfOMBGj/7YXyMbJyk4ZplnjjKk/qSNDK1YZKs+BcPnb5rHyqnXUNvWXL6Fu2mMdr1sO08gUXB0tWDoJN4KIxHmcCGLz5khuOCMk0XuL23Dj9HAzRJFyoYPf0HD/A91+jcFHZwQKupK6dr6NnhndRVUbYBAGCpsPSNx6njtGv0Gg0Mw3BsFzNn3qPxtQPU39VDmzcSjX9SZRWs75m9DOMRtJaG5JTv2bqW6NIs5BQA8PCxtI1HcduOTCqX06Fecy6mJDbSu+2fjn/yu610MHVyXTqP2JVnApDjOEzLzaxcD3Ea/nzca2y3pqnD3jGapWt0aq/+3S1HeV3S9QhzP16lifPXqGtLD3Xzt/5NfUQX32ut69zErQ1f5M8Xj5nyuvXJ1KWSyzHdVlZbxn2WxHDa7VwmC760bdnTfXyMxvnz+Ej291CZ9BLF+8VHFC6g08yW1Tc2knpHh7rPyLYs3GhOXLx2+hEF7RrhaV91mDK47ZtOv4j2yGnVMRS7HOO+sfszoK8zfZq+Jttfbn8yKg1PW5o+tcMnistbnle+DovIykhZ+EZ2rPvlTtIJkh9T7/i6imEY2fKk+iR3HCaoNFS+qfaw29Ok49WDJXoqpAzBlLVXUVky5fDIOOgM5C/MLC1+NP/aM9+bf/6Dj9T/3339R+Z8mui6OfM9Ym5+bLd7308+eGn+u7tfmn/+mTfnPzXn4uucc/Pzn76eOjfzEd/n5hOnt/uj+Z+Ycwpz7Xf5eO2H5lyUj3Ot59wP30zdx6j0XpofmzHfIzxlSpdblTFd39dT5fWRyTO8nTXp6/Ouy6LqkLnO3O/tJ0/bpIn6xE6Xz70Wlc/U93nuz3RaobKQ7bN0e+k2ca4TPNdm8sxB96+b5k8+eNPUIbTPPH1jtw2jZd0jN0ZenTxMfdLpqXN2X0X3cpvb14bWXaHSDZHTnPOmXEn7Za+rM4ZUHUQ32G0gmPzs9DP1Ve3iyuGnr2flz2lfU+6sLvGMjUydC8rrS1fOxdcZ2SnUYZ6252sy48CB70nJW1YuTNlSaXvlJ1OmZOyEyJpOM79PfL/7x6YnT49MCCpNr/wU6anyMmT7398/7n2efs4ri0fuHPkFHcWS3XmcHR2jcVpNu3f2mDMNMke09cR+6jdfVdzTSYnPm6ST0aqJV1QnedU3MGxd17Wdjgyt5vKccVdQkt7wdrXrkcbdKeV8Xuzj68dpIloJTp3RD//Y9/fupxFxvb1TviqeGBuj2bU76cjgGnMmijVM6jJz+RrRxj63vgf95bWZmRrntMUVaE5Ebujz0wGrdVmJHqPxVNkaQrVVH42ctftO6vsW7V57jU6NpXZdHLg8I9xW8lDPQUuOuE8POeXjttryihsWESgL3YNvu7vifM2eQLd9SD964bK9qkI5PnTy7h7cXzG04ypdYjke2FTUNj64Xd/RHoF37Wv53neH/TuAXUNW+/YOct9xNebW0YjVL/07w+MQG5PTaTosu/osF1mPRkLdMURcrz22vDFBY3b2CpFTJ7kmkT+VRlqWud6HTnC7zY3RaEC7efGV96gex6dP2vXlvKLrQnTYLMsX6/CtvZaM8DVFba7ycPKM5OIKt485EcFtYctfVn4SOXXHyduqnKVMHffG2sd9onRE9vco/awul2tdfaJ0RZDMCnl6qkoZitDtJe2atJeJD87IV7YsZfILOoslazx2DR3QxsHeJm17p4Ras4Y2yCRmJno9Ie2koZRy6+5ax/+mldc6Pm8+OqSUpbD2aVZq19RELcgTorTxOVcJMN3rV7Mi/6xksMtDAjzhv5iexNy6qLQuHvO4LouYplE2SiJXYIRyCdrGr03sXpFjH51az5NbSvk3gm4rewKPWEP9W0qesp2dpnNp4yiHDV1un1WTBTGaE1eNcjtxPzSjH32oslEfbS6chEPQeY2PVHRxqXb1yLnQ28cGUfqBqfS1a1g++T8eF/XkpLqczo7us+T0GF2Sp69TBlOaemOIydQrcMyKbEmIQNoNrTBp+GTZxG9Wi022yClvun1tgnQYj6kNLAu1dLjt/jThO5H+jMi0hcrPimMtkFNVzhJUHb3zhia7gEnwyqLn2jCdn+DXUxXKUIRpr8yGTbpdDemyFMsv6DSWcMxjsjM4XDFGpS5qpyGO77KOEVYiaWpPfGxUXOb/HKNLHyq+rAy1mpcJ371XGW6WcpWV5/hwXzJphrTh1KSKzXMnWj5U/XN2+WQnxHpVT9mEXA3TVnVhpTzLhotM0MVkrwmVBR3ztY/ObUleBRO0qxHYjz5U2WrLn42MMSlvXlxtDqpdF5Aacuq+qudDd8c0h1pjSFjPxrH5qAjt6979NC67iOl4N8Gk0RJyyps2DhJCdVgPHZLXIq1lHW5+L4t3lJ00FW83QjQS9Ze0ifm5Eg3Jqaljum0s1DhsKzl6qlmo9kp0QXLomG0Xj14tkl/QcSzxp60Tl8yujOLWq/Zm0MUKQlCrQHHVWJNMcjTraW+z65I2uuKjZJvfrALFZem93zbeZDCr82yEK0OoeDDrlba//sogKnvnY9MxbVUXNrDqdlmQLMRurTBjxKFKP6Yo3zWpNjb6D5o8I0OpbOeggXZtBm2V04pjyEuVvhbXvzofGV1mV9ikEUSj/VOaVxUdphcocv700GplQOcvUKwwkzI9GEJD7VCue0J2L1tNU8ug2kvrs2yfBuq4PPkFHccSNx6ZKI5KFLdnUsu494yrMoNv+95cG62w9bZ7hW3+mqgBX3uC04ZB1dfnKCPcFzcUU+yqqhKP1kzy20o/bet3aRvUJFjvnZP1ZUG3Yzl1+lETWrbgsRHBhpJM8KUu96J2VbuCOS7tprBQchoyhvKo09eR5yVy1xakYfrVdeNm3bw63CGE8vLW0WFRHF5RSIaP8HKnyJVToztKKKtj0Tgsc3k3i6aWoQF9mSUtv6DTWPrGoxBNak78URTzdsxyhZiVq/nmco1Ojdi7lyZo3o5rU4H8sm2f2l2Y/ZgOV417KqB7UL/UOOOOnzruunW8g5kHpTyA47SFZuJoUm77s6AVcF6cJv8u78wrmvQbjasKwKesuwdfMStYtz76Lw71OQ9cZOEJ3+ymOW0V0p8hsqBW6m7/qAcNzOcE32Qc1o9eeDxoV7O7qp85c9x8Dx0bPAacBZmZVC1XnX9yym9X/WqtVFB/E2mnnFYdQ/mE9XXSfwZjiIvsqDTkwQVOw90Z9jz8E7XBiFV+7ht5yCqMgrzM9yAdlhlnxvA3np4sZrfP1gGVyp2mh4bUA277HL06c+aN0tAQIV/3mO+549D8UYucByrLqGSYN7UM/vZSuuNoechGsfzqMjX0CiHQVB4O45GJV62WWy1+oiyOJXqDaFi2y9XPLuLmevEzK4aNJ3lxjzgPd7DSVDFgojCi6/jY+xltruqWLIQn3/hPpFn5vPN06gGNZDDL7/HEwwpDYkvInI+Ok+sHrV04tw67RtdlnlhOMEZD4So1Mkha987HeEJSZY4Utr9Phi+L2zLAteVrq73jtKF0ZyxAFsyueNQ/clzYZFynDpyWMR7UddGEHNSPfsTVfHqIeNJI7tt1/um4/4LHRlQmdZgHnpzQh8iIlt8txe9t1zHaMFzDhR9Mu+W0yhgqIaivrzj9OTByxX2KVrkED9CA02e+h39EdmXXxyr/CNERzj/Y7s3Ji+LdzTAddsmpry5rkXzotyg0UO4UMg4id3lUjlfpFb0ZUUqO7qHE2+Edh0pO6oc5+fVgPs0sg7SXhK+48bn76NKmECO0RH5BR7FM3tdjPgMAAAAAAFDIQ7PzCAAAAAAAGgfGIwAAAAAACAbGIwAAAAAACAbGIwAAAAAACAbGIwAAAAAACAbGIwAAAAAACAbGIwAAAAAACAbGIwAAAAAACAbGIwAAAAAACAbGIwAAAAAACAbGIwAAAAAACAbGIwAAAAAACAbGIwAAAAAACAbGIwAAAAAACAbGIwAAAAAACGbZPGM+N8ydu/fo9p27dO/ePXrwYJ4ecNKS/LJly+gROR5ZRitWrKCVjz1Kjz26wtwFAAAAAAAWCw0bj2IkfnXjJt26c4cNRXMyALYladXKx+iJx1exUYkNUAAAAACAxUBt4/H+gwd048Ytunn7jjlTn8dXwYgEAAAAAFgM1DIe792/Tz/78rradWwW4tL+5jeepBXLl5szAAAAAACg06hsPN67d58+Z8Ox5oZlIRIb+S0xIFfAgAQAAAAA6EQq+Ynv3r3XMsNRkHQlfTFQAQAAAABA5xFsPIqL+svrN1pmOEZI+l/8/KumusQBAAAAAEBzCDIelUF3/Sv1kEw7kHy+5PxabagCAAAAAIBqBBmPt27fVS7rdiLvjJR8W8XE0R00cHTafFsczJx5mQa2HacJ8x0sNabp8LYddHjKfO0AlMzt+ZhmzPemM3WcZZrHIh8vnLlqTjaGHic6zU5qy0rMfkwvLPY61KHRele9/2Ft54cd9HvDlBqP4j6+fuOm+dZeJN9K7mtrIso7ICgAgE5nZmqcZs3n8U8W1yK3ERqtd9X7H9Z2fthZ0v1uDONW2zqlxuONW7cWzH0s+Ur+wfTup/GzH8bHyEY+t3YnnbbOHerVlwLQbKrsZrdl51spkZfp/UhLFlHlWtByunsHqMt8HtjUYz4tfRqtd9H9ekfalfFmtLMvXdA5tKrfm8Filp1C41GMt1u3Gn8JeCNI/oh9BAA8VHRtp3cfxgVvo/XOuV8Wa7tGr5lvFg3ml5su6Aha1e/NoGWyY+rW6noVGo/37j9Qf596IZH8pRwAAAAAAGDhKXxJuMQc3rh523yryp/SD/6zHfTy7/2YvpSv3/gd+ujy69SnfquG/OnCJ762ynwLRyz74cs76fTJ7dRtzkWo3+gAje+8Si/sHYvjH7qG3qJ3B9eYbxHyIMMxGjffiGsxcnY/9ZtvRci2tLu6yN4bWhad1jp9v8R3jlyh3Sfepmej/XdDUb0TrtL7e/bRqTnzVdjIZTiYbOFXKvumSS7PpDm72pQr1W6p9JWrdO84beVru8c4nYvmPDMw7Fs5lZc56ivi+4dm7fJHZTJfI1QZkjZXYQ5Wu6k2OD/A59bQaF5dVF9EdY/IkZHCayuU3ZNO0maedmL8sl18bVD9Y2qME6secflSfSL1stvDlg1bRqPz6XObP7Flyy8HGVlPyUEx6XobCsZTabl87cJkysn49UR+XdxyHCAa0WUfGH6LNrwTyUJ+eex61c8rZ2fEV+/UuSP0hpOnk1b6/t5pd3zHmPrN+dtZ6TVLH2kseU7rjRi33TLp5OgrV3aKx41PBvLk2ovdl4a0DPnqn+4zt2+L5bnKtZpsu/hlxtN+IoPDRK/W6HfB177payrJZJq6ssMUphth0t/gXBvanuEU7zzWfln3v6KT3/0LNPR7t+mZv/NPaWLqn9Kxv/ErVN3808ifQ2wJF4+xABAdMdvX48N9NDu6zw00lY7gRr/EAqKu4WNk4yQNlz71LJOybEuLsWfSj+/1xDiElMWmt48G6Bqdm0o9ocrlPckCN/Bi0cQngsSTBPEgi8t2gNOLqFH2T/rMdW/R7rXX6NTIy9xu79GGE+b+Ezupi6/zPVF7bmQHXdiU5HN6aDWN87lsP3CZ17PyNdepMkvenqeB5f5X6ZX42pGNXKa9qT4TBWAGmb6Oy05jtCud3hyf2zZJm6N803UxsbYqxlYmB3VdjvIPuLa87Nw/7/A8bH6XQ7dZ1Ddr6NmTfF7KqRSSvsZRfjEB15bVX6g9TtJw3UZcw7ERBSdt6SpgaUtbhiNZT03Gqs6BZZ+9SpfMRweRzZy41vJyZZHJJFNOh+p1GTfGnIZl4cVoee/qlolPImODZWSnGD+N5lUP0YnpPMdHqspYGVdp5rL56FBFnkXHZid/JRORfjFjpmqbzFz2yUC5/AgiQ2nD0SWn3IzIbCV5HvG/paH0WtHLnnaR+xydk3NdfXJkmhG5y3vrRPNlsl4f5KMNR1s3i33RKIXGY90Xdd/66DUa/nEXvTQ+TW8P9dOv/Eo/7frb/wn9uvm9Kvdb5rbmFZ69u9A7yIYPd5D19NXEGE9kvJI5Yk2m/QfF0Jqkk0WvFpk6wyv47Aqy/6AxrsbSAlBeFpceGmKDYXb0jCOk+imyPtpcMOFOHOUBl9lZ6aFD8U5ajbLHq2kzAc3xYBp6JVlNdm2nPWwwzZ6fTg1Avm7LW46B0D34tjKuxt9JBqvqh8yqncsshgxPWKNpI5uvtQ2g/p1iHE3Shfg6VhTvsBLl65K8uezDvvTEqLLaIrcuTaK07GLwuX3TPficWkxcSu0gNofy+tceJylmzrwR74LKir4Rw1Ehcm4UphjYmkSGk/wSwzlZSAWW3Yqfig61OBAuTuZMIjK+9LW+cmWZpgvRZGLVSQz5DeZ0vbok5VBtrRalmqR/LWNq7QD185huSl61iNIQXWROOWMjhembuD/i8hbt0pkFlSmrOuLJ1uRVkq7Ssep8Ume9QGOMfrGf+JVFUpRXkqaf/oPJtU66LD+ZzQQL2VGLDRJbhrjftprTSbn1+IvySOT5mH9DI04vkgFmbpwmfMZs4bVs6ETGbby4TsZIPN+J4R0bwbYMclm38Kka/W7rHl/e0m+vFsp1c2Sydh/kMSuL29W0tdfaEOjd37BuLTEe6xhtt+gHv3eWaMPfpBe+Y041SL1yBLCxz5mARWl0r+f/LrOyVN+1ws7u4q2hDSwks3xdHmqlnklfWEP9W1gY05NKaVmy6CfGXINo4vw1FrhBT74Ruk5dW3pydyYbLvvap5Uy29BlCWsuKaE2dK/nfOY+c/vB91RcVw9t9RjZmWu5LDLJXuKBpJidpnNzPGjVLopF+jrBTJg2bvmaS2nZI9TOBa9E1aEVTuaaZlBa//rjxGWaRqMVPE8wtiFaF7tM2sA2qHGlx4uGDbe9blsKUdll4tW/JUdmF93qj2TX4ArNeCbQgeHEGM+Wy4duS4Xa3TM78zwRHVLtFF4Xm6yu6KHN0SQV9a8aK+qM0RvNyqs6SRr2LmmL5J7rKTtRqm7Wbl15Xpahz/p5WLUNH5arUtLo7lpnvpkdJbOz1X/QXRjmoXYRU+nmjzW7z1jvDbsbB88qGbLKnRp/egGr8W1oJONMb2po/IvZwmunJmMZUru0pu2SnT09nmzDu8vepGD6B9N6KAS7fdgYtDYp7PHp2zBorkzW74Nc1Pwh47S5O/S5xqOEQtZ7WOZ/oR/KOPvOLfrh879Kv/SL3+LjV2nX9/85faEvqIyUY0GeuObOF3eUGtiRAlBHNkbMxVqpt5K04WQMIp8xFmPqlG/YtansVTBlbio8Mc46E190JBNg56LdGgMqXlSvSp1VfLupPU5cZkfH4rYvWty0lVxjzkK5z6Q/kkm8+ZhdcfNNiNo7eBfCUxefHujf5O6yJRN1H+0JNegD8+pMzPiqKL9VUEZe7353l9EsCopfyp8YtD63Zhjr2HA1HxcdWYN08cjVQtFDh9Su6GS8kKm0c5lDrvG4bNky86kqX9CX8ozNx3+XftD392nif75Ix565Rede/Q/o5Y8qvLMxRf3yNICy2GWXIJqgU4fjQrUxu4Ytx6x0zE6gUvKeXSIHU6d82lX2ANY+rQ2I0jLXQO2Ouu4O+/DHB3YGcdhBoeutjdQeJy5dQwdit8/s6Bul8VuCP/4rB3sRsp7l3HzUWO5F+zChHRJKkf5Ny4gJf1Ak8pS4ogMoLJeFcXelFwrZ+KriupRiua5l9yRuY683osG8OpCZM+8li5jIbRi7hisSu2hThxkTkQvakZdc9yijQorM59i1uoALxxZiu2zto+FQloeSJBRDZE0Wnr7nD6pQ6LZ+pJbB9hR9YyX/t/3v0enf6adf6f4O7frv/h79Bp86d6Hepmm9cjQDnhQ9LtEQlFvPG+9ktse9irgGStHLDoF2+WVdh2nK69S2sit8cTomn3giLSizcalVftGrMniKY4QWFba7p+3UHycu9u7aNSeI3nHxxfnY7kE/mbhZ87mLZUvyU2EYCl6VpwLRJ46GuHnY8Isn8+eMMW+7wPwUl8vHNB2Od6RkJ8GOmRJXXjPqEpG4rmfPv6EewBOSMdbMvNpNeVxwsiBJdlptN6kfO13b9Z82BHmxcVT3o4RCRDtAanFiGah57ueZ2SvmkxVyEzT2U31m727OfkyHVRndcttx37aMVta1VbBjbtMLyLic3F7WS76TBwWFpH1dyvrdbR87ZtdZTLTEI5IvO63og+iZgvwQhzCKjcdHCn/O4Tv074nXY+ZP6af6hLzpW7msV658Sn+vSL1yNINoZy/7lHCZguwefMVsE7vXTRwVV4gbU9EYWtjG33mPLrGyK3pQRmMmaIkncZQ+T07me/vKrkkrCZ2PHY9YUGZxFToPvYQSPXCUfqI9T/mUk290Z6lybRodb2gHo3M7+J6grGIgN2RM1x8nGbq2q4dxFOLGi/rbmlSSWKiAEANJw7hq7IcFolgiJ94wTreKW1Abzor4/gB3Z0m5vFj3uPdpb0PjdUmIXddz18yE5eqWZubVDtSYMWh3f/6Tycm1ogN1nXxP4Ap56drxaepJ3bh9WDassCAn1MMKe8gzDpJFlBVyU/j0dILW6+aLLUucb7TzrR9y09hli/u0lq6tghsH6YQVWeUUPXHEe53bvpX63Wofu8/ivi8bnxXJlZ1m94FldGv0ojt/oRpGifFYZ8dvFW0/8CJ94w//j7TtP/u/0w/O/iM68pv/OSv5Ltoz9O+aa6qxfPlCGY9M7361IiRHAeygk+vLgr95Qj0puwOJAlICIO9fLHiHVx2UohIlH7ojqNxfLKCO0j9GZO0stKvs2tX3HF2ylMTwRXGFpVyyOWVWrx+oacyq1f5wn6vAWflc2lTP5aYn1KjNyhYX4dem0StHW2HKa3R8rqvEQJbrit0UVa71UHucZLGVpxgmuizmyXp9ViFurTL3sLxb0GkXcSOm3zLg7OIlhD3gIWPFzaM55QpDufbi+xqti4VtrAsZ3dLEvNpAtNsSQuZa6Zsct3Vuukpf2U/fJhR7h3QYQK5xwOPMlS253jf2fWi97pPNJG4wv19VWEqTNw58KL3sbW835jb3Oiv0o0q/F7WPO86aQ37Zmt8Hlxy9rOfNRkOzWvaS8J+e/U/pt3b/A/ojuf3b22jk3b9He/5yvZ3Hui8Jf2iQpzzNy7Y7IgYulMVabgBqkH5RMmK3AACLlcItvZWPPWY+Vefb2/4eXbj6Of3pn/Hx/xmrbTgKjz32qPkEfOh37JU8KAMAAAAA0AQKjccVyx9ZwIdVNJK/lAPkMBvyF2UAAAAAAJpDoVUmr8dZuXJhd/0k/wV5TU+nIy5fiV/Ym/4blgAAAAAAraMw5lGQP1H45z/7ghbiHd1iM/7CN5+q+eAOAAAAAABoNqX+YDHc5IGVhUDyheEIAAAAANA5BAUTPr5qJT26Yrn51h5WcH6SLwAAAAAA6ByCjEeJOXzq60/Q8ja9rFvy+Sbnh1hHAAAAAIDOItgalL/y8tQ3xKAzJ1qEpC/5LNxflQEAAAAAAHmUPjCT5v79B/SzL6/T/QcPzJnmIa/keerrTy7sX5QBAAAAAAC5VDYeBXkC+8vrX9Gdu/fMmcZ57NEVyjUOVzUAAAAAQOdSy3iMuHX7Dl3/6iY9aOA9PvIS8CefeJxWraz/12wAAAAAAEB7aMh4FOTur27cpJu3b1d6F6RsMK5auZKe/NrjLY+jBAAAAAAAzaFh49FG3Ni379yle/fuKde27EhK8uKKlh1GeWfjihUraOVjjyo3NQAAAAAAWFw01XgEAAAAAABLGzzWDAAAAAAAgoHxCAAAAAAAgnmIjMdpOrxtBx2eMl+XGDNnXqYBrp8cS7WOgJn9mF5w+ljL9Qtnrprv1VBys+djmjHfO5HFUEYAHj6W9pwKisHOIwAdxMRRLAAAACCDWTgXLSTtTRT7SOtTfd1xmjDfQXWWpPGoJuCj0+Zbh2IGQt0dI9BZNGd3bJouXFxNXWuJxj9psvwqeXuZ3p813zsS7GQ8LCwKHd0pVBm7LRrnnbD7PzM1TrNrWT/OjdNEYf36aOTshzQeHcN9ND6CubbZYOdxIZg6TgN7x6ij53HQfqYmaXztAB15sY/o4iRWxQAAoLhKE+ev0cCLr9DWtdfo3FQFQ7B3P41sZLv6/DRCX5oIjEcAOoKr9P47k9S1pYe6e/togCbpAnbgAACAF9Zn6NRcH23uXUP9W1ZXNgT7N/GCfO4zGI9NZGm951F29EYmzZcI2cLeT/3KJXaMaPhDGpp9mXaNXjO/r6bdJ96mZ7vMV4Ns0yfXEHUNvUXvDq4x34rQ+Yybb8IA53moVz6xgbBnHw8CddrBSd9TDzf/VB5rd9LIlnEaNuVN8ssnXb+knSKy9ci0gbhI9o7T1hOvEI1Y9dp4gMYP9qTyyLazuK6Gia/deZXTsXZiuT6nT26nbvM1orzM+Wn6+y9dR38bFMqMaoP0LrJfpgqJ21Lfp+px2dMOJr8NcR/rMl7KlU+/zEXtodr0/ADns4ZG7bYwfehS1l4FZGTabSNV34v6c4wtR8FlzKaVHg+xjGyaNGUqq0f5WKgkm3G+QtQOqTzSdbPko3usuH6a8jLnp+lvj3QdvW1Q1k+FOtrTjjm6wKXJ/VOiO0Kv0wSOGe/4SOlVgz+f4nGu8VyTM4ZiCvWbrlvonJpJK6hvNXGbS1kzOjBB9/O6bBur9uXmdOTMc12aTL+k+6+sf5M22vyJGWMbf5t2X/77dGq9p+1VflcKdWPj+qxJiPG41Pj09e/Nf/f1H5lvET+af+0ZPs/H8x/MmXPm2mfenP/UfBcy52Y+mn8+dZ+XH76p0vcd+t65+bHdRb9Heef/HpXFd010vPZDfWkeOo+X5sdmzAnm09et+pp6OPWN8rXbNS6LlVZ07+6XnGtz25mve373R/M/MefifnLORe3m66d0PeRc6n5TJqddPH2aLWO4zPzkA66vU+ZqZO5XZXbrpjDlTuqiy+j0lQ91XzY9la+qo1UfT9uEtZcfXz9F+bqyquuSlt/gMkZyUtL3qjwidxkd4cHkk5b71+J8a8hmnFZUXi6LfW1u+8tYcevibcfK49e+39OGTKavPWUM7yeTXqr99f12O3JZXi8ZUzn1aqh/QuQn4Dpf3TPtyPj68CcfvJmSh+zY9ZJ3ra+dvLrWjypj5rpw/ZhtH7+c+UnrBXNvSn6ErAxpVJmsvPKuc1BlTsuIdU9Q/xr9zGPc7d+QcnraKE8eQ/VZE3n43Na80rJXbf07d1KX7SLkVc1JtvIHhi3LvWs7HRlaTbOjZwri0HiFEa1QZDVngnVP832CvncNPXtSB/BGyMpQrpMyyWooXmHIqiwK+D17gLaa0xNj7ko3+n3AnCuFVzbDF7Mrw/6DUX2N+zS9uuU2eFfKffG9TDB219ArSVq9g7R7Ldd3jld11qoq084RfN0eZ/XZQ4dO8LVzYzQaXWtcFunVVP/Btziva3RqLB14z9faaZoy2Q+hqHbkNj5iy8JBacdJOpkOrC6TmYbR8TzKZW3OkHJdV4ztqY3Igyvve1IxQpXay0aNp6y8dQ++reKQxt8JDcIvL6OWE75u2O57He+UyUfkrmjHRcFjYYTrnd6d4bwPRe1QRzbjtFgfSHzr3DUiewz56qbg67a85ew6ZNuxzvi104zKZD2UUEknBvRTDjOXuX4b+6x25LIcLNqZalH/lOgOTZN0DLftq6PXMrtJ3YP7nfHSKKos6Xby6do6lOpHLZNynSNnw4F5Syw4t/dm615xXYfGhet5NaUXApiZvcLz8AD1e+fJajpxdv1zbv/2DnjmEHlgksfZi6acTddnzeWhMx4HNqUauGsNbeD/Ls3qztZPdO2kIaujhe6udfzvFRYo/T2DEnDDxWPxKwKSrfyCexXagNCkBb2HnlUCqoVL4QhtDw0ZI7WMiU94EKcGhMPsNJ1jgd3amwyIGK9Bk752DXWv5//WPh02UJ3JwpDqE1Vm33V5SiRzrSnT5atmwKUGaQznK4YvX2dTJjMNY5SE2449tDlw0m0Yjzx0r+d2jWOEqrWXjR5PfnnTcUhlT04aSssYyclzmUk3fZ0iRD7VWPD0v0XDssnlkOJuYJkqxz8unfo1PH4ZVaZrdMm4NyvpxIB+ykNdx7oz+KnYdvRPRncYmqRjVNs6hlErMGXxtVNXD231GsfhlOpHI5O7d9bRo5Hh6ba33/iKmKRhM//qOVjc0x43eglKvtm43eV9K0A1ndi1PjXGzKLKMQJTRnLT9VmTwQMzKdTqVwTGEj51ZOJ0qpIo43LWseCaj02FFdtl/o8FOVfQWChD5vL2YcrcTFhZXeL/5PUNTh9vy8YMtQOlJFg+Tu11y6N2oRvdFWgGDbSXGk9twciJtXCLDjfWzVA0BiLUWFitJgM/LZDNRmnB+G2dTnSRXVTxysyO7tPpl70appP7J3DMqLZt9cRvyrJgqH7K6reBVJyqF7NAyIxrEzvp91zITnPktZPD3XUOpnc/jcvObJy39V7IijrRtzh0F89pI7kF+qzJwHhMoax6XmUnLmP7CFu9JO5k97C3rRcGszouwuyEdAJ6wAWUuSpmxSuuIl8/ua6dVqNXsH6Z0eEITX/nY1UaaC81ntqCkRNxzfnKWGcCKR0LLZDNukQGSAvGbzN0YjAyYat0WfaVwVrwIudO7p/AMdOW8WHKsmCofpJwBk878OGEV6SIdmZdY1AfKiQs1HNRFwn3UPlJmIPsaJp3aDZjDrE9AZnd2RbosyYD4zGF3qquIZBKEDSzo2+4cUWzH9PhHFdMsr1t3CgKFlJ71R3fzwIbrbLtHSkTNxOCUlZFsSJqUOTE2qlt9RyXWF18ZTH5RHXNL7Nx9XvdUkXodlxwo0wobFMTjlDUX22hfnsVjSe141oUQlGRUtmuStFYMDRfNovwlcXkE+08tGD81taJDWHi8YrCfTquf2zCxkx72ragLAGu/4YJ6Cc/xX3UPficJwyjVcjzCrKYjzyIYf1bjNbvEpo04Qnvabo+azJL0nhsqNFV4LNssadWvAUGoMaOO0xt0e8dc90G9orZbEtLnE/34Csq6Fphu4ni+00wuyHeMrdff1CCzkNWUG79Jo5G31lpG9eRE3vE9X9hZNJ9OKYpcFnsmBKTjx3rkV9mcRHwqrTyTqFpR277dHxV0g7V8E8C8poG7p/cv6RhXBUFBlRxbE8FaitwoYH2UgHeMh7cv3rhD2JvTCHrySS18BKmjtf8qzX5YyHSBc2XzWLSC1Odj71j0YLxW1sn5uPT0WlZ0rtORSE8ndc/CYFjJnd8HE++Vxm73mu5LPJwisw1ji5i/SRzh/Mgi5/GjFxjJHE/ueOQ9d/RgtAEFQteZNi2Ni7c6QPB2dRozhyi9DvP9fKavXT8ZGP6jNt2D889LfyrQEvTeIwaXRlf4R2pYaE4+SEP6Oh+c+z9jDYXbK8LKmZHrZbT9NEe+17ZCmell0XnHT2hbRPHTERxGPqbhge/7x4//voNcxnj1Z3Jg3iwJ/XX79UqcjHUQsq+/j0nHxIXrqPUc8os70FsMJ7FqSMfJ9cP1kwvmmAlndA/JaZX/c5T1mmigHZvbE8VEgUu9UwrvFIaaK/+gyLT5Cyo/EHsiUJW11X+83VsTIh7iVLxee88nXnYIxjvWBinDfHuXQtkMxdx/T1Hl6x2HL4oLr1UOzZ9/PrrGKIT8/DraDf9oPfwdVT/pAgcM97xcf5pa0FZZezmXKvcrwdoIBpb6tDvhw1zsdbQbxZRPKsbI7iPLm1KP3CSoGPBix8m0nGDrYoLv+L0Sfr9i43oxBij3/31bIE+ayJL6yXhYFHhvPgVAJCP7BxaL5EHAICFBDGPAAAAAAAgGBiPAAAAAAAgGBiPAAAAAAAgGMQ8AgAAAACAYLDzCAAAAAAAgoHxCAAAAAAAgoHxCAAAAAAAgoHxCAAAAAAAgoHxCAAAAAAAgoHxCAAAAAAAgoHxCAAAAAAAgoHxCAAAAAAAgoHxCAAAAAAAgoHxCAAAAAAAgoHxCAAAAAAAgoHxCAAAAAAAglk2z5jPDXPn7j26fecu3bt3jx48mKcHnLQkv2zZMnpEjkeW0YoVK2jlY4/SY4+uMHcBAAAAAIDFQsPGoxiJX924Sbfu3GFD0ZwMgG1JWrXyMXri8VVsVGIDFAAAAABgMVDbeLz/4AHduHGLbt6+Y87U5/FVMCIBAAAAABYDtYzHe/fv08++vK52HZuFuLS/+Y0nacXy5eYMAAAAAADoNCobj/fu3afP2XCsuWFZiMRGfksMyBUwIAEAAAAAOpFKfuK7d++1zHAUJF1JXwxUAAAAAADQeQQbj+Ki/vL6jZYZjhGS/hc//6qpLnEAAAAAANAcgoxHZdBd/0o9JNMOJJ8vOb9WG6oAAAAAAKAaQcbjrdt3lcu6ncg7IyXfVjFxdAcNHJ0238CSYPZjemHbDjo8Zb4DUJOZMy/TAMuSHGXypHSJXLvnY5ox58DSIO7bbcdpwpxbCDBfgU6j1HgU9/H1GzfNt/Yi+VZyX08djxV+3rEwhsVVen+P5P8yvT9rTqWwJ6vC8qo65qcDAGgn03Thovk4N04TGJdLBjHYhi/vpNNnP6Txs/up35wHC0fePImFW/spNR5v3Lq1YO5jyVfyD6Z3Pw9yGej6GNnI59ZGg18fh3r1pW1ldprOza2mrrXX6NzUVXPSRx+NWGUdH+6j8ZEd9MKZonsAaCNmd3exyKSebFq52OqhzaJnhLUD1N9lPoNFjl4UdG3poW5zBnQKqXlSjpPb0U9tptB4FOPt1q3GXwLeCJL/Yo99nJkap9mNz9GRLatp9vx0+AqJjWExgCvdA0CrkF3vvWO0WDbXZOdo1+g186119B/EBAYAeLgoNB7v3X+g/j51JWZ+l/p+8Vv0S55j7x+Yayog+Us5Fi/TNMoT2MAmXsH2DlBXRddW/6Y+ornPYDwCAAAAoCMofEm4xBzeuHnbfAvk1r+iyQt/Ql+ar3yC/vDE/57+28lt9P25Mdq+ypyugPzpwie+Vv3GOGbFsyOgfqMDNL7zKr1g7aZ0Db1F7w6uMd8ipunwtmM0br7pbfPAGBjZrRkhc73EPu6jU+s534M95gKNuNd2ja7LpuvcH32/QrtPvE3PFrrI0mUmGhh23faqDaJ4Lcb7u7TRpknOc5LP9NGzGyfpfV+bijuT23GDlYauU7Lzk25b9fv5ATo9TPSq6oPVhfVKp0fp6z1lCGmHbLqB/Wvyc9YCEiYhbWP/ttHqb+95q4xyf9weBvv+StdGZNsgW0cjm3PymX/jdIdNn4+cHaSZ+DeXuE+L2sJ8jbGutWXC7oekj6yym7pl+0uwZMFXFkVKXtRYkjomROVJl2XzJ/ZYsdsu1W7qfPpcH12w29/XLqmydA0doK3nj6XS9VHUb8k96bGelZMAGQnpY698M97zriyPbBmnYWlzJ01PuVJ5ZuTB076Z+jNpPRDhky9Xd2XLlNZtur7jtPXEK6y8df9krkmTkcdEXsPnK1seDL72Er17cg2N2vXw6g7fPHGA63SMLmXyTrdLVm5D+qoIfb9nnkxT0JYRcTsEzj/ApXjnsc7Lulf9W9S37a/RM9HRR/Rj7sMNR16vZTgK8ucQW8LFYyxgREeiuInhPpod3ec+pCJKgAeEDJQovmKEDajhwKfvJj7hym/sM4K+hvq3rOZ8J4Of3FP3r306eHBp9CC2yyx1SxAFwwohDgbXv0t8ZeYBncvv0Quf8G/quv20W+2EZndPlWuelcVmo4xF4ehBbtI/sZOI2zYbKzdOr8Z9UDRwp2lUBnqUHh8jG6/Rqb1F/RDWDk45VbrSvyVxcqKc0hNpM+AF1q50uiKnvictQ66VcjoKPULqmPcAGf+WMqoKqdoWXWtog/mYhGRcpYnzyaQy/ompw+xVuqQ/qd17YeayO7FrRBbCYxtFPtOGYx4yLlzDg9snOEBf2jnV/txvr1rjQCaxdFlmRyPDsQq+fpMxkDWclJxEdTA6LisjCaqMvj4WGWxGTCmnowxHm1zZjYjGb+o+VaZILxhdl65/Ad2Db7MeOEAD/FmMM9EJsZFkyuToFKPbfGP03MgbbM3r64oMx0gGxKCN0j09tM78agiZr6bO0LktVtmkHtIe6bKpNpqkzdF1XIcuTt/Vz555gtMTwzHTJwHzZGL4RWm9RbvXmx+biB7bssES5SNtSawffPoudP4BaQqNx2a8qPtP3nqNu2cb/RdD1cwfm/stc1vzyshe9fQO0u611sTFTIyxwuTV0RFr4PcfFMUySSdLHxrQQdfRpCco1zXfe8E7abvIYBu+yKuh4fCVmUJNuKtpa6+lrHr3J6tsVjCn5lLpmvjK8XdSk+LcOtpjr0Z7+7ju6Qd/9MTfNTRIykhmRXJS6j1srQ67ttORodWs7M64xh5PkFuD6tdDh1Ir1P6drPDoCs3kTVxB7ZBdHfcfZKW2lo2RsexkEKGMeoWsVpurDKMJK5rAFBff807Qxdey4RAbE3Y5k2vHR3KMb9mFUNdK26yhZ0/yZ8vwtifV6m1hPWQSh2RwX9nG0uWr+jz/rqudLEziGMPokIlP/WLkkmXtXT6vHphTROXSk4MeV+Yn2fmI0zpAW81ph/gaq40rhJ/EfWS1X2I067AWjdV+ziKnAk6/yUQaTfQi5ybtqL3YgBhlPaQXfhrbeInbj8fzq3EZPemI4T7S+NOucTvJOBdjxCu7XK4t+uzMmTeMge2TbaOf1cOK6oTVNnzUal82pt6ZVOV0DEGRN0kvM0a5zba8Um6QmPZN74R2D+5P3Vs+X4l+c43UHhpivRuPpxhpM1c/70nH10f60dG7rIfjfk8ImSfVoi/eSBFYrxwM0f1pJtXC137aOjZ61dwjdXMNQVkQ+Oe30PkHpCkxHhs02m79Izry9ix1vfx/rr3rKDRcjjwcQRbWULdMePFAM8bfi2nhWkMbeNDO8nVFzJx5jxV3Mukpunpoa3rAx7iDQq/SaqyG1M5O/q6c3g19LpNu93pWMun4ysyup1ZGjhFoniaPjDQ1GbEiGbLrzXR3yUo6beyt4/PmYwhq5W/aSO2EXHONDpugdkjLgFC+Q6zaSiHpc1nUyr6uMrRwFLBR/ApPPcuunZqMdwi6huxJzL7Wt5Bh5bsz677Ko05bqFhehZEHU9Yu7g9VTGOczcxekW/eflI7DLEcaMrGZLTQ0XA9nYmjh551Jl5NMv4tozeYPtoTpWkme0U0zvL6yL42mHS/Wa8RsnWL1V6XeIGlx6VGdlmjHcn+g9q4cI3LrMGhaPg1RVY7MXaeruxyuQalP+x+NHKn6pfsiilZsHa51c5dtEtqLyJDSek5B++immgD519G2muTS+l8lRCPDT7UzmxGr2ffDJDW/7leL7tNFWHzpEo/s7tZB2sBY47IYNZzj/+tB/r5gbScVpx/QEyu8SihkJUflknx09/7Pp2jX6E9Q/+WOVMPKceCPHHNilVcZkqhRopXHamYEi+RcrOUtn2vdycpPSgsRV0JXh3Kzs/aJO9ku54VzWX+TylSu1we94+wnhWU+RiR3j3Vq85kwKoVpnKLuOl73YShLnnZiVBpSPynaR/PCtgloB1q0j34iju5R+3pcV0tPqop1Fptwf2us9ATbmQkbmAFrycmbQBHLuoulkONdqVJ+lVckX6W2sRRvT5qYmdDKtmlZaKx28535xXogRADzIsyqlgHOLuMkaFZw9Ue74KHsloZT2UoGQ/VgyUo97eMDYmPNHrydLxQrILRjx79nyFwnlThANwX4mpXv7dAvvwhLQU0qd0fRnKNx2XLltEjfNRnhv7x9/8nol//HfqNBntHyiHlaTtmhWW7cpzDE1wcY9wl3nuV0VP2zsdGMa5Gzk+UhwxsveIzq1XbheMcAQars3uaXXWqFWbs6ksfdeJK2GAYYQNVlbmqQV3SDrVJ0nUmXjac/HGEhooTUKIMyyeiKtc2lxptYWRImL08bRZasvuS7O5d4gWD3jmzdnuUK01/TGTYcicDP3nj0eiwKBTAMTTYiLRjMxuisuFVhexOlDoidysbx+q7s9hkI7Kqqz1e8DSXZOe+QSz3d+Hc1GyqzJNRX8iYVYuUnLCZmjStLUEphW7rRx4p/LmYmX9Gp3k5smH7Fvq2OVWXhsrREHrb3e9iLqbQFeGLL2khUbyH6z4If2gnCxsLL0qMD6eh3G5uPZUbrGE3Vjm2ayuE8HYwu8Zel7Zm4miyc6EmXmt3Q1yBrrssySOJD8zBxKEpVPyO+ezbVSq7VrnSNG6sqR1nF+Au8xC1oVDaFl5MaIBweVzHpZn2jiaA2fPj+mEZe1c7cmPbLlrL9evHdvlb+YpXwN794DY83CxjKRTLILH7KInnawQ7tjRtCPKC7Kiuu+xWRUa+2h2yjCzpZ+1p0DgxY7bMRX1UV+5TOHmO2LuEUblT/Zja5Z44aowSLuML0W8qFlY8EfprxpVbhqpbzqJfyWCOS7uE1upL271fhYLQncx4qzNPRrGTBTHrNShqS+2G97u0QXVKjMf6u30/nfxnrPi/Tc/0Nb4pvHz5whmP2kjKxmnEysmLmZwLjA9//EWTyEyCencwcv11Dz6nApkzT4xOHS/eNbNRhgmnMTJJ8YMyESpeS9xDqTaqPTmbXUJbkXFaSRB/DqXtIO5WrkNq9TtxVNwtfTRSuHq346z4sIL79QRix8dJHvq6EFdr7P6xYtOcWDOL4mttl11SBjsuLC9dL/bOi3FN63FR1hZ+4li7uWuq7HG/RIZDdN76Kx9JfJ6Vpy8cgrF3IXQ7aSPEcbOr3Q+TDrdh9GR327DjBq0+8oaQ1EA/VKaJ3YXqYBm3wjZiOZLDliV52I/LKA+7KVLtpa+zY0fry72DnacjX0m5tR4zRKESvvyc3yxXaoF+9qPHk7SjMx+Igar0YMDDMT5U2IDU0XWlz5w57nwvxRjuthHXyCLEP0/YD+FFhM2T6TlTL/6jRbEJR2nUlZ3bljUfPgW5FFplK1YsN5+q8+NJEbB++vXv6O+NsGJ5/XI0jGyz8wpJvYrBUk4n16cMJhuzMrOfss5gAqyLnuhthEtOefUrFJKn8EwsIKXiEt95OvOQSz7RJOEzELQbU7+qwUp/72e02fNAQgj6CWgrPXm9guOG8lPcDv5y6ldTVHWPM8o1mLjldZn1Z4X8XlZmvmbEdh0y6acwY0KuVW4in1tXu/oqPTQgOzfWrmIhqbbwYu2MOnJkubQFJ+aN6+PGcEk9/G7raKc5i+53XyxY7fi6BpDd2nQ5B4ZTslOX9G6bRfYBBxtXPtI7kjGefq4l9x5y84zj8ESPZdtOyCxoU9R27frmAzai5d2y7lPO1RAZiF4nE6W76/zTFXfJzG6eZSy/Sq945TwMad/IvRyVS17v4xlvQfOkq2eD3tdYA29b1n34FORS+JLwu/fu0+df/Nx8Wzi+9dTX6dEGDFkAOhv9Pkq1GygTbeqVRC5VrgWLF/Qz6FS0bMr7Kys/sQ6WDMU7j8sfafChmcaR/KUcAACwFLFjDjXiwktCC2y3PQALjonvbO9DeaDTKLTK5AnnlSsfNd8WBsl/QZ60BgCANuHEHDpxeQcacocCUBuJ5Uy/bqvR+E6wZCjd0nvi8cfZeDNf2ozkK/kDAMDDxWr9V1Pa+coVAGzkAZzUg0jNiO8ES4PCmMeIGzdv0fUbt8y39vHk11bR1x5v4E/TAAAAAACAphIUTPj4qpVtf2BFnvSWfAEAAAAAQOcQZDxKzOFTX3+ClrfpZd2Szzc5P8Q6AgAAAAB0FsHWoPyVl6e+IQadOdEiJH3JZ+H+qgwAAAAAAMgjKObR5v79B/SzL6/T/QcPzJnmIa/keerrTy7gX5QBAAAAAABFVDYehQcP5unL61/Rnbv3zJnGeezRFco1Dlc1AAAAAEDnUst4jLh1+w5d/+omPaifhHoJ+JNPPE6rVj5mzgAAAAAAgE6lIeNRkLu/unGTbt6+rT6HIhuMq1aupCe/tnDvkQQAAAAAANVo2Hi0ETf27Tt36d69e8q1LTuSkry4omWH8ZFHltGKFSto5WOPKjc1AAAAAABYXDTVeAQAAAAAAEsbPNYMAAAAAACCgfEIAAAAAACCgfG4GJj9mF7YtoMOT5nv7WQh8wYNM3PmZRrY8zHNmO/5TNNh7ucXzlw136sTntfSZuLoDho4Om2+gfpcpff3cFuyXEKuHkKmjnPfv0zvz5rvoKOA8Qgq0riRARYHyhjcdpwmzHcAWoNPp4jhuI9OrT9A42c/pPGT26kbugd0KA+jroTxCDoO7GClULu/WIG3G+wgLiCz03RujmhgU485AQDoJGA8gor00KGzH9K7g2vMd7BU6R58m8bP7qd+8x2A1hCqU6B7QGfyMOpKGI8AAAAAACCYJfueR3E5DV80X5iB4Q/pUK/+rH9bTbtPvE3PdulzOu7mGI1vPEDjB8VVYmJu5vSvirU76bSKvTGIO3HvOG098QrRiHWtSUPcr7tGr5mT6fxMOYiv3XmV0xmj2CvpzWeMNlh1ENz0ibqG3qq5Kjd1N9+EOK1M3vraS+m8zHXFdZC2epu6x+y+6aORaMWWTkNhtZsEUI9M6tMK695cPP0Y9zGTSdOVlai+xOeGZov7M5eytmHSfamv6aGJdNmZpJ+z/ebUjVHpnh/gtNbQqHNtuu2y/arLtM65zl9OXZfcvFJl8hMw3tKovruS6geTDqXuVdfyMDV1ydSjUM6EVHtlrknuzxvX4eOzYDzGNCiXmfKnx6FvrKbHhiFAvoVsm0d5urKX1t2Czjcro5qQ9kqI5XSY6FVVbrfNiuYOTTa/zDUF8qGxYjpTY0Plf9kzrnLKm9+uhtL+yY69clnNtkF6nFcbB+n0uA5c3+HM+E6j75NxsPkT0292ORqWTU3693Qd9O9GV6q+95Xb1+eeett918mI8bi0mJsf2/29+e/u/mj+J+bM/A/fnP/uM9+bf+2H5nt0zes/Mt/n5z99PXvP8x/MmS/Cj+Zf4zTse+ZnPpp/Xs4989L82Iw5Z/J6fvdL2fSfeXP+U/Nd0Hm+xNda+Ub52OdMPkn5PemZa9wyBxDVIVWv16J0Mnnr8jn55LWvpw6l1zE/+YDbLnVO52G1M/Pp6257ZvG0pZyL6yr5u2movJ18TBp82HX29aeXgLbRedpp8TWvp9vOrbsg99kyEbWxXU7dlixj6fSlDM65bL+my1VWTv17Kl1PmbyEjLcM2TIn/ZWWFTstviYlX7nj05N/VE+77X/ywZtxfjotPuw8MnKQg7nOqVM0dpyyRPV0rw2Sy7KxZOTteZYRt47ZeofIt6DLlZenpx9Nnd32yr8uV395UPXI6F3BU/ZM/Txl4Gvscvrqmm07k5dHvtT9Vhnyy1vWrkxp/3jKUdJ+gpTJ6RvTD1lZdOuSLQ/juTe6Ll23LKY/uH2cNIXSumvK2lD/nh4fbnl1/xbIs2Dui8uT22ZWXh3M0nNbT53hFRSvzIat1UXvfhrZSDT+TvQQxhp6dngndV08pl9Bw6uTk7ITmbrHXR310NDQaqLLVzMPcnQNvZKsMHoHafdaTnKOVyHWKqx/J+dHk3Qh/cobvm6PsxLqoUMn+Nq5MRrNez2OKq+sdq0VStd2OsLlmx09U+GJL14JjfCqLL0zxGkdKlx12nAa7/AKm9NIVt6mfT11kBWbc92LfdwG4zQRLw39zMxe4VXjAPVbK7n+g8UrtImjvKLLrDS5feO6cv4n3TS6B5+jAbpGl1K7fVI/Wx5y+9MhrG1mLvOKdmOfVQ6+5mB2dZxG4myc3Q7utz0s57Msow5cl60n7HpKvQ9wPSfpZIUnV8PKKbsirlyqMp2fLn4AqsJ4S+ihzem0pya5z/toYK3dh9N0QcZL/PAFy0Bq90H35xWWM3MiDx57r45ey+w0dQ/uT+0y9NGInYfRC+OfFD2Ao+UlszPDbfjuMI+Ti+9lH5qqIZdhY4n7eos9VrW8uXo0cOxPHaesp6d8/JbTgP6SMWHreyFk7pi9SpdYxrf2WunzNXH9o7kkVdds21XEW96ydg3pH64Pp+08mBTQfsG6J2AcTIzpPnRkntv0tIz/QGbXP+eWp1myWWuu9eglZmZqnGZ5Phoy5VH15u9H7PF7sLpeXiiWnPE48YkIzHMpRc7Cvp4Fce6zpDONAIy/c5wOswIi2wC0kK139Z4xPtS2tZ2GIqVIWEC71/N/a592B3oezmRs6FpDG/i/S6yofKSFMKK7ax3/GzABRjTjiUaVBg++nak0vHVItxXD7dTlM9ZSqLrxoN8V/PSrNhi6tvSU9wMrCHmXpe5n7UJIt32mjUr6SBHYNko2eSFT7xUkrCSjd+Hxodw2aYMrZShouAyyyMko+3yCyunJKzP2Cigfby79m2TxkVwj479ryyBt5jEYT1DczjLhS30dxL1k8hpQrq1yOVRjjyfEzamxlyEzro1eKDKGjbxkxojQywYxl+/clNv2deQybCz5y+H0ZaB8K53slcEGaUh/reN2MB8NQXOHqts1OrXX/1oWrZv9ddWyWr5Q9pNT3qJ2DeofrQfGR+q8zSFA95SOg/TCLkHPZ2F0rU/JapNks+5cqxZxtpHKbTVx/po1H5l6v5haENTQywvFEjMeWSAv8388wcWTgjnceAZN9+ArtJut/HFyrX9BYhjUgJCYDXnPGB9VVkKtRO0AifJP1TEbp1UCK0SJn8lMqlVQaYgyTZUlHQ/TKLwSHZcd2bhvS96ppQwGog2sLPKReBNOS8V36T4ePysrvyYR2DbqSb3hPl7J7tO/B76mSBta++jclrdiGZXdjVZRt5wh1B5vyqiKdtpEIWujR03UFyeVjGQm9GixoGIgTb+LbJmfi1BjL3RhWBUlL22g6ljKI0i+jU7myb3pbdaI/sr0YejcIU98v0W7107SsPnd/gMKSj5aQV55i9o1qH/ECyF6I7kuZBHbNN1j9HSjZPR8k2Sz9lzb1UNbxSiPFrBTelc7XpCZeo+PpNLlNk3HuHcqS8x4NKsacWNEk4JzuG6SmTNv0ClWPrJCeNUeMJZrynGHtJk8w0ethMUd661jOki3ALXr1yAqDV7hxcaXe7iuyAbp2k7vqnQj5V2wWjYrzCJit3aVNqtClbaRCV2dZ+NVKauSCT12tzTWxpkVexlVyxlCQ+PN7JyIklYua2MkKqNSdgbSK37L1VkjMF2NvVbRjPEYSpWxlCYyZILk2+jkVtDU9qoyd2iDS87LAkcMgMjgCpePRtsl4P4K+qf/oDkfLQ6LdqWbpHsUAXq6Fk2SzfpzLS9gt/C9ZgGb2dU29VY6z5f2AtodoSw5t7XqbNNhhUQT1otvq3ii2dE3SpSnnoSajq+sMgmy4OetqLXbqa77w0IJcNYVVolmpFEZUd6yQ1jkZrSMiiqotm8StdrGxLxWCT+I0a6QDD5ZMS6/4p3ZIhopZwih480o6ctsFLKCToxE6X9p+2mWkRxXsIV2R5fTtLHno0hejE4oq0d18saSrxymT6KdmkD5DtbJVWmy7qlTziiWMXIzFsmH10WadvPmjWEPpeWt0z68OFQ7/plylRFebhcZp349rdqrLk2SzUbGu46fF6+IcVE7rvn8ei8Wlp7xaDpsOO1S49VS4l5Idh9UMC0PGLVtP2LuUYLndqzapWzJdjKX1V7liUtNtsQ9sTcxKuhYtuRTuz5872FrB1W5FgrjmtgAMCtNx1WRSqcY/WCDpOH+/Wtu46P13Jq+ATtz5rhr3JcY2GpSlOBocUM5bTBNh813pTicfPi3qq7/QsLaZuKo24/akLFinHyKUK2s3XNqJ9V8drFkW8H1lBg/TyxPEaXlrEuD4627d4C6uB/PXbaNK21Uzp4fp0vOhG12G+wJwywk03gnlkhX7HV36jLyWYv88Sg6wXkwrwFCx1J6QT1xVFxqq604sjD5VuFBanfTlZ+0PFWnGforIWjuyKStDYN4Bz9XPl7Wu3XWQy86BtL1euWP4Szl7RrSP4k+1KQWCD4q6Z4yWE/LQ5Osp50+VLub5nMtmiSbgXOtH/3gzPiI9nC5ujan3kzj46I9rDD/LyFYoZx9izbs2Ue7to2Zc4xsPZ+UDyw86p1W8hRYshJQAa48oe46ukZtGcuuyqW9bHgYAZYnIE8PvUG7RvX3psEG7On175HEYkRIXuOF7gDZLfj/t3d2MVYk2Z0/dNNN93x4PNLKo6U+1JSwn7zah7FKqq0SdLWwlmb3hTXCNjBQrRXw4DWoX2is7Ys03N6damQZ0btaGXigaE3hMWoNbxhLLFcwVVOaWq32YbwvOyVo1wUkr1Yad7s/aRr2nIjIzIjIr8i891YVt/4/KSFv3rwZESdORJw4JyLrAxpm47CxyzZ25B1Ru825me00StzfEoY8/wodPHqcJuOyibs/ek45ai3ckLzbao/TgYhLfp85r4RqsFxHR/eoZQWyE26C7pnPEfp64WCqQnMD6j1aUT0Kki9BeQ3usgzj54r8ThDx/d1YhyOEyUY6L78e7TCZ7ggPcUcodaR348oO3A/5uUm9yTObxOWRdTw2ovtvfKjW7cRIeK5yaKQsn3XpsL2p9UWz6t2OtldHGZUzMkl0B8KJk+fo8N3jSVlEPpy+vEPPRhkTM2fMfUlZJcR3eeQYHbL1UZ6x15x3QmZ71HXr7ibthJC2JNcOcJ3wBNRcyarvMP3O6a9EB81pbbrQfyWUjR2aJdMOI/zd8Zn6kdVWOO+Xp+7F7VrIbcOZlMs1qH5kgm0bamV9g/SroX1PCFKHDX6G9TyVB3XtnrlQne7oZshYm0+09jpz42ZOW1f6ZM7XMn37kvBnAfEMqg0CvVjfIN6Kox/Ska4M7gCAdYPqO/RLwrvh6QQA9B99F7YGGgkp0tReGI4AAAAA6CowHvsUcdl3vBMOAAAAAMADxiMAAAAAAAgGax4BAAAAAEAw8DwCAAAAAIBgYDwCAAAAAIBgYDwCAAAAAIBgYDwCAAAAAIBgYDwCAAAAAIBgYDwCAAAAAIBgYDwCAAAAAIBgYDwCAAAAAIBgYDwCAAAAAIBgYDwCAAAAAIBgYDwCAAAAAIBgYDwCAAAAAIBgYDzWoX2NDu7aQ6cXzGfQOQtnaZJlKgfk2gmLdHqty1C1n2N0pW0+AwDCUX3ls9Z+HtCVI9y/Ty+azwWY8VXGgoNXH5iL3WP56jF+9lmaM59BPWA8riJz09xAjlyjZfN5PZBZZukMm/fo8PkPqHX9Azo1tvKyWY91AQAAq0WmESeG49FZ2trQY8H7ewdg7K1RYDyuBOvR01KhzHO354kGJ2liyFzoJfB6rSjKKA/xNgDQhyjDB5PSYJYXWtSmcXptzFwAaxYYj6vIxEmeXV3YTcPm83ogtMwrLZv1WBcAALBaDO99j1rX36QJ8zmP0PvAygLjEQAAAAAABLPhKWPO+wO1ZqJFO8+/RdQ8ThfvEw1NnVNrJwQJIxyaeajOBfs7jSzs1b+LGdxPl22vlLUuQ9bn5ZPxLCZKU0J6jbvWszPyrth2glonR728b6bD59+jfX6o1+Qtjsr6ec9APffmJN83QDO7zlDLXI/S9fFlSDROzXhmWKHMfl4Fk99lXzaGwrTV2sl5dTViMq6jinWhyPhNhkzUb4mv73/glCetW7KZxZIvk+TPI0fHVFp3bHkzsd6IPug0iH831S7Xl7L2UFU3YjLqIq4rK7/Ds1Ie87WjRxapZ2WVJV1XmWUpKGsWcfkbRG+runXT1vWhz4VUfabyni5joU4rdJ0upfJryjyS1EVZfsvSKpdRuZxTFLZLTdyGts+be+18+e0mR08yyC9v0k5eu23q0NHp8jTTz7ZkndW3ldRFthwz8sF121BrxP02UERGeYVofPDqKLtfCusPhXTZTtDOm2fSujqzxakPu2+MZD7s3JcQJD+/Hri8zR0tamQ8L4R0naf1oliX+wgxHvuK5Z8+/cHrf/r0B4f/9Onssrlm+NmP/uDpq6//xdOfmc/63j94+oO/vm8uMD//C/fz0188/SHf8+qPfmE+M+Z3P/y5+VyGyVNmfg7/9Onfm8/Rc1+17+X8vCp55PLYeUiVRTD3Jvm6/3T2sJdGBn//1/xslW6JbKLneenqvHjlCy0zU+ma98yf/SjKi+TNzZcuV818RXVh13ukC5n58q6n6kL/1te1fB0ysnbSj+Tv6p4qZ5y2yaOXls5jVr0V13m4bmSj0nDKwESy5aNMV3Ue3fqK8pT6rddGf1hU/sAyaNlKf+LmKzO/fp2rz3n6KkT1mVUv9u8ydEeRLnd+frNlaeenXEblck4jv3HLp+vPzwc/V/Kdoyt22VP5zKG4vEamnGaqDQalyb/P1NWMsubWhXVvlj5mXTM65pernKRfiMsbPV/GFiuPWfUT3eu2ZfPMUjlEeu7+XqeTIa+Aa0HyS/XB0bP8/IUQ2lbNtSxd7jP6NGzNM4Mdb7mzMp6BXODZ1mTDmgEM7aZ3pjZTe+ZqspNr7E1v9jJKU3wP3X2wYoueh6asvI/tpcODnP37PFOyZngT+/fTEM3TrfiVLDwrvMSzHJ4JJjPGAdrX4Pvuz9JM6atbZFbsyubINk735mJS7oWrPOtMz6ImTp7jPD6ki7M93BjBM+PGHXfmLkycjPLCZb3g5mt47wGaZF1Y8ryNIczN8mw1NasepVPn8+TJcrG9lqbeWreNTNoPaIllvHPM0i3WtfTsPmKAJnaw3t2ZT3SzvUg3WP6TXC9L/DzNA5q7+ZCGdoy63mXOu63HKX0JbQ+KAN2ogXgKHF19Y5zofovmIjeBymO6zmUNVJPTb12KNiKwbLmOJ7dbdcV5PBWVv1JZM+Bn72y4HnDdFjhv9nWuTztfy+175G8ES/SV6VV7ysxvSfsJklGJnDOp0C65jzviebFUOxzcT+/YunzyBP9+ni4UvcaltL/QtEcOpNpgWJrcF3hREd3G7nG9mwt5BOpj1Ac54xHr2GUZj+pijw+cpmrHXA+2Hkf1c2MhkW9wfxi3WVvOogMivy4RqKsyHrp9TNJ3VKZqW83Q5X6jb9c8bh1yOzS1i4s7hCmvoxge2sL/phu8uJ7lPVNyKDf1/Q/zB0px+Zt7o6P++6k8A4Mb3vAI/zf4ijsY+CjDghvtfk9hWQ5b+b/E2MghY7fz8Ah3Ula51a7obeNO49FkGDpdJnhHNncs0TvCJk0YpLTsKRbplnRO9iAZMTRKO22jMCIlF1Nv0aRD1QN3MkfDXzkxPDbpDEZKhzmdKa6XxHDTA7qv76m8e3pQqT0E6EZ1fD1nWMeHLKNC5zG7zie224Yml03qpJm9i75q20+zhe81pwbdFg44holgy0U9nwfWQzm7zXvXnnLyW9B+wmRULOdCQtplqo8z7fANzxA2+Whz28ojtL8YGvF0sGqadt+vwqPlk9UwWef3Qfq+evjPU/qaoS8u4f1hfpvV8usGQfIz42Gqj2F0matRua2Wjdd9QJ8aj5tTirp8VwxA7sjjDswc3locWdMg19Wahev6XVOlMz2eDUb3Rkd67UqP4QFLOq6LR73ypdaR1IWNoLvmdMUxaXNHn98gZc0Ml1etpYvqoeZslwe1JXPaPXiWfl1mqfPUMHVT+iJv1TFHHgDtYZQOXBmVkeG0MM/1W/3VFqHtYTVReQxCPBsfUHNbov/25K3jsqYGAqOPd864z+PDWQ8l/YJ4ZuL77IlDD9tTXn4L2k+YjIrlnE2Fdunnz7TDVtPKjzq8dXcpQvoLjT/pCk4zMoabRM2o35e6Nl8XESTrnvRBNamQl/A2W58g+anxsFvUaKsBuvess252W6vZBs9WLkcN3TlMaIM7hLe585fFwq57/hlAeW0kXOCXTR+dG7PcGMSTtiqUpz03zUayql83TFUL46XrPnrwlfqQCYkMUMWDry638jKakLUyEo1RKR6O/BlxMUHtYZWp6iFQr1uS/DfGqT1zPH6/ZPfLavRRwniZz3TDae+ra9HEIfLaVWlPnXptytOqIqM8OWfRUbs07VD1x6k88ZHbR1eRrUdQmg/oStOEcWtshAiSdc/6oBpUyEvVNluHIPmp8bBbdKBPfcz6MR5VCMlaTxWM9viseVQDd9epdBvVaDNDaUZGNYyYUPLTLkB55erAsrRCMQ7KiMsJ4VQgWntTFHoTdHj2Q5qTUE0sX92ZtW5fUzPiOnmp3x5WjqI8FoYlo3VhZslAL8paXR+jdV9JWLNqe0rpitHFEMryW0tGnpyDCW6XBe2whFr9haJ+miqcas6LCJN1fj6U7q8o4f1hbtkq6GoZQfLLHQ/rjedV2+p6YN0Yj3oDQ8aas/Y1Oh15f8wMy24ky1ffLQmRBLAChl20sUc8AW44lGfJ0935CwfDe98y3hNXhnPTEtIZdzb0dLvM+Wnrz6pxOx3KIp3OCksG5YsHetloJOFGx6vCz5R1Tfai81BsPVPodUTpNVceY+NscNyjG9xB2UaiMirvthJvZFVC2kMXqD+IM2yc6BCpu8ZOlpaozRDxIn+uF6eeTIcehY56UFa9qYD1MeNPbUbtb/nqWXdtoDKakiU14e0pWld1xmrbxvtlPpVR1n7CZFQi5wyC22Um3A5lExWX2/fQx/nOobS8uYSkaTxRtl6znCRq5ZNp6ATJOicfaiOQOY/g3/X2r2ZV6A8zy1ZNV0sJkl/2eJg5ngfIr9LYt07YaP5fB3ADuPABDcs7mHbZnZfsoNptzvXusaWj3EhMA5XdWpen3qVDM/pzPbQiH5IQDz8n+31enaPexD8k7+va48zsJQSzz5x3Ro4MVQjBX2De7TLnpC2hI/lfPHl3+buje+ii+kLq9QTRrjPeep3AfKlw44B691ikC4Lc36pZjiWTZkSYTEbptW1nqHVnnI7YRqIYlTwItwYna66tCWkPnaOMrJkzJg15drUwn4RIL48co0NxvQoZz5GBzR5URS8s46v7ZdVrWLceOU6Hds2aa4y0hQvmnI1+WRuY5Nvf/RvenpSnWvQ7btvyrHN0WN4Hqz6XUdJ+QmVUKOc0cb5L22UOat3oK3TwaEbbMefZlJW3gIA01S7bu8eTZ0ud8dgh79Z0UIYO15Eqf1T/gbKWfDS4/+Y6jvMh+VfX7pkLxuMZsDmoI4L7QynbOSJuF0nZqupqGWHyE927TNx3WOOh5Ncfz8Pkl5Nm5ti3Pui/l4QDAAAA6wR5M8iFkU4n5+sXyK8e6ydsDQAAAPQVsvxlnI7A8KkJ5FcXeB4BAAAAAEAw8DwCAAAAAIBgYDwCAAAAAIBgYDwCAAAAAIBgYDwCAAAAAIBgYDwCAAAAAIBgYDwCAAAAAIBgYDwCAAAAAIBgYDwCAAAAAIBgYDwCAAAAAIBgYDwCAAAAAIBgYDwCAAAAAIBgYDwCAAAAAIBgYDwCAAAAAIBg1pHxuEind+2hg1cfmM+BtK/RQf7d6QXzeVV5QFeO7KHJ6UXzGQAAAABgZYHnEQAAAAAABAPjsWdoT+fa8FgCAAAAAHQHGI8AAAAAACAYGI8AAAAAACCYvjUe56b30OSu5MgPH+vwcnLvWZoz3xRiNtLEvztyjZbNVzrtM9Ti81bTfO9tcgnJ3/LVY849lTf7AAAAAAB0mT40HvWO5Mbd/XT5+gfUUscJoqY25hyUAXiGlqbOmfs+oOa2eWqUGZALZ2ny6CxtbUTPP0eHaZYOGQNy4qROc5LPJ6N7To6qn2bmrzGujEzbgBTj8tDMFmpG93AaO2+eoYv3zQ0AAAAAAKtA/xmPC1fZwBqn5oXdNGwuEY3SqfP7ach8ipibnaX24H56Z++AuSKGnxh983Qh18vHxt+leaJtJ+jUmLlEA7Svwc+/P0szZRtkVP420+GGlb+xN9loJWpdMt5LNmov3OF7zr9JE+oGgdO4oA1SAAAAAIDVou+Mx7nbYtiNW0aXYWiAtppTzSLdukM0+YZtZAp83yDbb3dzjMf2It0Q429/5Ek0mOcvtYtDyzp/B2ifZ8kOj2wmuv+hMh6XF1ps1E7ShG/tmrwBAAAAAKwWfWY8PqDlu+a0DDbylvi/eE1ifBwvDg2zgdemh3TxqP+7jLB4CpO/O2e830qI+qG+hVm+m5wDAAAAAKwl+sx4HKDhEXNahvEUxmsS/SNeo+gx+AoNkYSUM37Dx/tWCDyNyd+2E5m/bV3XYWrlhQQAAAAAWIP0XdhaGV535tMbXhbmPc+gDgG3blf8U3/K6HxINxbq7XzOzZ/F8NAWovstmmubCxEqZG7OAQAAAABWgf4zHvceUBteGtarc9TreJrz5jxigPa9Ma5CyP4rcOami3Zbj9LU1GZqzxz3Xq/zgK5M22lmG6fZ+WMWzibPG9tLhwclNG7ng5/fnCXfntSv8zlGV/wvAAAAAAB6wIanjDnvI+TdjfYaxHFqXh+nW+a1PE5oWV7Xc9Q1yobse8z38lqeZHc1I6/r8QxSCYHn3iOhaud1Pd7aysH9dNnZIe7fI6Hyt4iafG0keZYYj4dmiL97L7UJBwAAAACg2/Sp8QgAAAAAAHpB34WtAQAAAABA74DxCAAAAAAAgoHxCAAAAAAAgoHxCAAAAAAAgoHxCAAAAAAAgoHxCAAAAAAAgoHxCAAAAAAAgoHxCAAAAAAAgoHxCAAAAAAAgoHxCAAAAAAAgoHxCAAAAAAAgoHxCAAAAAAAgoHxCAAAAAAAgoHxCAAAAAAAgoHxCAAAAAAAgoHxCAAAAAAAgtnwlDHnHfPoq8f05aOv6PHjx/TkyVN6wo+Wx2/YsIGek+O5DbRx40ba9OIL9OILG82vAAAAAADAs0LHxqMYiZ9+9jl98egRG4rmYgBsS9JLm16kb778EhuVcIACAAAAADwL1DYev37yhD777Av6/MtH5kp9Xn4JRiQAAAAAwLNALePx8ddf0z9+/InyOnYLCWn/5m98izY+/7y5AgAAAAAA1hqVjcfHj7+mX7PhWNNhWYisjfyuGJAbYUACAAAAAKxFKsWJv/rqcc8MR0GeK88XAxUAAAAAAKw9go1HCVF//MlnPTMcI+T5H/3Tp10NiQMAAAAAgO4QZDwqg+6TT9UmmZVA0vmY0+u1oQoAAAAAAKoRZDx+8eVXKmS9ksg7IyXdtczy1WM0eeQaLZvPAKRoX6ODu47Rlbb53CnqeXvo9IL5/AywMu3kAV05socmpxfN5yos0mmW6cGrD8xnUJmUXq5RmZp8Tna7DS2cVc+Uo1/0SLXbXsgqGNOmVR7O0py52rc8YzpUajxK+PiTzz43n1YWSbd6+Fp3WlEl2AcGB5DCDCaRbugOM6Ojihp2LeMEANAzTNsMMXCWF1oUzeNat9GWAahLqfH42RdfrFr4WNKV9OswNHWOWtc/cI739w6Yb0G/MjddxcDjmW1zloh1pVA3xMBszhNtO0Gtk6Pm4rNHNdmAfqQvdWDsTWo1xqnVLPdODY9N0pA5n9z+7Lbl/sM4ffpBNz2HRL9SaDyK8fbFF52/BLwTJH2sfQQ9YeEqXbw/TkcKJxXcqR2dpfYzbjgC0NeM7aXDg/N0oWzAHtpN7xtnwqkxcw2sLsrYOkMt8/GZRrzgMl6Yj/1MofH4+Osn6u9TryaSvuQDgG4zd1u8ieM0YT6nkTU33KkN7qfLMBwBWMMM0MSOzdS+uYg16ACsAIXG45eP6nodP6Jbp/8t/e4/+y59j4/hV/89/eRX9cLPwqNHPdg4Yy1OjY7MNTOp+7I2P3jrLKuETeMFwdm/tRct6yMdmolDUU5eo3yW5E3N+vS96jnWvdlriMrzHKUpv3fzn7NxxLj54/u8zRXJhouCspiyN+7w+Z0z5p6iMNYi3eJ7i0JXc9PHlWeyeWE3DZtrEcVrI7PLGSZfr4yhC8WLZFhZNj7pOk+HZPx8B9yT0htNiJz8dpEVIqpTRw4lepm0nUQ+VUNVfjlS+XXatBwZ+c5tw9azCnUgaa/x7526CanbUEr0u0imKVm4v1Uh6fstmiuqV+sZSRmsPEkd+/We0lO/PXhl8PGf59ehlydfJzL7ia4/06sXX9c9Unrr3W9/7+iVOpK8quu2py7SzZy+wX6uq4N2nWTVh/W9nVdbjlaaSX7Ns1Ly1keSB/N8Wd5kaM8c9+4R0m0pT9aujL36Nbhy5SMlt4z0yvQ1kGLPY82XdS//5e/TH7/3S/r+n9+h/7HwY3r9o5/S8Vf/hG7VtB/lzyF2F67oS0RNaz3k5anN1Gq6FaQqj5VhsmHft8V8a7g/S4d2zdNr0bPO76chbgCuwmQhlcrGCe2ny9Fvr5+gSfNtpIyHZrY4+Wxum6dGliJJo7s9bu47R4cHH9JFLs/BXT+mrefN7wvydqO5h25tT9LR8vA6GdWAOM8jJ+L7VJ4l7YwGIL9/m96K721u4zwd9RRXOjnuPLbGMua8E8vUf16ZnGXdk0qDzyXErO57M9+ryIPTEo3TazmhK6n7xp3NdPh8wTMqEC7fM7RkrdfV9V3S2MtkWFU2DqKHXp2z7LeabxUm36342Rn3BLUTrfONu1abUGvZXDlJh+m2i3O08+YZNvTNDd0gVC+ZG813icx9VdZV63IQ61iUhqkjgxoYmvec7y9PEbehrMFf2patY9IHsO5U0IGlS8eS30eedmWEuDopdUcyMOYM8LlU0O+UTCUfnixsWSmGBljnHtJSJ3ogeuqHHVlPE3mbfttJg8tgGQ02agzxn2fqKl2HLCKW66GZh+aTxtf/7jzTknnUfs1HBcuh4f1GE41L3neqfWf3U5J/NWmJkbEp3Y5CsNesOl7m9iLdMHUyNLU3o28boOERc2pNMOwNVHRn3uSfje276iSJTN3/0JO3RmRbPtYbTFsKCc+n68wfO7VR6MqVscfirHrtIoXGY90XdS/9z18R/cY+Ojb1L2j4t/8N/cejv0305S9p6f+aGyrydY2wdWT1J4dtcA3Qvgtuxzm89wAbblbHw4J/mytPDEd7bczw3jdpX6S9Cs/AGNpNR7hTKwufzE2bcKjj1RqlU3GnrdfjNb0OfuKkMQxn/Y6b741Dq1y+N8ZZ4Vn5pt5K8pubN75vxzmvnO+pzrl1KWnkc7PcYaXW/nGexRDgzmPG77j4XnswndjP93FHeyu+T4z4eXVfkjbnvZH1vHpyziWnM9DM00VpuNsOeHVdlwryZZ14x5bZSZlQFK3lqiLDOrCRzW3C8dCy7E/FeeT0mxl64dwjBNSf0nm+r2G1CTZ6HDlxu7yQMuqlPdsTr06pIlOpW6uNhcIDiZ6cvOf8duKkKVdcTvf7LL2JkE2CTn5VH1DiibNojxxwdDSSgzzXMYq57t5no57u/DjTG5JHuH6nZbrcvkc0OEkTWbKKYeNxkMefduBgnkPkLJAJXkS0M3v56o+TwVh0Xhmy0iebazZmDBHsDZyR0ZtVh7qdGANZZGyw9b/6M2Uc8fOZ9MOqXvSp9czs9rR89V1jOFv5jO/N6adknPOfafRy4iRfl/HDXI5l6owxFqbfUGQagZtp55jd7yRMbI/kmYzzy3e1LDX3WM/kf93nCXG/ZyZfyZHIUvdh0gfxdavOIlmqtsP1pjZdKmzZcd3tMJcdSupM7Ad1Ft3HRyRH00fZhrHtAIt0pVNKjMd6aw1/9zUW4Mf/neYlVP3FMrX+RozJCfq+H/sLpE4+7IalD7cTVkiFxsalroyo49GCz/dMxXgdmjA8wp0OGyfpRhyhQ6ZDO0ZT4dCI/PV4em1PMksy+PcOvqIUaSvPxsvJbnBuOQrCvEOjtJMV3H/1Repe5RmwOnc1W+SGtL/kPqGWnEtgGWXLnxukGhxDPMghVJDvG36IXA+I7bs5+agiw1ro9H2vfIyZ8ReF/xUB9ad1Pm2w2/epdpnxrCifXaGiTMPamIsqa2Y5NPnlNINgyijM0DHVB4R74oZGvN8bOWQOxmPjbAg8pBsLofpVTb99mQ4PbeEyz9KhQm+n5V2qCxs6U6bP1w4FA+dvmY2KuZuRsZExWfewB2/bmRF7izL6riF7sq82AZlzW//1lQrPjDxxbj61Hut6UTiG/ShNWcazxi6/9nTaY6eQ1U8ldW4/s76H2DYCtf5Z+Sqa8Cud1ThlH+TrSs7mefzdknzMGv+V91DKbHmfM2TuY9ebU8fMxF6/Tbh1psZ7B6vO2KBsGB2wvdFSPtVmDOL9jTyS6UlXPXKNR9nhXHezzG/98Qf00z/6iP7T2D+n7w3+Szox/3vU/Nv/TN8331dF8tHdHddmHcDRFu1MzZ40akaSa1x0iFHO/EHHcpuvFeIG1UW40bWdTig6eudqD4ZnmuJ5kA46KxTUdYx8VSN3ZOGHyDx6LkM9o9ZLDvSzHYNapb+5C4ab0XkJuzjlcENkrqegR1SSaZ2ym7KysZbXv6xIOT1S/ZGSQ5eopN8ZMhXPj1nqoH9XspTjmSDydHWTXjyzAsrI7jGWUa28fmYCKxRPYpMJpv6dGdNG2Eg0kw5l/EZ6b43/8frDnOUJVagz2ayKKoeJ2sTI5EvKkLH0pg65xuOGDRvoOT7q8Ku//H36dz/ZRH/4/i/ol//7F3Tu9f9DjX/9J3TrI3NDRSQfkp9uEYeMs7yRBuXt6BWsPM56sBRdmEF3i6gBlea5Bsoz4rrw7aPK+rFacCdR1IjiEKG35kiwZ3Ud4cnXDi84R14YZ4VkqMJL8szGuPZ4RB4glX43MDofhwL9Q8+Wq7TL2nXUc5mWt++e9j+hdK1umbr6bSPhcnW/hPLE4+J7w9fgpNuQXe788UfDxk1kWEf9hEW9Z3YLK1xqHxmbC7uP5Y2TPjye5JRFCt3fzRlvoBicsTeTja4rEhVgksjgIs3EE9ik3N0K/3ZEvCTAO0x7ivptewmGGJFvdyGiVhi2fu65wq9zuEn/5e2/I9r9I3pv1+/Qb33vd+iP/vxH9K8+/im981f17N16+ajIwrzjVdBhkvD1QtXQM6Civ3CgBg8/NK0wLvrCV8xUJSv8ZNKJvSMFeQ4NXfqoAaVK6KuLBA6Meo2pGJBZYdv0LF+FI1N0KN8iVlqGxiMbexi6mH6+zifktkvL++ASWkcWKyDTsrIW9T9lIe+uUSQH1V/mry9LU1O/MxFvuESKskOfvfPs2Ea/vb5vkU5neKTszR2pF5gvnM3Z3HI1vs9ZX2n6iTrPLEbXi8Jez2utrUywQ6hsvHtLCOamu+ANDvRcJksKOB9G9tkbZVwS+d2jGyrUbQzOaDzgNndDTUAs3baibkkadug4GzuE79abPZawsTpd1RM4Sq/F6z59QzB5nnhLI30QR4i9tjRreUFVSozHet6+L83/PnnXy3j++e4aj6rjdjrmjMavXL4SunKNhuWrZ7PXflWCOz9ZfC8hGKcBcj7M5+G9b5nZtdsg49fHhMzUK9Ceedcpl07HXvdVkGdZa+FsLghFr4FJh4brNChNiAGiUAOjvXknj2Sgcna7mTVfzq5BtQnCnHsEyVfWI2WssyzulMNlmCkbtYan6PmJTmp8o3eUThlvpJNvHnxOV5zd6gGBdd4Pq9iDogpZeXUhZZVNO+ZTTMU6SuhQL9Va6pw1oob89m0+5/Y/5i0A9qaiCgS3D0V+3crif3/tVjF19VuT6neN8RobPoJZo+lc6zJ6059G5KJD6DlLROzNHaLX6l5z5IY/k/uS5RpWf1/rmUWYejHEywpSu7k1zjrQeAmBPsrbVQ6qLzZEoVXPME1jGVCKwIlMnNZDasvEI/LomnX7yXVrcmblr7TObaeEkY/Sd663d2Lvn7TrSG48DtTwlmfrYfp5zjIRq04rO3oyKLTKNm583pxVYYL+cPcmomt/Rsf+6pe0vDxHF478Gf2ci/r6eJ3ujvPxfPV8uAI1R2yYSTjSrkB5hYi75lEQl2/0aozoGYduvtKdGb8KwXCaTgM8QxRXqhgt4hp3Owj9GpPuLHhNkBDdAVqyytm4I+55LwSSk2f16o2axqyaEfEA5a6FOk5L22sOjpEBop5TNCjpzifME2J2lKvnRoN5sstcdXZyyKuSZKNNikD5mnVd6jUo0TP5uDBSPKMOlWGWbPQmlRIvtlPf3DnJa3vs+s7K99EWbQ32SkWwTCUkKa/EidPj49Ir8SYG3S6isGV0j7zWxd6VGFGljlw60cuizS4JOe2bDYWoLjL7H/WKovqhyfD2YcisW/0Ko8rh+5r6rbnnyEG/tseVQ5jcOyTqA81HhYQOc3RKhQ2zvrM25tgMTZ3w9Fj6Cbe/r/rMUky9OGLbdsINdcZIG80O2YZ4/rKJ+tdq2AZUuCfeNTqT0LS3McVZj5zOnywZyAxbi37k6ILv/Ytx0gpE6WFWn8d5e6OojxJ96s5fV9rwtGAnylePv6Zff/RP5lMV/oH+5j/soWM/+Tv6mD9tGtpFb1/8b3Tk976jv67Id7/zbXqhliELShEvgto4tFJrZdYQ4nVryvs+u22MPys8UO9wXHoDf6qtm8j7GS+MlPy9dNBltC7f2PEMyl31Q/PqVN4SAr0JxJKbGHPow1aWYs/j88/V3DTzPXr9v/6MfvX/fk3/wMfy/5qtbThK+pIPALpO6N/D7VckzEc1vRUgB1kLVfb30kHXWQj5O/Wgf+DJgryLVRHwSj3QdQqtMtnhvGnTC+bT6iDpd3OnNQAJA2odp4TR/HVY6wIJfazI7sj1hIT11qsne5UwHqjJBuTe96j1xLJ0QdaM60uo99Wh1KX3zZdfZuPNfFhhJF1JH4CeodaOrMBrgQAAvUHW7HVpHRd4tkC4evUoXPMY8dnnX9Ann9X8w9Qd8K1vvETfePkl8wkAAAAAAKw2QYsJX35p04pvWJGd3pIuAAAAAABYOwQZj7Lm8Dvf/iY9vxIv62Yknd/k9LDWEQAAAABgbRFsDcpfefnOb4hBZy70CHm+pLMif1UGAAAAAABUImjNo83XXz+hf/z4E/r6yRNzpXvIK3m+8+1vdf0vygAAAAAAgO5Q2XgUnjx5Sh9/8ik9+uqxudI5L76wUYXGEaoGAAAAAFi71DIeI7748hF98unn9KT+I9RLwL/1zZfppU0vmisAAAAAAGCt0pHxKMivP/3sc/r8yy/VeSjiYHxp0yb61jdW7z2SAAAAAACgGh0bjzYSxv7y0Vf0+PFjFdoWj6Q8XkLR4mF87rkNtHHjRtr04gsqTA0AAAAAAJ4tumo8AgAAAACA/gbbmgEAAAAAQDAwHgEAAAAAQDAwHgEAAAAAQDDrynhcvnqMJnftUcfpBXMRgFwe0JUjWl8mj1yjZXMV9B7VViHzjtD93VmaM5/XPqa9TS+azwCAtQo8jz1mbtoYH+o4Rlfa5guHRTod3+Mf/m+se9HJ9hAZyI7TxZET1Lr+AbUu7KZhI/uDVx+Ye0Df0b5GB7mOMbkEAIB8+tZ41Ebbas+6F+nWHXOqeEg3FqoaHg/p4lEYLEWouu62Id1epBv3iSa3j5oLwEEZWXmTobVHRzryjJW1q6znsgMAculD41GHPhqO0bZKLMxTy5xGtG8uFofiBvfTZfF0ydEYNxf5dzNXn6HwU78ySqe4Xt7fO2A+g75jaDe9z3V8asx8BgAAkAJh6x4yd3ten7BBeHibPqX7LZoLncWP7aXDg+ac7tEyZv8AAAAAWGX6y3hcOEuTu47TxfvmM81TQ60PzA5fu+sRQ+7hIzj0ZYWsRwZo3/bIi1gndF2fVP758NdzFZfR2jQiMlIyNufOWk1XfvbmJDvkXj+tDMz3yst850zmvXY+Cp9lofJ4dJbEVm819e+0zHLWPJp1cnEaR67RnLdZIXfzgiqDHRbUaUh6saxsGWWkFbqppFwWeWs67Y0M5lzJRy+pkGflLatQZfDzaMrg/0bdm2pfto5lfW/rjDns9AJ0xMHkTdd3tbIKcRm8esr8TWBdxnpgjsz1mIHPSulArv6ElD1D9qn6ycfPS75cO0sHANB91q3nUYwCN7Q9Tw2nI9WDVir8LQNQbodrYYWs1bq5sXGaNJ9LQ9cRC1cTQ3hwkiaGzHkQusMtDt9XLSPLqGm8qYpRmprabM7n6VY8qD2guZsPzfk4HVFh3k7TymDsTRXeb4pXd5vZ2HL9TZpQX+ryH5rZQk11XR/NbfzckjVcEyf53vP7ScQ92dC/yw1jinHCA+xWc58cl3e0qDETlb8eS5eO0a3t5pknzbrLVFrn6DDN0qFSfawvizQ8EbrAv1fy2UyHz+tn5YXyJ2TS5Hvb73+oDHO3HejJlrPG9D6Xbdc8vRblWdJkfXGMDG4jN3aci8vUun6CJuV3kXFRqCNlVCtrjOh0k+idKE+NcWrPHHeNvqC6NG34rruURfqu4mdl66AYa64OcJoj5ssUJWVXxqq1oUwdLPvA/lEMYj8vO2+esSb+hg7TAQD0hv4yHtVAwR1iHOodN51TxmARry3kjshcsge5uekzxviLnsGHMShkUJvJmv1bxCFr/v1ryvAYpddCQtdqwDSz69h44s67Ibt9K2A2fCjiQZMPax1lrTJ6A/Dw2KS+n2ndjrwBD2gpTntc3deNtCqhDG9Jy/3txEnRj4d0cbYbngse3C/N09DUOce4HN77njZWOqA9csAzWHVaIpPkOg/wDZZhmT6uiCxyUJMm19subWOI9WKIjch48FeTraitRIjRYuV5aDcdYbk6Rie3edeYMxOauw9W0bBgWavd+Qaz/MRuH0F1qerNa/tcXtGt1qXIcArXweW7bEya9qjhNE9W7FcMc7Oz1Jb2GU1sFKN0Stp0mT6yQXjhjle3yli1+mJDR+kAAHrGuvU8Tr4RdZqWURdj75KeN6FvPlQIR7PUzguxMKpzNOdWZ628MIoKoWtl5L5H+yILLZShAdpqTnW4zniYePDRg0ydMnKHv9/uxJmhUdoZGevRgO17XbuVVgWU8e4MlBEDNLGDjYs786Xh61KMgb6VZe0zPBJ5ZOsxNOI9U6WVJX9dz0X6uCKyyEW3rzbrhkZ0YTPt3D/O+U681cvte6zrr7iGTIa3XcnVNjoNdmj3kHjcMu5ZMVKyHuB8839R+wisS11vB1Jt35GBedbOsXIdVJ99z20tMrzEEaY/SAzlNMsLLWpnRlK4/PHEX+gsHQBA78CGmZokg2Ea1Tmac224mYHNCsPmhq7t3dZy2B6MSvDs3PIyRq/8yX/XZJp0GbfQcEaHrwwQwXhUY68rl2XK8STlE5ZWKDxI3zWnvYQH8DYbue6A1x1SBqlKK1l7lhyRRzePFZJFAWrSFBmoMrFQhoM2KvXgr5c5DO0Yrazr0bq5BiXe9cvxUoo1SlBdmnqz+w9zKOM4Qj0rDPFGRiF09ay6YV82bpfMaR2UBzSEDtMBAPQOGI9l+MZcdDhhFBt7vV8BVXZd12VMr/eKw8MKHrSa3qBRuYwuSej6IS3dT4yVTGOgw7TCMJ6eNcTw0BZzVpPBV1jGEurLkB0f+evwqsjC9/x0CZV37WVUIWujF8qoFG9cgfeskPY1epsNKbUutav602OC6tLUW7x0wz9MyFc9qwJRnxCtDQ3YQJbCjmrUINgr32E6AIDe0efGY93X29jrE2fpbX+H4XTBjN2EMhUZhlLiFenxrmtZaB5tGlDvrrPWgqqQV3GfUIYAAALLSURBVAdl9LFC161L75ry28ZAF9MKRIfossKxxrjPDONWJGM9nyZvApHWx9hLW4YaSOvpTFVZpLzAtk7XwejHEuukCllHeiGGj0yiFj7MCWPWIXDytpoE1mV+vVnkPqtMDmbdYK0+ktPk+swMGRtdyQw1G9REKmvynNKzztIBAPSOPjQebU9LFBqqPrue2J946+IwjzqO08WCMKAdss7yvNkbTIJ3XdfFCXlZrzAyxkLdMqaxQ9cPdfk9Y6B7aaXJGmSH977FxvI8Nby6n5sWOYxTsyueKr05w99Ju3z13UTWEcbQdLy+C2dLdsPbZKclRkKZ8R0ui2gN5BkrDX5+M1mbGlPJmNXPbd9s0ZKtF8qo5GfcvFcrZB15pmzjIlP2TJAhlkcHhns2YXU5vPcA6wzXmx9eZr1Jfheug3PTbv3rvqpkeUhm2c3mHulfnFfmLNJpWcfsbATKQG0gkr7Zzk+WnlVIR3acc3/iyhMA0Cv60vOod5GaD3XxvXUWyWYbH3u2nxOGs7x0KxK69nBCfLXKmI1tFAspY6CLafnEg6wyRqMBSXZvRq+jiQzV6LUn7q7jTpB1ZOJNjt4HKcfb9FbGurtkh2i8m/72uLP7vYxozZqdlhjfS9vL5Bcui2iXbpLGu0SNrHpLjBa5r2wThtIPnliQoxfGqOTrWZuOyjEytSZJ2bLP05FQqpU1hLC65PJJm5FX+MT38HHpFWctcbgOuvWvX5VT1hZyyq7as3llTvzMM7Q0dS5gCYHoo+iUnZ8cPesoHQBAr9jwlDHnAIAuod6pd3OSLtfe8AQAAACsTbBhBoCuYzzQIwMwHAEAAPQdMB4B6IC56fSrj7q7rhIAAABYWyBsDUAH6D/55u1qlV32CFcDAADoU2A8AgAAAACAYBC2BgAAAAAAwcB4BAAAAAAAwcB4BAAAAAAAwcB4BAAAAAAAgRD9fzfCSqeHVDNOAAAAAElFTkSuQmCC;" vertex="1" parent="1">
          <mxGeometry x="-840" y="365.62" width="392.36" height="386.38" as="geometry" />
        </mxCell>
        <mxCell id="qNxANydqirzgauEr2VLQ-6" value="&lt;span style=&quot;font-family: Menlo, Consolas, monaco, monospace; font-size: 14px; text-align: left; white-space-collapse: preserve; background-color: rgb(233, 236, 239);&quot;&gt;kubectl proxy --port=8080&lt;/span&gt;" style="text;html=1;align=center;verticalAlign=middle;whiteSpace=wrap;rounded=0;" vertex="1" parent="1">
          <mxGeometry x="-780" y="760" width="230" height="30" as="geometry" />
        </mxCell>
      </root>
    </mxGraphModel>
  </diagram>
</mxfile>
